<svg xmlns="http://www.w3.org/2000/svg" xmlns:xlink="http://www.w3.org/1999/xlink" viewBox="0 0 1280 720"><defs><clipPath id="clip-path"><polygon points="959.45 229.22 979.64 248.76 1080.01 202.07 1029.18 156.61 959.45 229.22" fill="none"/></clipPath><linearGradient id="linear-gradient" x1="-6225.03" y1="2575.12" x2="-6224.61" y2="2575.12" gradientTransform="matrix(249.07, 0, 0, -249.07, 1551414.24, 641587.66)" gradientUnits="userSpaceOnUse"><stop offset="0" stop-color="#fff"/><stop offset="1" stop-color="#1ea4b7"/></linearGradient><clipPath id="clip-path-2"><polygon points="995.99 190.69 1035.11 228.18 1102 196.12 1042.17 142.6 995.99 190.69" fill="none"/></clipPath><linearGradient id="linear-gradient-2" x1="-6247.25" y1="2617.15" x2="-6246.76" y2="2617.15" gradientTransform="matrix(-192.93, 0, 0, 192.93, -1204216.98, -504745.45)" gradientUnits="userSpaceOnUse"><stop offset="0" stop-color="#1caba7"/><stop offset="1" stop-color="#104a4b"/></linearGradient><clipPath id="clip-path-3"><polygon points="1046.17 210.48 1066.33 228.59 1105.38 217.21 1076.22 191.9 1046.17 210.48" fill="none"/></clipPath><linearGradient id="linear-gradient-3" x1="-6242.48" y1="2639.03" x2="-6242.15" y2="2639.03" gradientTransform="matrix(-114.31, 0, 0, 114.31, -712510.94, -301466.47)" xlink:href="#linear-gradient"/></defs><title>Asset 2</title><g id="Layer_2" data-name="Layer 2"><g id="Layer_1-2" data-name="Layer 1"><rect width="1280" height="720" fill="none"/><g clip-path="url(#clip-path)"><rect x="969.32" y="166.02" width="104.62" height="92.37" transform="translate(341.57 1003.58) rotate(-61.06)" fill="url(#linear-gradient)"/></g><g clip-path="url(#clip-path-2)"><rect x="995.92" y="132.84" width="108.08" height="117.63" transform="translate(116.14 708.5) rotate(-39.31)" fill="url(#linear-gradient-2)"/></g><g clip-path="url(#clip-path-3)"><rect x="1057.8" y="185.45" width="36.89" height="55.07" transform="translate(369.07 1051.79) rotate(-61.06)" fill="url(#linear-gradient-3)"/></g></g></g></svg>