<svg xmlns="http://www.w3.org/2000/svg" xmlns:xlink="http://www.w3.org/1999/xlink" viewBox="0 0 1280 720"><defs><clipPath id="clip-path"><path d="M1124.47,386.78c.7,4.7,8.17,7.48,16.69,6.21s14.85-6.11,14.15-10.81-14.64-6.52-23.16-5.25a16.75,16.75,0,0,0-4.55,1.24c-3.88,1.83-3.67,5-3.13,8.61" fill="none"/></clipPath><linearGradient id="linear-gradient" x1="-6153.18" y1="2648.68" x2="-6152.65" y2="2648.68" gradientTransform="matrix(59.06, 0, 0, -59.06, 364502.44, 156802.99)" gradientUnits="userSpaceOnUse"><stop offset="0" stop-color="#002d3d"/><stop offset="1" stop-color="#1f65ac"/><stop offset="1" stop-color="#1f65ac"/></linearGradient><clipPath id="clip-path-2"><path d="M1124.45,365.82a2.94,2.94,0,0,1-2.12,4l-35.7,7.67-1,6.39s3.65-.44,12.41-1.85a62,62,0,0,1,22.22.56A153.44,153.44,0,0,0,1146,385a17.42,17.42,0,0,1,15,8.78l8.18-9.16s-11.4-4.23-5.77-9,34.78-11.63,34.78-11.63l-4.33-5.6s-39.18,4.41-49.19,4.7-19.62-7.13-19.62-7.13l-7.34,2.95a13.83,13.83,0,0,1,6.73,7" fill="none"/></clipPath><linearGradient id="linear-gradient-2" x1="-6209.6" y1="2609.93" x2="-6209.07" y2="2609.93" gradientTransform="matrix(216.34, 0, 0, -216.34, 1344474.19, 565009.64)" gradientUnits="userSpaceOnUse"><stop offset="0" stop-color="#1caba7"/><stop offset="1" stop-color="#104a4b"/></linearGradient><clipPath id="clip-path-3"><rect x="1090.03" y="362.4" width="67.65" height="46.38" transform="translate(-57.23 515.08) rotate(-25.19)" fill="none"/></clipPath><clipPath id="clip-path-4"><path d="M1141.62,375.45a61.24,61.24,0,0,0-26.72-.21c-11.17,2.33-18.35,6.93-22.23,3.43a5.71,5.71,0,0,1-1.45-2.18l-4.59,1-1,6.39s3.65-.44,12.41-1.85a62,62,0,0,1,22.22.56A153.44,153.44,0,0,0,1146,385a17.42,17.42,0,0,1,15,8.78l2.66-3a28.11,28.11,0,0,0-4.56-6.42c-5.56-5.84-12.11-7.55-17.49-8.88" fill="none"/></clipPath><linearGradient id="linear-gradient-3" x1="-6198.89" y1="2617.23" x2="-6198.36" y2="2617.23" gradientTransform="matrix(144.18, 0, 0, -144.18, 894858.72, 377745.26)" gradientUnits="userSpaceOnUse"><stop offset="0" stop-color="#f58e83"/><stop offset="1" stop-color="#e870ab"/></linearGradient><clipPath id="clip-path-5"><rect x="1157.33" y="360.99" width="40.21" height="12.07" transform="translate(-44.23 536.12) rotate(-25.19)" fill="none"/></clipPath><clipPath id="clip-path-6"><path d="M1163.42,375.55c5.63-4.79,34.78-11.63,34.78-11.63l-1.51-1.95c-5.64,1-10.42,1.63-14.17,2-11.09,1.08-19.17.75-22,5.8-.17.3-2.31,4.26-.42,7.6a6.28,6.28,0,0,0,2,2.14c-.55-1.21-.36-2.56,1.28-3.95" fill="none"/></clipPath><linearGradient id="linear-gradient-4" x1="-6170.83" y1="2636.85" x2="-6170.3" y2="2636.85" gradientTransform="matrix(75.84, 0, 0, -75.84, 469162.93, 200348.87)" xlink:href="#linear-gradient-3"/><clipPath id="clip-path-7"><path d="M1113.54,357.61c.24,1.63,3.32,2.52,6.88,2s6.24-2.28,6-3.91-3.32-2.53-6.88-2a12.28,12.28,0,0,0-3.45,1c-1.68.79-2.7,1.87-2.55,2.91" fill="none"/></clipPath><linearGradient id="linear-gradient-5" x1="-6044.39" y1="2721.81" x2="-6043.86" y2="2721.81" gradientTransform="matrix(24.66, 0, 0, -24.66, 150167.83, 67476.09)" gradientUnits="userSpaceOnUse"><stop offset="0" stop-color="#1ea4b7"/><stop offset="1" stop-color="#1f65ac"/><stop offset="1" stop-color="#1f65ac"/></linearGradient><clipPath id="clip-path-8"><rect x="1113.38" y="355.5" width="13.02" height="1.15" transform="translate(-40.26 168.98) rotate(-8.48)" fill="none"/></clipPath><linearGradient id="linear-gradient-6" x1="-6044.39" y1="2721.8" x2="-6043.86" y2="2721.8" gradientTransform="matrix(24.66, 0, 0, -24.66, 150167.74, 67475.58)" gradientUnits="userSpaceOnUse"><stop offset="0" stop-color="#957eba"/><stop offset="1" stop-color="#5e63ad"/><stop offset="1" stop-color="#5e63ad"/></linearGradient><clipPath id="clip-path-9"><path d="M1115.19,352.78c.16,1,2.13,1.62,4.4,1.28s4-1.46,3.84-2.51-2.13-1.61-4.4-1.27a7.81,7.81,0,0,0-2.2.64c-1.08.5-1.73,1.2-1.64,1.86" fill="none"/></clipPath><linearGradient id="linear-gradient-7" x1="-6289.1" y1="2680.27" x2="-6288.57" y2="2680.27" gradientTransform="matrix(0, 54.03, 54.03, 0, -143688.52, 340150.2)" gradientUnits="userSpaceOnUse"><stop offset="0" stop-color="#1caba7"/><stop offset="1" stop-color="#104a4b"/><stop offset="1" stop-color="#104a4b"/></linearGradient><clipPath id="clip-path-10"><path d="M1118,352.19c0,.32.69.49,1.44.38s1.31-.46,1.26-.78-1.18-3.81-1.93-3.7l-.07,0c-.68.32-.74,3.77-.7,4.08" fill="none"/></clipPath><linearGradient id="linear-gradient-8" x1="-5341.79" y1="3197.13" x2="-5341.26" y2="3197.13" gradientTransform="matrix(5.17, 0, 0, -5.17, 28734.25, 16879.44)" gradientUnits="userSpaceOnUse"><stop offset="0" stop-color="#434a87"/><stop offset="1" stop-color="#27274e"/><stop offset="1" stop-color="#27274e"/></linearGradient><clipPath id="clip-path-11"><path d="M1190.62,361.72c.27,1.8,3.66,2.78,7.58,2.2s6.87-2.51,6.6-4.31-3.66-2.78-7.57-2.2a13.61,13.61,0,0,0-3.8,1.11c-1.85.87-3,2.06-2.81,3.2" fill="none"/></clipPath><linearGradient id="linear-gradient-9" x1="-6064.02" y1="2710.71" x2="-6063.49" y2="2710.71" gradientTransform="matrix(27.15, 0, 0, -27.15, 165853.29, 73967.55)" xlink:href="#linear-gradient-6"/><clipPath id="clip-path-12"><rect x="1190.45" y="359.4" width="14.34" height="1.27" transform="translate(-39.99 180.51) rotate(-8.48)" fill="none"/></clipPath><linearGradient id="linear-gradient-10" x1="-6064.02" y1="2710.7" x2="-6063.49" y2="2710.7" gradientTransform="matrix(27.15, 0, 0, -27.15, 165853.38, 73966.56)" xlink:href="#linear-gradient-6"/><clipPath id="clip-path-13"><path d="M1190.43,360.46c.27,1.8,3.66,2.79,7.58,2.2s6.87-2.51,6.6-4.31-3.66-2.78-7.57-2.2a14.06,14.06,0,0,0-3.8,1.11c-1.85.87-3,2.06-2.81,3.2" fill="none"/></clipPath><linearGradient id="linear-gradient-11" x1="-6064.02" y1="2710.67" x2="-6063.49" y2="2710.67" gradientTransform="matrix(27.15, 0, 0, -27.15, 165852.94, 73965.34)" xlink:href="#linear-gradient-6"/><linearGradient id="linear-gradient-12" x1="-6064.02" y1="2710.71" x2="-6063.49" y2="2710.71" gradientTransform="matrix(27.15, 0, 0, -27.15, 165853.29, 73967.55)" xlink:href="#linear-gradient-5"/><clipPath id="clip-path-16"><path d="M1192.44,356.41c.17,1.15,2.34,1.78,4.85,1.4s4.39-1.61,4.22-2.75-2.34-1.78-4.84-1.41a8.92,8.92,0,0,0-2.43.71c-1.19.55-1.91,1.32-1.8,2.05" fill="none"/></clipPath><linearGradient id="linear-gradient-14" x1="-6289.1" y1="2679" x2="-6288.57" y2="2679" gradientTransform="matrix(0, 54.03, 54.03, 0, -143543.13, 340138.33)" xlink:href="#linear-gradient-7"/><clipPath id="clip-path-17"><path d="M1195.54,355.76c.06.35.76.53,1.58.41s1.45-.5,1.4-.86-1.31-4.19-2.13-4.07l-.08,0c-.75.35-.82,4.15-.77,4.49" fill="none"/></clipPath><linearGradient id="linear-gradient-15" x1="-5435.42" y1="3144.19" x2="-5434.89" y2="3144.19" gradientTransform="matrix(5.69, 0, 0, -5.69, 32137.99, 18253.19)" xlink:href="#linear-gradient-8"/><clipPath id="clip-path-18"><path d="M1159.07,393.46c.38,2.59,5.28,4,10.93,3.17s9.92-3.63,9.53-6.22-5.28-4-10.93-3.18a20,20,0,0,0-5.48,1.6c-2.67,1.26-4.3,3-4,4.63" fill="none"/></clipPath><linearGradient id="linear-gradient-16" x1="-6114.46" y1="2675.94" x2="-6113.93" y2="2675.94" gradientTransform="matrix(39.18, 0, 0, -39.18, 240728.68, 105238.13)" xlink:href="#linear-gradient-5"/><clipPath id="clip-path-19"><rect x="1159.14" y="389.95" width="20.69" height="1.83" transform="translate(-44.84 176.67) rotate(-8.48)" fill="none"/></clipPath><linearGradient id="linear-gradient-17" x1="-6114.46" y1="2675.92" x2="-6113.94" y2="2675.92" gradientTransform="matrix(39.18, 0, 0, -39.18, 240729.73, 105235.93)" xlink:href="#linear-gradient-6"/><clipPath id="clip-path-20"><path d="M1162,385.64c.25,1.65,3.38,2.56,7,2s6.34-2.32,6.09-4-3.37-2.57-7-2a12.54,12.54,0,0,0-3.5,1c-1.71.8-2.75,1.9-2.59,3" fill="none"/></clipPath><linearGradient id="linear-gradient-18" x1="-6226.73" y1="2728.76" x2="-6226.2" y2="2728.76" gradientTransform="matrix(0, 41.52, 41.52, 0, -112129.19, 258915.43)" xlink:href="#linear-gradient-7"/><clipPath id="clip-path-21"><path d="M1166.5,384.7c.07.51,1.09.77,2.28.6s2.08-.73,2-1.24-1.89-6.05-3.07-5.87a.2.2,0,0,0-.11,0c-1.09.51-1.19,6-1.11,6.48" fill="none"/></clipPath><linearGradient id="linear-gradient-19" x1="-5676.04" y1="2978.29" x2="-5675.51" y2="2978.29" gradientTransform="matrix(8.21, 0, 0, -8.21, 47790.19, 24846.39)" xlink:href="#linear-gradient-8"/><clipPath id="clip-path-22"><path d="M1074.39,383.17c.31,2.09,4.25,3.23,8.8,2.55,3.65-.54,8-2.65,7.68-5-.31-2.09-4.25-3.23-8.81-2.56a16.23,16.23,0,0,0-4.41,1.29c-2.15,1-3.46,2.4-3.26,3.73" fill="none"/></clipPath><linearGradient id="linear-gradient-20" x1="-6083.98" y1="2694.74" x2="-6083.45" y2="2694.74" gradientTransform="matrix(31.56, 0, 0, -31.56, 193076.46, 85424.55)" xlink:href="#linear-gradient-5"/><clipPath id="clip-path-23"><rect x="1074.19" y="380.47" width="16.66" height="1.48" transform="translate(-44.37 163.76) rotate(-8.48)" fill="none"/></clipPath><linearGradient id="linear-gradient-21" x1="-6083.98" y1="2694.73" x2="-6083.45" y2="2694.73" gradientTransform="matrix(31.56, 0, 0, -31.56, 193076.72, 85423.3)" xlink:href="#linear-gradient-6"/><clipPath id="clip-path-24"><rect x="1076.73" y="376.18" width="10.66" height="3.89" transform="translate(-43.92 163.65) rotate(-8.48)" fill="none"/></clipPath><linearGradient id="linear-gradient-22" x1="-6001.2" y1="2750.58" x2="-6000.68" y2="2750.58" gradientTransform="matrix(20.18, 0, 0, -20.18, 122175.69, 55882.47)" gradientUnits="userSpaceOnUse"><stop offset="0" stop-color="#002d3d"/><stop offset="1" stop-color="#002d3d"/><stop offset="1" stop-color="#002d3d"/></linearGradient><clipPath id="clip-path-25"><path d="M1076.5,377c.2,1.34,2.72,2.07,5.63,1.63s5.11-1.87,4.91-3.2-2.72-2.07-5.63-1.64a10.06,10.06,0,0,0-2.82.83c-1.37.64-2.21,1.53-2.09,2.38" fill="none"/></clipPath><linearGradient id="linear-gradient-23" x1="-6289.1" y1="2680.94" x2="-6288.57" y2="2680.94" gradientTransform="matrix(0, 54.03, 54.03, 0, -143767.81, 340152.64)" xlink:href="#linear-gradient-7"/><clipPath id="clip-path-26"><path d="M1080.11,376.23c.06.41.88.63,1.84.49s1.67-.59,1.61-1-1.51-4.87-2.47-4.73l-.09,0c-.87.41-1,4.82-.89,5.21" fill="none"/></clipPath><linearGradient id="linear-gradient-24" x1="-5530.63" y1="3067.99" x2="-5530.1" y2="3067.99" gradientTransform="matrix(6.62, 0, 0, -6.62, 37671.73, 20672.29)" xlink:href="#linear-gradient-8"/><clipPath id="clip-path-27"><rect x="1167.21" y="338.79" width="59.17" height="24.94" transform="translate(-35.68 542.87) rotate(-25.19)" fill="none"/></clipPath><clipPath id="clip-path-28"><path d="M1227.23,346.72c.75,5-12.27,11.1-29.08,13.61s-31,.47-31.78-4.54,12.27-11.1,29.08-13.6,31-.48,31.78,4.53" fill="none"/></clipPath><linearGradient id="linear-gradient-25" x1="-6191.91" y1="2622.23" x2="-6191.38" y2="2622.23" gradientTransform="matrix(116.53, 0, 0, -116.53, 722707.71, 305919.31)" gradientUnits="userSpaceOnUse"><stop offset="0" stop-color="#d7ecf1"/><stop offset="1" stop-color="#1ea4b7"/><stop offset="1" stop-color="#1ea4b7"/></linearGradient><clipPath id="clip-path-29"><rect x="1138.86" y="365.62" width="59.17" height="24.94" transform="translate(-49.79 533.35) rotate(-25.19)" fill="none"/></clipPath><clipPath id="clip-path-30"><path d="M1198.87,373.55c.75,5-12.27,11.1-29.08,13.61s-31,.47-31.78-4.54,12.27-11.1,29.08-13.61,31-.47,31.78,4.54" fill="none"/></clipPath><linearGradient id="linear-gradient-26" x1="-6191.67" y1="2622.4" x2="-6191.14" y2="2622.4" gradientTransform="matrix(116.53, 0, 0, -116.53, 722650.87, 305965.82)" xlink:href="#linear-gradient-25"/><clipPath id="clip-path-31"><rect x="1089.63" y="335.72" width="59.17" height="24.94" transform="translate(-41.75 509.55) rotate(-25.19)" fill="none"/></clipPath><clipPath id="clip-path-32"><path d="M1149.64,343.65c.75,5-12.27,11.1-29.08,13.61s-31,.47-31.78-4.54,12.27-11.1,29.08-13.6,31-.48,31.78,4.53" fill="none"/></clipPath><linearGradient id="linear-gradient-27" x1="-6191.33" y1="2622.12" x2="-6190.8" y2="2622.12" gradientTransform="matrix(116.53, 0, 0, -116.53, 722561.99, 305903.17)" xlink:href="#linear-gradient-25"/><clipPath id="clip-path-33"><rect x="1051.9" y="358.49" width="59.17" height="24.94" transform="translate(-55.03 495.65) rotate(-25.19)" fill="none"/></clipPath><clipPath id="clip-path-34"><path d="M1111.91,366.42c.75,5-12.27,11.1-29.07,13.61s-31,.47-31.79-4.54,12.28-11.1,29.08-13.6,31-.48,31.78,4.53" fill="none"/></clipPath><linearGradient id="linear-gradient-28" x1="-6191.02" y1="2622.25" x2="-6190.49" y2="2622.25" gradientTransform="matrix(116.53, 0, 0, -116.53, 722488.03, 305940.83)" xlink:href="#linear-gradient-25"/></defs><title>Asset 12</title><g style="isolation:isolate"><g id="Layer_2" data-name="Layer 2"><g id="Layer_1-2" data-name="Layer 1"><rect width="1280" height="720" fill="none"/><g clip-path="url(#clip-path)"><rect x="1121.12" y="369.32" width="37.45" height="30.12" transform="translate(-44.21 172.26) rotate(-8.48)" fill="url(#linear-gradient)"/></g><g clip-path="url(#clip-path-2)"><rect x="1082.37" y="335.05" width="120.03" height="79.62" transform="matrix(0.99, -0.15, 0.15, 0.99, -42.78, 172.53)" fill="url(#linear-gradient-2)"/></g><g opacity="0.3" style="mix-blend-mode:multiply"><g clip-path="url(#clip-path-3)"><g clip-path="url(#clip-path-4)"><rect x="1084.8" y="353.65" width="78.13" height="63.87" transform="matrix(0.99, -0.15, 0.15, 0.99, -44.57, 169.91)" fill="url(#linear-gradient-3)"/></g></g></g><g opacity="0.3" style="mix-blend-mode:multiply"><g clip-path="url(#clip-path-5)"><g clip-path="url(#clip-path-6)"><rect x="1155.47" y="353.57" width="42.83" height="25.16" transform="translate(-41.12 177.52) rotate(-8.48)" fill="url(#linear-gradient-4)"/></g></g></g><g clip-path="url(#clip-path-7)"><rect x="1112.6" y="351.43" width="14.96" height="10.87" transform="translate(-40.37 169.04) rotate(-8.48)" fill="url(#linear-gradient-5)"/></g><g clip-path="url(#clip-path-8)"><rect x="1113.07" y="351.91" width="13.66" height="8.33" transform="translate(-40.26 169.01) rotate(-8.48)" fill="url(#linear-gradient-6)"/></g><path d="M1126.25,354.54c.24,1.64-2.44,3.39-6,3.92s-6.64-.36-6.88-2,2.44-3.38,6-3.91,6.64.36,6.88,2" fill="#002534"/><path d="M1123.88,354.55c.15,1.05-1.56,2.17-3.84,2.51s-4.24-.23-4.4-1.28,1.56-2.16,3.84-2.5,4.24.23,4.4,1.27" fill="#002d3d"/><rect x="1115.37" y="352.15" width="8.33" height="3.04" transform="translate(-39.91 168.94) rotate(-8.48)" fill="#002d3d"/><g clip-path="url(#clip-path-9)"><rect x="1114.59" y="348.81" width="9.57" height="6.98" transform="translate(-38.94 164.07) rotate(-8.24)" fill="url(#linear-gradient-7)"/></g><g clip-path="url(#clip-path-10)"><rect x="1116.71" y="347.88" width="4.43" height="5.3" transform="translate(-39.45 168.81) rotate(-8.48)" fill="url(#linear-gradient-8)"/></g><g clip-path="url(#clip-path-11)"><rect x="1189.59" y="354.92" width="16.47" height="11.97" transform="translate(-40.12 180.55) rotate(-8.48)" fill="url(#linear-gradient-9)"/></g><g clip-path="url(#clip-path-12)"><rect x="1190.1" y="355.45" width="15.04" height="9.17" transform="translate(-39.99 180.51) rotate(-8.48)" fill="url(#linear-gradient-10)"/></g><g clip-path="url(#clip-path-13)"><rect x="1189.4" y="353.66" width="16.47" height="11.97" transform="translate(-39.94 180.51) rotate(-8.48)" fill="url(#linear-gradient-11)"/></g><path d="M1200.23,360.46a9.28,9.28,0,0,1-2.44.71,8,8,0,0,1-3.32-.14c-.94-.27-1.5-.73-1.58-1.31s.31-1.18,1.13-1.72a8.92,8.92,0,0,1,6.45-1c.93.27,1.5.74,1.58,1.32s-.31,1.18-1.13,1.71a5.65,5.65,0,0,1-.69.39m-5.48-2.75a5,5,0,0,0-.68.38c-.78.5-1.17,1.08-1.09,1.62s.62,1,1.52,1.23a8,8,0,0,0,3.27.13,7.88,7.88,0,0,0,3.1-1.08c.78-.51,1.16-1.08,1.08-1.62s-.61-1-1.51-1.23a7.8,7.8,0,0,0-3.27-.13,8.67,8.67,0,0,0-2.42.7" fill="#020202"/><path d="M1202.06,358.4h0l-9.12,1.36-.5-3.4h0l9.12-1.36Zm-9.08,1.26,9-1.34-.48-3.21-9,1.34Z" fill="#020202"/><path d="M1199.72,357.15a8.58,8.58,0,0,1-2.43.71,8,8,0,0,1-3.31-.13c-.94-.27-1.5-.74-1.59-1.32-.17-1.17,1.74-2.43,4.27-2.81s4.72.27,4.9,1.45c.11.75-.63,1.53-1.84,2.1m-5.47-2.75c-1.16.55-1.87,1.29-1.76,2,.08.54.62,1,1.51,1.23a7.84,7.84,0,0,0,3.28.13c2.47-.36,4.35-1.58,4.18-2.7s-2.31-1.73-4.79-1.36a9,9,0,0,0-2.42.7" fill="#020202"/><path d="M1198,356a2.93,2.93,0,0,1-.85.25,2.85,2.85,0,0,1-1.1,0c-.32-.08-.51-.23-.54-.42a18.47,18.47,0,0,1,.1-2.36c.15-1.41.42-2.16.79-2.21s.85.58,1.41,1.88a16.5,16.5,0,0,1,.78,2.23c0,.19-.11.39-.4.56l-.19.1m-1.65-4.66c-.28.14-.51.88-.64,2.11a16.33,16.33,0,0,0-.1,2.33c0,.15.19.27.47.35a2.85,2.85,0,0,0,1.06,0,2.51,2.51,0,0,0,1-.33c.24-.15.37-.32.35-.47a17.67,17.67,0,0,0-.77-2.2c-.53-1.22-1-1.87-1.3-1.83l-.07,0" fill="#020202"/><g clip-path="url(#clip-path-11)"><rect x="1189.59" y="354.92" width="16.47" height="11.97" transform="translate(-40.12 180.55) rotate(-8.48)" fill="url(#linear-gradient-12)"/></g><g clip-path="url(#clip-path-12)"><rect x="1190.1" y="355.45" width="15.04" height="9.17" transform="translate(-39.99 180.51) rotate(-8.48)" fill="url(#linear-gradient-10)"/></g><path d="M1204.61,358.35c.27,1.8-2.69,3.73-6.6,4.31s-7.31-.4-7.58-2.19,2.69-3.73,6.61-4.32,7.31.4,7.57,2.2" fill="#002534"/><path d="M1202,358.36c.17,1.15-1.72,2.39-4.22,2.76s-4.67-.26-4.85-1.41,1.72-2.38,4.23-2.75,4.67.25,4.84,1.4" fill="#002d3d"/><rect x="1192.64" y="355.71" width="9.17" height="3.34" transform="translate(-39.61 180.41) rotate(-8.48)" fill="#002d3d"/><g clip-path="url(#clip-path-16)"><rect x="1191.78" y="352.04" width="10.54" height="7.68" transform="matrix(0.99, -0.14, 0.14, 0.99, -38.65, 175.25)" fill="url(#linear-gradient-14)"/></g><g clip-path="url(#clip-path-17)"><rect x="1194.11" y="351.01" width="4.88" height="5.84" transform="translate(-39.11 180.29) rotate(-8.48)" fill="url(#linear-gradient-15)"/></g><g clip-path="url(#clip-path-18)"><rect x="1157.57" y="383.64" width="23.77" height="17.27" transform="translate(-45.06 176.71) rotate(-8.48)" fill="url(#linear-gradient-16)"/></g><g clip-path="url(#clip-path-19)"><rect x="1158.64" y="384.26" width="21.7" height="13.23" transform="translate(-44.85 176.7) rotate(-8.48)" fill="url(#linear-gradient-17)"/></g><path d="M1179.58,388.44c.39,2.59-3.88,5.38-9.53,6.22s-10.54-.58-10.93-3.17,3.88-5.38,9.53-6.22,10.55.58,10.93,3.17" fill="#002534"/><path d="M1175.81,388.46c.25,1.66-2.48,3.44-6.09,4s-6.74-.36-7-2,2.48-3.44,6.09-4,6.75.37,7,2" fill="#002d3d"/><rect x="1162.3" y="384.63" width="13.23" height="4.82" transform="translate(-44.29 176.55) rotate(-8.48)" fill="#002d3d"/><g clip-path="url(#clip-path-20)"><rect x="1160.99" y="379.08" width="15.34" height="11.6" transform="translate(69.32 937.47) rotate(-44.92)" fill="url(#linear-gradient-18)"/></g><g clip-path="url(#clip-path-21)"><rect x="1164.43" y="377.85" width="7.04" height="8.43" transform="translate(-43.57 176.38) rotate(-8.48)" fill="url(#linear-gradient-19)"/></g><g clip-path="url(#clip-path-22)"><rect x="1073.17" y="375.27" width="19.07" height="13.66" transform="translate(-44.5 163.81) rotate(-8.48)" fill="url(#linear-gradient-20)"/></g><g clip-path="url(#clip-path-23)"><rect x="1073.78" y="375.88" width="17.48" height="10.66" transform="translate(-44.37 163.77) rotate(-8.48)" fill="url(#linear-gradient-21)"/></g><path d="M1090.65,379.25c.31,2.09-3.12,4.33-7.68,5s-8.49-.47-8.8-2.56,3.13-4.33,7.68-5,8.49.47,8.8,2.56" fill="#002534"/><path d="M1087.62,379.26c.19,1.34-2,2.77-4.91,3.21s-5.43-.3-5.63-1.64,2-2.77,4.91-3.2,5.43.29,5.63,1.63" fill="#002d3d"/><g clip-path="url(#clip-path-24)"><rect x="1075.66" y="373.25" width="12.8" height="9.76" transform="translate(-43.92 163.67) rotate(-8.48)" fill="url(#linear-gradient-22)"/></g><g clip-path="url(#clip-path-25)"><rect x="1075.73" y="371.91" width="12.25" height="8.93" transform="translate(-42.78 158.96) rotate(-8.24)" fill="url(#linear-gradient-23)"/></g><g clip-path="url(#clip-path-26)"><rect x="1078.45" y="370.72" width="5.67" height="6.79" transform="translate(-43.34 163.5) rotate(-8.48)" fill="url(#linear-gradient-24)"/></g><g opacity="0.64"><g clip-path="url(#clip-path-27)"><g clip-path="url(#clip-path-28)"><rect x="1163.24" y="329.24" width="67.11" height="44.03" transform="translate(-38.71 180.29) rotate(-8.48)" fill="url(#linear-gradient-25)"/></g></g></g><g opacity="0.64"><g clip-path="url(#clip-path-29)"><g clip-path="url(#clip-path-30)"><rect x="1134.88" y="356.07" width="67.11" height="44.03" transform="translate(-42.97 176.4) rotate(-8.48)" fill="url(#linear-gradient-26)"/></g></g></g><g opacity="0.64"><g clip-path="url(#clip-path-31)"><g clip-path="url(#clip-path-32)"><rect x="1085.65" y="326.17" width="67.11" height="44.03" transform="translate(-39.1 168.82) rotate(-8.48)" fill="url(#linear-gradient-27)"/></g></g></g><g opacity="0.64"><g clip-path="url(#clip-path-33)"><g clip-path="url(#clip-path-34)"><rect x="1047.93" y="348.94" width="67.11" height="44.03" transform="translate(-42.87 163.51) rotate(-8.48)" fill="url(#linear-gradient-28)"/></g></g></g></g></g></g></svg>