<svg xmlns="http://www.w3.org/2000/svg" xmlns:xlink="http://www.w3.org/1999/xlink" viewBox="0 0 1280 720"><defs><clipPath id="clip-path"><path d="M114.17,514.06,240.7,659.53,339.91,540.2q-36.48-35.4-73-70.79L114.17,514.06" fill="none"/></clipPath><linearGradient id="linear-gradient" x1="-6212.73" y1="2601.31" x2="-6211.93" y2="2601.31" gradientTransform="matrix(274.36, 0, 0, -274.36, 1704628.45, 714255.5)" gradientUnits="userSpaceOnUse"><stop offset="0" stop-color="#1caba7"/><stop offset="1" stop-color="#104a4b"/></linearGradient><clipPath id="clip-path-2"><path d="M242.24,499.13l43.2-20.45-44.94-44-49,6.17,50.73,58.28" fill="none"/></clipPath><linearGradient id="linear-gradient-2" x1="-6165.85" y1="2592.85" x2="-6165.04" y2="2592.85" gradientTransform="matrix(80.15, 0, 0, -80.15, 494459.22, 208293.56)" gradientUnits="userSpaceOnUse"><stop offset="0" stop-color="#1ea4b7"/><stop offset="1" stop-color="#002d3d"/></linearGradient><clipPath id="clip-path-3"><rect x="157.22" y="516.81" width="116.2" height="43.38" transform="translate(-67.47 32.16) rotate(-7.39)" fill="none"/></clipPath><clipPath id="clip-path-4"><path d="M179.17,488.7c-3.53,3.29-9,8.72-12.81,12.66l-.63,1a1.78,1.78,0,0,0,.26,2,16.36,16.36,0,0,0,2.2,2.45c3.16,3,12.9,11,17.09,12.92,1.75.79,2.4.6,4.87.45l0,0c4-4,9.39-9.34,12.74-12.74s4.53-4.69,5.26-5.59c-5.19-4-18.88-14.9-22.73-18.19-1.18.54-2.53,1.45-6.3,5" fill="none"/></clipPath><linearGradient id="linear-gradient-3" x1="-6314.02" y1="2651.88" x2="-6313.22" y2="2651.88" gradientTransform="translate(-138185.88 -328935.69) rotate(-90) scale(52.18)" gradientUnits="userSpaceOnUse"><stop offset="0" stop-color="#3c4b56"/><stop offset="1" stop-color="#091a22"/></linearGradient><clipPath id="clip-path-5"><path d="M172.35,530.27a33.43,33.43,0,0,0-1.74,3.15h0a20,20,0,0,1-1.46,2.13h0c.87.51,1.75,1,2.67,1.42a6.86,6.86,0,0,0,5.3-.35A8.71,8.71,0,0,0,181,533.5a33.13,33.13,0,0,1,2.47-3.63,12.54,12.54,0,0,1,1.68-1.73c.21-.18.43-.36.66-.53h-.34a9.49,9.49,0,0,1-4-.77,5.11,5.11,0,0,0-1.94-.33,8,8,0,0,0-1.1.07,8.37,8.37,0,0,0-6.05,3.7" fill="none"/></clipPath><linearGradient id="linear-gradient-4" x1="-25549.86" y1="15724.45" x2="-25549.06" y2="15724.45" gradientTransform="translate(-3358.98 -5242.22) rotate(-90) scale(0.22)" gradientUnits="userSpaceOnUse"><stop offset="0" stop-color="#104a4b"/><stop offset="1" stop-color="#1caba7"/></linearGradient><clipPath id="clip-path-6"><path d="M172.93,530.61a33.75,33.75,0,0,0-1.71,3.09l-.21.45h0l-.81,1.2c.71.4,1.35.73,2,1a3.82,3.82,0,0,0,.94.28,7.17,7.17,0,0,0,3.78-.64,8,8,0,0,0,3.55-2.84,36,36,0,0,1,2.53-3.72,15.89,15.89,0,0,1,1.14-1.25l-.54-.07a9.58,9.58,0,0,1-2.35-.69,3,3,0,0,0-.79-.21,4.83,4.83,0,0,0-.88-.07,8.76,8.76,0,0,0-1,.07,7.71,7.71,0,0,0-5.54,3.38" fill="none"/></clipPath><linearGradient id="linear-gradient-5" x1="-6507.37" y1="2783.61" x2="-6506.56" y2="2783.61" gradientTransform="translate(-43502.58 -101573.58) rotate(-90) scale(15.69)" gradientUnits="userSpaceOnUse"><stop offset="0" stop-color="#fff8ef"/><stop offset="1" stop-color="#179490"/></linearGradient><clipPath id="clip-path-7"><path d="M155.19,506a25.73,25.73,0,0,0-3.77,5.12,13.34,13.34,0,0,0-1.71,4.33v0h0c0,.27-.18.8-.25,1.45a4.3,4.3,0,0,0,.4,2.7c.18.28.77,1,1,1.24h0l.38.35.32.31a20.06,20.06,0,0,0,1.46-2.12h0c.28-.58.6-1.19.92-1.75.79-1.39,1-1.63,1.58-2.81a19.59,19.59,0,0,0,1.62-5.65,3.53,3.53,0,0,0-.09-1.3,3.26,3.26,0,0,0-.51-.85,2.52,2.52,0,0,1-.51-1.72c-.28.21-.57.45-.83.69" fill="none"/></clipPath><linearGradient id="linear-gradient-6" x1="-25510.26" y1="15680.53" x2="-25509.45" y2="15680.53" gradientTransform="translate(-3380.58 -5236.48) rotate(-90) scale(0.23)" xlink:href="#linear-gradient-4"/><clipPath id="clip-path-8"><path d="M152,511.5a12.18,12.18,0,0,0-1.62,4.1c-.09,0-.11,0,0,0-.05.29-.18.76-.25,1.41a3.62,3.62,0,0,0,.3,2.27,12.22,12.22,0,0,0,1.05,1.27c1.22-1.71,1-1.82,2.59-4.42a13.9,13.9,0,0,0,.84-1.54,19.4,19.4,0,0,0,1.56-5.43,2.75,2.75,0,0,0-.06-1.05,1.05,1.05,0,0,0-.19-.33,5.09,5.09,0,0,1-.67-1.15A24.55,24.55,0,0,0,152,511.5" fill="none"/></clipPath><linearGradient id="linear-gradient-7" x1="-6918.58" y1="3062.22" x2="-6917.78" y2="3062.22" gradientTransform="translate(-19193.45 -43194.51) rotate(-90) scale(6.32)" xlink:href="#linear-gradient-5"/><clipPath id="clip-path-9"><path d="M224.05,500.41l-3.85,8.84,2.15-.9,3.8-8.72-2.1.78" fill="none"/></clipPath><linearGradient id="linear-gradient-8" x1="-6323.14" y1="2272.23" x2="-6322.34" y2="2272.23" gradientTransform="translate(35608.85 98967.98) rotate(90) scale(15.57)" gradientUnits="userSpaceOnUse"><stop offset="0" stop-color="#99aaba"/><stop offset="1" stop-color="#6f7e8d"/></linearGradient><clipPath id="clip-path-10"><path d="M215.11,503.59,211,513.05l2.12-.87,4-9.29c-.72.25-1.41.49-2.06.7" fill="none"/></clipPath><linearGradient id="linear-gradient-9" x1="-6311.51" y1="2312.94" x2="-6310.7" y2="2312.94" gradientTransform="translate(41445 113005.9) rotate(90) scale(17.83)" xlink:href="#linear-gradient-8"/><clipPath id="clip-path-11"><path d="M221.24,501.44l-3.92,9,1.07-.44,3.9-9-1,.4" fill="none"/></clipPath><linearGradient id="linear-gradient-10" x1="-6324.03" y1="2269.08" x2="-6323.23" y2="2269.08" gradientTransform="translate(35221.74 98050.83) rotate(90) scale(15.43)" xlink:href="#linear-gradient-8"/><clipPath id="clip-path-12"><path d="M232.94,497.06l-3.63,8.32c.37-.15.73-.3,1.08-.46l3.6-8.27-1.05.41" fill="none"/></clipPath><linearGradient id="linear-gradient-11" x1="-6331.36" y1="2243.48" x2="-6330.55" y2="2243.48" gradientTransform="translate(32302.13 91000.03) rotate(90) scale(14.3)" xlink:href="#linear-gradient-8"/><clipPath id="clip-path-13"><rect x="191.86" y="516.78" width="11.48" height="11.96" transform="translate(-65.59 29.75) rotate(-7.39)" fill="none"/></clipPath></defs><title>Asset 6</title><g style="isolation:isolate"><g id="Layer_2" data-name="Layer 2"><g id="Layer_1-2" data-name="Layer 1"><rect width="1280" height="720" fill="none"/><g clip-path="url(#clip-path)"><rect x="121.99" y="474.68" width="220.51" height="185.17" transform="translate(-71.03 34.58) rotate(-7.39)" fill="url(#linear-gradient)"/></g><path d="M209,600.71l27.7,27.84c2.54,2.55,6.41-1.5,3.91-4L213,596.87c-2.52-2.53-6.59,1.31-4.07,3.84" fill="#d7ecf2"/><path d="M234.91,603.78l13.61,13.68c2.5,2.5,6.23-1.4,3.78-3.87L238.76,600c-2.48-2.49-6.32,1.31-3.85,3.79" fill="#d7ecf2"/><path d="M231.31,592.65l-13.53-13.6c-2.47-2.48-6.44,1.19-4,3.67l13.61,13.68c2.49,2.5,6.35-1.28,3.89-3.75" fill="#d7ecf2"/><path d="M243.83,594.69l13.43,13.48c2.46,2.47,6.09-1.33,3.67-3.76L247.57,591c-2.44-2.46-6.18,1.24-3.74,3.69" fill="#d7ecf2"/><path d="M240.23,583.76l-13.35-13.41c-2.44-2.45-6.3,1.12-3.86,3.57q6.71,6.75,13.42,13.48c2.46,2.47,6.22-1.21,3.79-3.64" fill="#d7ecf2"/><path d="M240.3,566.65c-2.41-2.42-6.14,1.09-3.74,3.5l25.65,25.76,3.63,3.64c2.42,2.43,6-1.27,3.57-3.67L243.9,570.27l-3.6-3.62" fill="#d7ecf2"/><path d="M232.62,558.71l-25.48-25.58-3.6-3.61c-2.4-2.42-6.35.87-3.94,3.28l25.62,25.73,3.62,3.63c2.42,2.43,6.17-1,3.78-3.45" fill="#d7ecf2"/><path d="M198.82,525.4a2.27,2.27,0,0,0-1.86-2.71,2.53,2.53,0,0,0-3.12,1.44,2.27,2.27,0,0,0,1.86,2.72,2.52,2.52,0,0,0,3.12-1.45" fill="#d7ecf2"/><path d="M243.84,562.63l25.35,25.46,3.59,3.59c2.39,2.41,5.85-1.2,3.49-3.58l-25.22-25.31-3.56-3.57c-2.38-2.39-6,1-3.65,3.41" fill="#d7ecf2"/><path d="M207.3,525.73l25.32,25.42,3.58,3.59c2.39,2.41,6.06-1,3.7-3.37q-12.6-12.64-25.19-25.28l-3.55-3.57c-2.38-2.39-6.23.82-3.86,3.21" fill="#d7ecf2"/><path d="M204.32,515.37l-8.22-7.78c-2.46-2.34-6.4.78-3.94,3.12l8.26,7.82c2.48,2.34,6.34-.84,3.9-3.16" fill="#d7ecf2"/><path d="M275.7,570.67l8.09,7.67a2.41,2.41,0,1,0,3.36-3.44l-8-7.62c-2.41-2.29-5.82,1.11-3.4,3.39" fill="#d7ecf2"/><path d="M254.54,549.45l12.85,12.89a2.41,2.41,0,1,0,3.45-3.35l-12.77-12.82c-2.34-2.34-5.86.94-3.53,3.28" fill="#d7ecf2"/><path d="M250.07,542.85a2.25,2.25,0,0,0,2.83-1.46,2.3,2.3,0,0,0-1.84-2.64,2.25,2.25,0,0,0-2.84,1.45,2.31,2.31,0,0,0,1.85,2.65" fill="#d7ecf2"/><path d="M253,525.75c-2.31-2.31-5.81.81-3.51,3.12L274,553.51l3.47,3.48a2.35,2.35,0,1,0,3.36-3.28q-12.21-12.26-24.42-24.5L253,525.75" fill="#d7ecf2"/><path d="M287.31,546.74l-24.15-24.23-3.41-3.42c-2.29-2.29-5.71.77-3.44,3l24.28,24.36,3.43,3.44a2.3,2.3,0,1,0,3.29-3.2" fill="#d7ecf2"/><path d="M286.41,538.41l12.4,12.44a2.25,2.25,0,1,0,3.17-3.17L289.64,535.3a2.25,2.25,0,1,0-3.23,3.11" fill="#d7ecf2"/><path d="M289.08,525.49,313.56,550a2.19,2.19,0,1,0,3.05-3.12L292.26,522.5a2.19,2.19,0,1,0-3.18,3" fill="#d7ecf2"/><g clip-path="url(#clip-path-2)"><rect x="186.97" y="421.82" width="104.89" height="90.49" transform="translate(-187.26 161.43) rotate(-27.25)" fill="url(#linear-gradient-2)"/></g><g opacity="0.2"><g clip-path="url(#clip-path-3)"><path d="M271.44,531l-22.3-15.8c-2.88-2-5-2.92-8.21-1.62-4.94,2-9.8,4.26-14.69,6.39l-46.8,20.33-12.12,5.27c-.59.26-1,1.39-2.19,1.78-3.44,1.12-7.63-3.48-7.69-3.42s5.35,6.88,15.62,12.37c4.48,2.39,12.29,6.45,22.64,6.43,2.12,0,3.49-.18,13.54-2.18,11.7-2.32,17.43-4.2,22.82-4.69,14.92-1.37,28.26-6.46,39.4-16.76,2.27-2.11,2.85-6.07,0-8.1m-28-7.36-2.51-1.78,5.06.68-2.55,1.1" fill="#002d3d"/></g></g><path d="M166.87,554.8l-.66-.44c-2.26-1.48-1.24-.78.66.44" fill="#010101"/><path d="M246,522.56l-2.55,1.1-2.51-1.78,5.06.68" fill="#010101"/><path d="M150.12,513.06c.09-.16.17-.34.26-.51-4,2.39-7.34,7-8,11.12a6.81,6.81,0,0,0,.32,3.81,5.8,5.8,0,0,0,2,3.23l.63.51c-.16-.26-.31-.51-.44-.77a5.26,5.26,0,0,1-.18-1.94,3.15,3.15,0,0,1,.42-1.51v-.06s0,0,0,0h0v0a12.46,12.46,0,0,1,.27-3.82c.07-.39.15-.79.25-1.19s.12-.5.19-.74.09-.33.13-.48a19.81,19.81,0,0,1,1.78-4.32,15.09,15.09,0,0,1,.87-1.39l.09-.13c.14-.19.29-.37.44-.55l.21-.22c.32-.42.62-.78.79-1h0" fill="#173a46"/><path d="M198.4,517.86c3.13-1.08,7.64-2.82,12.6-4.81l2.12-.87c1.39-.56,2.79-1.14,4.2-1.73l1.07-.44,1.81-.76,2.15-.9c2.42-1,4.77-2,7-3,.37-.15.73-.3,1.08-.46,3.51-1.52,6.52-2.85,8.58-3.8v-.06a55.87,55.87,0,0,0-.7-6.08c-1.26.5-2.71,1.08-4.27,1.67l-1.05.41c-2.15.83-4.48,1.71-6.79,2.57l-2.1.78-1.76.63-1,.4-4.07,1.45c-.72.25-1.41.49-2.06.7l-1.38.46a6.62,6.62,0,0,0-1.84,1c-1.1.81-.95,1-7.62,7.35-2,1.87-4,3.79-5.87,5.49" fill="#6f7e8d"/><g clip-path="url(#clip-path-4)"><rect x="163.06" y="476.49" width="47.39" height="51.28" transform="translate(-338.57 607.23) rotate(-80.91)" fill="url(#linear-gradient-3)"/></g><path d="M190.88,541.29a4.41,4.41,0,0,1,1.18.12l-1.49-1.19c-.25,0-.52.09-.79.15-4.88,1.19-10.16,7-11.05,12.41-.53,3.21.68,5.59,3.16,6.1a6.26,6.26,0,0,0,2.76-.12,11.92,11.92,0,0,0,4.16-2,18.62,18.62,0,0,0,5.85-7.09,11.2,11.2,0,0,0,1.16-5.23l-1.51-1.21a4.18,4.18,0,0,1,.36,1,9.08,9.08,0,0,1-.9,5.42,16.33,16.33,0,0,1-5.16,6.24,10.61,10.61,0,0,1-3.65,1.78c-2.81.68-4.67-.5-5.18-2.71l0-.15a6.71,6.71,0,0,1,0-2.41,12.13,12.13,0,0,1,1.48-4h0c.19-.33.39-.64.6-1s.45-.66.7-1l.08-.1c.25-.31.51-.62.78-.92h0c.06-.07.13-.14.19-.22.28-.29.57-.58.87-.85l.44-.38h0a11.59,11.59,0,0,1,4.58-2.49,5.94,5.94,0,0,1,1.4-.19Z" fill="#526877"/><path d="M251.73,510.2a11.06,11.06,0,0,0-1-3.22,4.51,4.51,0,0,1,.36,2.1c0,.1,0,.2-.06.31a2.06,2.06,0,0,1-.15.46,3.15,3.15,0,0,1-.58.87,6.53,6.53,0,0,1-.53.52,7.11,7.11,0,0,1,.88,3.43,1.35,1.35,0,0,1,.87,1.66,19.43,19.43,0,0,0,.37-4.71c0-.05,0-.11,0-.18,0-.46-.13-1.07-.16-1.24" fill="#dfe3e7"/><path d="M243.35,529.34c.08.25.15.51.23.77v0c.09.33.69.47,1.09.19a.49.49,0,0,0,.24-.48l-.15-1.14a4,4,0,0,1-1.29.61l-.13,0" fill="#1baba7"/><path d="M184,545.55l-.36-.34c-.06.08-.13.15-.19.22h0c-.27.3-.53.61-.78.92l-.08.1.21.27h0a.56.56,0,0,0,.51.21,1,1,0,0,0,.62-.33c.37-.38.36-.79.12-1l-.05,0" fill="#1baba7"/><path d="M186.68,545.51a1.68,1.68,0,0,1,1.38.17l-.5-.4h0a.57.57,0,0,1-.13-.08l-.07-.05a6.09,6.09,0,0,1-1-.58c-.06-.06-.16-.16-.17-.23s0,0,0,0l0,0-.07-.09c0,.26-.06.52-.08.78s-.55.38-.89.38a1.27,1.27,0,0,1-.54-.14.46.46,0,0,1-.25-.49c0-.11.05-.22.07-.34-.3.27-.59.56-.87.85l.36.34.05,0c.24.23.25.64-.12,1a1,1,0,0,1-.62.33.56.56,0,0,1-.51-.21h0l-.21-.27c-.25.32-.48.65-.7,1l.15,0h0a.47.47,0,0,1,.41.07,1.09,1.09,0,0,1,0,1.54l-.09,0h0l-1.19.16a1.43,1.43,0,0,0,.3.34h0l.19-.19c.05,0,.15,0,.27,0a2.19,2.19,0,0,1,.63.72s.28.46.24.47h0l.74.59a1.79,1.79,0,0,1-.42-1.67,5.45,5.45,0,0,1,3.56-4" fill="#173a46"/><path d="M162.72,515.1a1.9,1.9,0,0,0-2.66.29l-1.82,2.25a2,2,0,0,0-.35.69,1.83,1.83,0,0,0,.62.92l8.16,6.54a1.91,1.91,0,0,0,2.67-.3l1.81-2.25a1.81,1.81,0,0,0,.35-.69,1.76,1.76,0,0,0-.62-.91Z" fill="#a0adb3"/><path d="M160.51,501.33a16.57,16.57,0,0,0-6.44,5.25,6.48,6.48,0,0,1,4-2.8,15.32,15.32,0,0,1,2.86-1.91c-.13-.19-.27-.37-.41-.54" fill="#9fb3bf"/><path d="M190.59,545.06a.23.23,0,0,1-.1.2l-1.93,1.2s0,0,0,0a2.64,2.64,0,0,1-.06,1.24l.61.21a.59.59,0,0,1,.36.64.65.65,0,0,1-.69.67l-.89-.15h0a6.18,6.18,0,0,1-1.6,1.7c.06.38.11.76.16,1.14a.51.51,0,0,1-.24.49c-.4.27-1,.13-1.1-.2v0l-.23-.77a2.11,2.11,0,0,1-.49,0h-.06a5.09,5.09,0,0,1-.54.32l-1,1.94s-.12.09-.26.08c-.41,0-1.05-.46-1-.63l.25-.64a3.88,3.88,0,0,1-1.13,0,2.55,2.55,0,0,0,.63,1,2.59,2.59,0,0,0,1.53.68,5.62,5.62,0,0,0,3.24-.87c3.19-1.86,5.36-5.69,5.12-8.27a2.19,2.19,0,0,0,0-.27l-.57.05a.2.2,0,0,1,0,.11" fill="#173a46"/><path d="M247.93,519.35a11.61,11.61,0,0,0-4.6,2.52l-.42.37c-.3.27-.59.56-.87.85-.06.07-.13.14-.19.22h0c-.28.3-.54.61-.79.93l-.08.1c-.24.32-.48.64-.7,1a11,11,0,0,0-.6,1h0a12.24,12.24,0,0,0-1.47,4,7,7,0,0,0,0,2.41l0,.14c.5,2.21,2.37,3.4,5.18,2.71a10.56,10.56,0,0,0,3.66-1.78,16.36,16.36,0,0,0,5.15-6.23,9.08,9.08,0,0,0,.9-5.42,3.55,3.55,0,0,0-3.8-2.94,6.51,6.51,0,0,0-1.39.19m6.21,2a10.31,10.31,0,0,1-1,6.17,18.53,18.53,0,0,1-5.85,7.09,11.92,11.92,0,0,1-4.16,2,6.42,6.42,0,0,1-2.76.12c-2.48-.52-3.69-2.89-3.16-6.1.89-5.42,6.16-11.22,11.06-12.41,2.84-.7,4.77.3,5.6,2.19a6.6,6.6,0,0,1,.3.92" fill="#526877"/><path d="M181.89,558.88c-2.48-.51-3.69-2.89-3.16-6.1.89-5.43,6.17-11.22,11.06-12.41a5.63,5.63,0,0,1,.78-.15l-3.15-2.53h0a14.65,14.65,0,0,0-1.73.45l-.39.13a27.88,27.88,0,0,0-5.36,2.73l-.54.36a31,31,0,0,0-3.83,3,13.91,13.91,0,0,0-1.69,4.55,6.79,6.79,0,0,0,.32,3.81,5.73,5.73,0,0,0,2,3.23l2.11,1.7h0a5.92,5.92,0,0,0,3.58,1.25" fill="#3e525e"/><path d="M246,523.16s-.12-.06-.13-.07l-.06-.05-.18-.09a4.72,4.72,0,0,1-.84-.49.56.56,0,0,1-.17-.24s0,0,0,0l0,0-.07-.09c0,.26,0,.51-.08.77s-.55.39-.89.39a1.27,1.27,0,0,1-.54-.14.47.47,0,0,1-.25-.5c0-.11,0-.22.07-.33-.3.27-.59.56-.87.85l.37.34c.28.21.31.65-.08,1.06a1,1,0,0,1-.62.33.57.57,0,0,1-.51-.21l0,0-.2-.25c-.24.32-.48.64-.7,1l.16,0h0a.53.53,0,0,1,.42.08,1.08,1.08,0,0,1,0,1.53l-.09,0h0l-1.17.15a1,1,0,0,0,.29.35h0l.18-.19c0-.05.16,0,.28,0a2.22,2.22,0,0,1,.64.72s.28.45.24.47h0l.75.6a1.8,1.8,0,0,1-.43-1.68,5.45,5.45,0,0,1,3.56-4,1.67,1.67,0,0,1,1.36.16l-.47-.39Z" fill="#173a46"/><path d="M189.29,542.7a4,4,0,0,0-1.75,0l-.07,0-1.22,1.49,0,0,0,0s0,0,0,0a.76.76,0,0,0,.18.23,6.09,6.09,0,0,0,1,.58l.19.11h0l.12-.18c.45-.66.9-1.33,1.34-2l.27-.4" fill="#1baba7"/><path d="M166.79,499.82h0" fill="#93ac3c"/><path d="M185.3,538.27l-.19-.53c-.77.27-1.49.5-2.14.7s-1,.29-1.43.39l-.93.18c-.28,0-.57.09-.86.12-3.75.48-5.57.16-13.28-5.46a181.3,181.3,0,0,1-15.72-12.85,12.35,12.35,0,0,1-2.49-3,2.24,2.24,0,0,1-.21-.95.49.49,0,0,1,0-.12v-.09a1.6,1.6,0,0,1,.05-.29,1.05,1.05,0,0,1,.06-.24.56.56,0,0,1,0-.12,2.67,2.67,0,0,1,.14-.36,8.4,8.4,0,0,1,1-1.59l-.21.22c-.15.18-.3.36-.44.55l-.09.13c-.14.2-.27.42-.4.65s-.25.42-.37.63a21.07,21.07,0,0,0-1.88,4.43c0,.16-.09.32-.13.48s-.13.49-.19.74-.18.8-.25,1.19a12.46,12.46,0,0,0-.27,3.82v0h0a5,5,0,0,1-.42,1.92,6.26,6.26,0,0,0,0,1.86c.36,2.34,2,3.79,5.53,6.86,4.38,3.85,4.28,3.77,4.35,3.82a108.56,108.56,0,0,0,13.75,9.05,3.58,3.58,0,0,0,3-1.4c.61-.81,1.51-1.87,2.62-3.1a22.11,22.11,0,0,1,1.61-1.6,31,31,0,0,1,3.83-3l.54-.36a27.88,27.88,0,0,1,5.36-2.73" fill="#c4d2de"/><path d="M250.77,506.81a20.63,20.63,0,0,0,0-6,6.66,6.66,0,0,0-.94-2.44.54.54,0,0,1,.06.46,1.23,1.23,0,0,1-.27.34h0a5.78,5.78,0,0,1-.91.7,9.94,9.94,0,0,1-.89.53,2.48,2.48,0,0,1,2.27,2.4,18.64,18.64,0,0,1-.11,5.6v0a2.56,2.56,0,0,0,.57-.87s0-.08,0-.13,0,0,0,0v0a0,0,0,0,0,0,0s0-.07,0-.11v0s0-.08,0-.11a.76.76,0,0,1,0-.15h0v0h0a.88.88,0,0,1,0,.16l0-.13v0h0l0-.17Z" fill="#dfe3e7"/><polygon points="241.26 528.45 241.26 528.46 241.27 528.45 241.26 528.45" fill="#b6ce65"/><path d="M191.16,544.9a2.49,2.49,0,0,0-1.87-2.2l-.27.4a4.35,4.35,0,0,1,0,1.35l.77-.37c.07,0,.19,0,.32.11a1.34,1.34,0,0,1,.44.76Z" fill="#173a46"/><path d="M247,525.63a2.64,2.64,0,0,0,.06-1.24.14.14,0,0,0,0-.06,1.27,1.27,0,0,0-.45-.73l-.07-.05a1.67,1.67,0,0,0-1.36-.16,5.45,5.45,0,0,0-3.56,4,1.8,1.8,0,0,0,.43,1.68l0,0a1.4,1.4,0,0,0,.42.22,1.86,1.86,0,0,0,.34.06,2.1,2.1,0,0,0,.55,0l.13,0a4,4,0,0,0,1.29-.61,6.14,6.14,0,0,0,1.59-1.7,5.15,5.15,0,0,0,.61-1.37" fill="#1baba7"/><path d="M186.07,545c0-.26.05-.52.08-.78v0c0-.32.06-.65.1-1a8.67,8.67,0,0,0-1.35.79h0l-.44.38c0,.11-.05.23-.07.34a.45.45,0,0,0,.25.49,1.27,1.27,0,0,0,.54.14c.34,0,.86-.12.89-.38" fill="#1baba7"/><path d="M158.06,503.78c0,.83.51,1.73,4.54,5.21l1,.85a27.24,27.24,0,0,0-.62-3.14h0c-.16-.2-.3-.4-.43-.6-.51-.78-.54-4-.32-4.91l-1.3.68a15.67,15.67,0,0,0-2.86,1.91" fill="#c4d2de"/><path d="M186.31,550.82a6.18,6.18,0,0,0,1.6-1.7,4.88,4.88,0,0,0,.61-1.37,2.64,2.64,0,0,0,.06-1.24s0,0,0,0a1.31,1.31,0,0,0-.45-.73l-.05-.05a1.68,1.68,0,0,0-1.38-.17,5.45,5.45,0,0,0-3.56,4,1.79,1.79,0,0,0,.42,1.67l.05,0a1.4,1.4,0,0,0,.42.22,1.86,1.86,0,0,0,.34.06h.06a2.11,2.11,0,0,0,.49,0l.13,0a3.75,3.75,0,0,0,1.28-.61" fill="#1baba7"/><path d="M148.34,517.93a13.62,13.62,0,0,0,2.5,3c-.22-.26-.81-1-1-1.24a4.3,4.3,0,0,1-.4-2.7c.07-.65.21-1.18.25-1.45a2.07,2.07,0,0,1-.12-.65v-.15h0a.53.53,0,0,1,0-.13v0a3,3,0,0,1,.29-1l0-.07.05-.1,0,0c0-.09.09-.18.13-.28a11.62,11.62,0,0,0-.79,1,8.73,8.73,0,0,0-1,1.59,2.67,2.67,0,0,0-.14.36.56.56,0,0,0,0,.12l-.06.24c0,.1,0,.2-.05.29v.09a.49.49,0,0,0,0,.12,2.4,2.4,0,0,0,.29,1.09" fill="#dfe3e7"/><polygon points="182.81 550.57 182.81 550.58 182.81 550.58 182.81 550.57" fill="#6a7e90"/><g clip-path="url(#clip-path-5)"><rect x="170.04" y="522.05" width="14.95" height="19.76" transform="translate(-375.78 623.2) rotate(-80.91)" fill="url(#linear-gradient-4)"/></g><g clip-path="url(#clip-path-6)"><rect x="170.75" y="523.59" width="12.76" height="16.65" transform="translate(-376.1 622.8) rotate(-80.91)" fill="url(#linear-gradient-5)"/></g><polygon points="182.81 550.57 182.81 550.58 182.82 550.58 182.81 550.57" fill="#b6ce65"/><path d="M172.35,530.27a8.53,8.53,0,0,1,7.15-3.77,5.11,5.11,0,0,1,1.94.33,9.49,9.49,0,0,0,4,.77l.79-1.26c-1.58-.45-3.05-1.12-7.56-4.48-3.64-2.71-9.27-7.17-13.42-10.62.2,1.88.27,3.67.28,5.14l5.33,4.26a1.85,1.85,0,0,1,.63,1.91,1.81,1.81,0,0,1-.35.69l-1.81,2.25a1.91,1.91,0,0,1-2.67.3l-8.16-6.54a1.83,1.83,0,0,1-.62-.92,1.85,1.85,0,0,1,.34-1.68L160,514.4a1.91,1.91,0,0,1,2.67-.29l3,2.46a43.91,43.91,0,0,0-.44-5.33L162.6,509c-4-3.48-4.52-4.38-4.54-5.21a6.48,6.48,0,0,0-4,2.8l-.32.43-.31.44a45,45,0,0,0-3.06,5.1c-.09.17-.17.35-.26.51h0a2.44,2.44,0,0,1-.14.28v0l-.08.16a3.29,3.29,0,0,0-.3,1v0a.53.53,0,0,0,0,.13h0v.15a2.28,2.28,0,0,0,.13.64,13.34,13.34,0,0,1,1.71-4.33,25.73,25.73,0,0,1,3.77-5.12c.26-.24.55-.48.83-.69a2.52,2.52,0,0,0,.51,1.72,3.26,3.26,0,0,1,.51.85,3.53,3.53,0,0,1,.09,1.3,19.59,19.59,0,0,1-1.62,5.65c-.55,1.18-.79,1.42-1.58,2.81-.32.56-.64,1.17-.91,1.75h0a170.93,170.93,0,0,0,17.6,14h0a35.86,35.86,0,0,1,1.74-3.15" fill="#c4d2de"/><path d="M188.52,547.75a4.88,4.88,0,0,1-.61,1.37h0l.89.15a.65.65,0,0,0,.69-.67.59.59,0,0,0-.36-.64l-.61-.21" fill="#1baba7"/><path d="M168.11,498.41c-2.62,1.18-4.5,2.07-5.89,2.78a3.43,3.43,0,0,0-.34,2.38c.15-.17,1.19-1.81,1.36-2a23,23,0,0,1,4.31-2.63h0l.56-.57" fill="#c4d2de"/><path d="M180.27,536.51c1.13-2,3.18-5.61,4.86-8.37a12.54,12.54,0,0,0-1.68,1.73A33.13,33.13,0,0,0,181,533.5a8.71,8.71,0,0,1-3.86,3.12l0,0a10.72,10.72,0,0,0,2.45,0l.73-.09" fill="#c4d2de"/><path d="M182.57,550.1a2.19,2.19,0,0,0-.63-.72c-.12-.07-.22-.08-.27,0l-.19.19-.9.89h0v.05a4.69,4.69,0,0,0,0,1.67c0,.07,0,.14,0,.22l1.89-1.52.31-.25h0s-.21-.42-.24-.47" fill="#1baba7"/><path d="M190.67,520.85c-.68.1-1.27.16-1.91.2h0a6.77,6.77,0,0,1-3.8-.61c-4.26-1.92-14-9.94-17.31-13.07a18.13,18.13,0,0,1-2.31-2.57,2.53,2.53,0,0,1-.3-2.74,5.56,5.56,0,0,1,.71-1.16c.15-.19.31-.37.48-.55h0l.13-.14,0,0,1.16-1.2a23,23,0,0,0-4.31,2.63c-.17.15-.33.31-.48.47a22,22,0,0,1,2.17,6.75l.23.22a123.09,123.09,0,0,0,15.67,12.27c3.58,2.17,5.73,2.53,8.36,2.41a18.54,18.54,0,0,0,3.92-.61,128.25,128.25,0,0,0,12.8-4.54c9.08-3.6,23.74-9.73,32.71-13.73h0a14.58,14.58,0,0,1,.81-3c-8.53,3.86-23.68,10.22-32.6,13.76a128.51,128.51,0,0,1-13.05,4.62,30,30,0,0,1-3.11.63" fill="#f5f6f6"/><polygon points="241.26 528.45 241.26 528.45 241.26 528.46 241.26 528.45" fill="#6a7e90"/><path d="M247.74,520.58a3.93,3.93,0,0,0-1.8,0h0c-.41.5-.82,1-1.22,1.49l0,0,0,0s0,0,0,0a.56.56,0,0,0,.17.24,5.47,5.47,0,0,0,.84.5l.18.08.18.11h0l.12-.18h0c.44-.67.89-1.34,1.34-2h0l.26-.39Z" fill="#1baba7"/><path d="M241.26,528.45h0A2.17,2.17,0,0,0,241,528a2.08,2.08,0,0,0-.63-.72c-.13-.08-.23-.09-.28,0l-.18.18-.9.88a.13.13,0,0,0,0,.06,4.69,4.69,0,0,0,0,1.67,1.6,1.6,0,0,0,.05.21l1.88-1.51.31-.26Z" fill="#1baba7"/><path d="M160.92,501.87c1.4-.71,4.63-2.28,7.25-3.46.37-.37.84-.84,1.25-1.27-1.92.86-4.2,1.89-6.09,2.79-.53.25-2.35,1.17-2.82,1.4.14.17.29.36.41.54" fill="#9fb3bf"/><path d="M247.58,525.84h0l-.61-.21a5.15,5.15,0,0,1-.61,1.37h0l.89.15h0a.65.65,0,0,0,.69-.62.62.62,0,0,0-.36-.69" fill="#1baba7"/><path d="M187.54,542.72a4,4,0,0,1,1.75,0,2.49,2.49,0,0,1,1.87,2.2,2.19,2.19,0,0,1,0,.27c.24,2.58-1.93,6.41-5.12,8.27a5.62,5.62,0,0,1-3.24.87,2.59,2.59,0,0,1-1.53-.68,2.55,2.55,0,0,1-.63-1c0-.08-.05-.17-.08-.25s0-.15,0-.22a4.69,4.69,0,0,1,0-1.67v-.05h0a8.59,8.59,0,0,1,.31-1.21,8.16,8.16,0,0,1,.34-.81,12.13,12.13,0,0,0-1.48,4,6.71,6.71,0,0,0,0,2.41,1.64,1.64,0,0,0,.44.54,3.66,3.66,0,0,0,2.72.69c2.6-.24,5.29-2.33,7-4.35s3.19-5,2.9-7.59a3.57,3.57,0,0,0-1.33-2.55h0a1.53,1.53,0,0,0-.55-.25h0a5.94,5.94,0,0,0-1.4.19A11.59,11.59,0,0,0,184.9,544a8.67,8.67,0,0,1,1.35-.79,5.93,5.93,0,0,1,1.22-.44l.07,0" fill="#1baba7"/><path d="M188.1,536.67c-1,.38-2,.75-3,1.07l.19.53.39-.13a12.93,12.93,0,0,1,1.73-.45,12.43,12.43,0,0,1,3.23-.19l.72.08c4.8.66,6.81,3.85,6.25,6.61a3.32,3.32,0,0,1-.51,1.26c3.31-1.13,7.21-2.54,11.32-4.09l-.25-.63-.54-.22a11.58,11.58,0,0,0,0-1.56c7.09-3.24,15-7.07,21.89-10.67a30.3,30.3,0,0,0,2.91-6.63,8.46,8.46,0,0,0,.3-2.78c-12,5-30.35,12.49-42.51,17l-2.16.79" fill="#f5f6f6"/><path d="M169.15,535.55c5.43,3.72,7.24,4,10.6,3.57a19.33,19.33,0,0,0,2.91-.6l.34-.1c1.21-.37,3-1,5.07-1.75,8.42-3.06,22.17-8.58,26.4-10.29,6-2.41,12.28-5,18.31-7.54a10.1,10.1,0,0,1,.58-2.66l-.92.39-.1,0-.43.18c-.09.05-.19.08-.28.12l-.23.1-.3.12-.12.06-.48.2-3.45,1.44-2.44,1c-3.31,1.37-6.76,2.78-10.12,4.14l-3,1.22-1.5.6-6,2.39-.58.22-.46.19-.45.18-1.58.61a4.09,4.09,0,0,1-.42.16c-4.12,1.62-11.51,4.45-16.19,5.94l.51-.17c1.45-.48,3.15-1.07,5-1.75h0l.06,0,.19-.07.11,0c12.81-4.67,33.65-13.25,43.19-17.28a56.69,56.69,0,0,0,4.68-7,7.64,7.64,0,0,0,.88-2.46,3.22,3.22,0,0,0-.3-1.76c-9,4-28.5,12.16-38.25,16.16-9.45,3.88-11.88,4.69-14.15,5.29l-.79,1.26h.35c-.24.17-.46.34-.67.52-1.68,2.77-3.73,6.35-4.86,8.38l-.73.09a10.18,10.18,0,0,1-2.45,0l0,0a6.86,6.86,0,0,1-5.3.35c-.92-.43-1.8-.92-2.67-1.42" fill="#f5f6f6"/><path d="M182.47,549a1.09,1.09,0,0,0,0-1.54.47.47,0,0,0-.41-.07h0l-.15,0q-.32.47-.6,1h0a8.16,8.16,0,0,0-.34.81l.28,0,1.19-.16h0l.09,0" fill="#1baba7"/><polyline points="187.56 545.28 187.56 545.28 187.56 545.28" fill="#b6ce65"/><path d="M240.28,525.31c-.22.32-.42.64-.61,1h0c-.12.27-.23.54-.32.81l.28,0,1.17-.15h0l.09,0a1.08,1.08,0,0,0,0-1.53.54.54,0,0,0-.42-.08h0l-.16,0" fill="#1baba7"/><path d="M145.07,528.39a3.15,3.15,0,0,0-.42,1.51,5.07,5.07,0,0,0,.18,1.94c.13.25.28.51.44.76a23.14,23.14,0,0,0,3.14,3.71c4.52,4.5,13.68,11.72,19.89,14.13a5.28,5.28,0,0,1-.18-1.94,8,8,0,0,0-3.72-6.65,77.83,77.83,0,0,1-16.55-13.17,2,2,0,0,0-2.07-.87,1.31,1.31,0,0,0-.71.58" fill="#1baba7"/><g clip-path="url(#clip-path-7)"><rect x="144.54" y="506.96" width="17.44" height="13.12" transform="translate(-378.02 583.75) rotate(-80.91)" fill="url(#linear-gradient-6)"/></g><g clip-path="url(#clip-path-8)"><rect x="145.84" y="508.07" width="14.91" height="11.11" transform="translate(-378.09 583.87) rotate(-80.91)" fill="url(#linear-gradient-7)"/></g><path d="M151.55,521.56l.08.07A189.84,189.84,0,0,0,168,534.72c.41.3.81.57,1.19.83a20,20,0,0,0,1.46-2.13,170.93,170.93,0,0,1-17.6-14h0a20.06,20.06,0,0,1-1.46,2.12" fill="#dfe3e7"/><path d="M158.23,516.65a1.85,1.85,0,0,0-.34,1.68,1.92,1.92,0,0,1,.35-.68l1.82-2.26a1.9,1.9,0,0,1,2.66-.29l2.81,2.25c0-.32,0-.65,0-1l-2.8-2.25a1.91,1.91,0,0,0-2.67.29Z" fill="#6f7e8d"/><path d="M161.88,503.57a3.24,3.24,0,0,0,.66,2.53c.13.2.27.4.43.6-.07-.3,3.3,3.89,3.29,2.95s-3.2-7.31-3.5-7.57Z" fill="#f5f6f6"/><path d="M168.23,498.35h0l1.19-1.21c3.21-3.22,6.73-6.66,9.22-9,4.2-3.91,5.51-4.7,7-5.31,3.26,2.85,18.74,15.19,23.67,19a69.29,69.29,0,0,1-5.79,6.25c-3.36,3.41-8.89,8.91-12.82,12.81-.68.1-1.27.16-1.91.2h0a6.77,6.77,0,0,1-3.8-.61c-4.26-1.92-14-9.94-17.31-13.07a18.13,18.13,0,0,1-2.31-2.57,2.53,2.53,0,0,1-.3-2.74l.71-1.16,1-1.07h0l.88-.9.56-.57m34.71,9.16c3.36-3.4,4.53-4.69,5.26-5.59-5.19-4-18.88-14.9-22.73-18.19-1.18.54-2.53,1.45-6.3,5-3.53,3.29-9,8.72-12.81,12.66l-.63,1a1.78,1.78,0,0,0,.26,2,16.36,16.36,0,0,0,2.2,2.45c3.16,3,12.9,11,17.09,12.92,1.75.79,2.41.6,4.87.45l0,0c4-4,9.39-9.34,12.74-12.74" fill="#0d4a4b"/><path d="M165.16,509.05c-.07-.07-2.1-2.27-2.19-2.35.14.81.54,2.34.62,3.14,4.15,3.44,11.45,9.31,15.09,12,4.51,3.36,6,4,7.56,4.48,2.27-.6,4.7-1.41,14.15-5.29,9.75-4,29.23-12.2,38.25-16.16l0,0c-9,4-23.63,10.13-32.71,13.73a128.25,128.25,0,0,1-12.8,4.54,18.54,18.54,0,0,1-3.92.61c-2.63.12-4.78-.24-8.36-2.41a123.09,123.09,0,0,1-15.67-12.27" fill="#c4d2de"/><path d="M170.87,520.64l-5.33-4.26c0,.34,0,.67,0,1l5.36,4.29a1.8,1.8,0,0,1,.61.91,1.85,1.85,0,0,0-.63-1.91" fill="#6f7e8d"/><path d="M211.72,471.48c-5.32,2-17.88,6.75-23,9.11a23.13,23.13,0,0,0-5.17,3c-3,2.37-9.8,9.08-14.23,13.59l.14-.07c3.2-3.22,6.73-6.66,9.23-9,4.19-3.91,5.5-4.7,7-5.31,1-1,2.27-1.79,8.07-4.18,4.76-2,12.62-5,18.53-7.19a.83.83,0,0,0-.47,0h0" fill="#0d4a4b"/><path d="M193.68,478.66c-5.8,2.39-7,3.21-8.07,4.18,3.26,2.85,18.74,15.19,23.66,19,1.67-.48,3.27-1,9.25-3.25,4.92-1.84,12.81-4.86,18.61-7.12l.06,0c1.86-.72,4.2-1.64,6-2.38a29.26,29.26,0,0,0,4.69-2.1c-.07-.9-.45-1.77-3.88-4.79s-9.89-8.19-13.69-11-4.92-3.1-6.1-3.19-2.18.08-5.73,1.25l-.58.19c-1.72.58-3.69,1.3-5.36,1.91l-.37.14c-5.91,2.17-13.77,5.21-18.53,7.19" fill="#3c4b56"/><path d="M191.43,541.54a3.57,3.57,0,0,1,1.33,2.55c.29,2.56-1.24,5.58-2.9,7.59s-4.35,4.11-7,4.35a3.66,3.66,0,0,1-2.72-.69,2.5,2.5,0,0,1-.41-.39c.51,2.21,2.37,3.39,5.18,2.7a10.41,10.41,0,0,0,3.65-1.77,16.33,16.33,0,0,0,5.16-6.24,9.08,9.08,0,0,0,.9-5.42,4.18,4.18,0,0,0-.36-1l-2.25-1.8a4,4,0,0,0-1.18-.12,1.7,1.7,0,0,1,.55.24Z" fill="#173a46"/><path d="M181.56,553.21c-.06.17.58.59,1,.63.14,0,.23,0,.26-.08l1-1.94c.07-.13.14-.25.2-.38a1.4,1.4,0,0,1-.42-.22l0,0-.75-.59-.31.25-.68,1.73-.25.64" fill="#1baba7"/><path d="M184.9,551.46l.23.77v0c.1.33.7.47,1.1.2a.51.51,0,0,0,.24-.49c-.05-.38-.1-.76-.16-1.14a3.63,3.63,0,0,1-1.29.61l-.12,0" fill="#1baba7"/><path d="M187.42,537.69l3.15,2.53c2.64-.38,4.37.83,5,2.83-.37-1.6-1.85-3.5-4.92-5.55a12.43,12.43,0,0,0-3.23.19" fill="#3e525e"/><path d="M187.68,545.1l-.12.18.5.4.05.05a1.31,1.31,0,0,1,.45.73l1.93-1.2a.23.23,0,0,0,.1-.2.2.2,0,0,0,0-.11,1.34,1.34,0,0,0-.44-.76c-.13-.11-.25-.14-.32-.11l-.77.37-1.38.65" fill="#1baba7"/><path d="M190.67,520.85a30,30,0,0,0,3.11-.63,128.51,128.51,0,0,0,13.05-4.62c8.92-3.54,24.07-9.9,32.6-13.76l0-.38c-8.47,3.9-33.06,14.34-41.83,17.16l.83-.76c1.85-1.7,3.9-3.62,5.87-5.49,6.68-6.35,6.52-6.54,7.62-7.35a6.62,6.62,0,0,1,1.84-1c6-2,17.78-6.38,24.53-9.07l.34-.14v-.06a7.48,7.48,0,0,0-1.46-3.36c-5.8,2.26-13.69,5.28-18.61,7.12-6,2.25-7.58,2.77-9.24,3.25a69.29,69.29,0,0,1-5.79,6.25c-3.36,3.41-8.89,8.91-12.82,12.81" fill="#0d4a4b"/><path d="M191.37,537.58l-.72-.08c3.07,2,4.55,4,4.92,5.55,0,.14.09.29.12.44a6.94,6.94,0,0,1,.13.93l1.29,1a3.32,3.32,0,0,0,.51-1.26c.55-2.76-1.45-6-6.25-6.61" fill="#58626c"/><path d="M195.57,543.05c-.63-2-2.36-3.21-5-2.83l1.49,1.19a3.35,3.35,0,0,1,2.25,1.8l1.51,1.21a6.94,6.94,0,0,0-.13-.93l-.12-.44" fill="#526877"/><path d="M192.06,541.41l2.25,1.8a3.32,3.32,0,0,0-2.25-1.8" fill="#173a46"/><path d="M198.4,517.86l-.83.76c8.77-2.83,33.35-13.26,41.83-17.16v-.06a54.12,54.12,0,0,0-.8-6.56l-.34.14a55.87,55.87,0,0,1,.7,6.08v.06c-8.1,3.73-30.91,13.42-40.57,16.74" fill="#1baba7"/><path d="M238.6,494.84a54.12,54.12,0,0,1,.8,6.56v.06l0,.38a14.58,14.58,0,0,0-.81,3h0l0,0a3.22,3.22,0,0,1,.3,1.76,7.64,7.64,0,0,1-.88,2.46,56.69,56.69,0,0,1-4.68,7l0,0h0a10,10,0,0,0-.58,2.66v0a8.49,8.49,0,0,1-.3,2.79,30.3,30.3,0,0,1-2.91,6.63c-6.92,3.6-14.8,7.43-21.89,10.67l.54.21c7.17-3.28,15.14-7.15,22.13-10.78a30.57,30.57,0,0,0,2.95-6.71,8.6,8.6,0,0,0,.29-2.81l0,0a9.87,9.87,0,0,1,.59-2.69,58.73,58.73,0,0,0,4.75-7.15,7.93,7.93,0,0,0,.89-2.48,3.2,3.2,0,0,0-.31-1.78l0-.06a15.06,15.06,0,0,1,.82-3l0-.44a53.6,53.6,0,0,0-.82-6.69,7.61,7.61,0,0,0-1.47-3.4c1.6-.6,3.58-1.35,5.27-2.05l0,0c-1.81.77-4.18,1.68-6,2.38l-.06,0a7.48,7.48,0,0,1,1.46,3.36v.06" fill="#93ac3c"/><path d="M208.21,539.16l-.54-.21a11.61,11.61,0,0,1,0,1.56l.54.22a11.73,11.73,0,0,0,0-1.57" fill="#1baba7"/><path d="M208.21,539.16c0,.27,0,.56,0,.84s0,.5,0,.73c7.7-3.06,17.08-7,24.64-10.46,2.64-3.08,7.88-10.46,8.16-14.55v0a2.68,2.68,0,0,1,.1-.37s0,0,0,0a14.85,14.85,0,0,1,1.15-2.61h0c.08-.13.16-.28.25-.42s0,0,0,0a53.39,53.39,0,0,0,3-6,8.35,8.35,0,0,0,.67-2.44,3.09,3.09,0,0,0-.47-1.89l0-.09s0-.09.06-.2l0-.12c.27-.64.9-2,1-2.2a7.78,7.78,0,0,1,.54-1c0-.09,0-.18-.05-.28-.14-.79-.33-1.68-.52-2.58s-.47-2-.7-2.82a8.94,8.94,0,0,0-1.9-3.89l-.9.37c-1.69.7-3.68,1.45-5.27,2.05l.21.3,0,0a7.8,7.8,0,0,1,1.23,3.05,55.78,55.78,0,0,1,.81,6.69l0,.44a15.06,15.06,0,0,0-.82,3l0,.05a3.34,3.34,0,0,1,.31,1.79,7.69,7.69,0,0,1-.89,2.48,58.73,58.73,0,0,1-4.75,7.15,9.87,9.87,0,0,0-.59,2.69l0,0a8.34,8.34,0,0,1-.3,2.81,30.53,30.53,0,0,1-2.94,6.71c-7,3.64-15,7.51-22.13,10.78" fill="#0d4a4b"/><path d="M231.53,530.11a2.35,2.35,0,0,0,.39-.19,4.85,4.85,0,0,0,1-.79c2.77-3.37,7.09-9.72,7.42-13.63.07-.11,0-.08.13-.35a15.8,15.8,0,0,1,1.26-2.84c.94-1.72,3.68-6.41,3.83-8.55.07-1-.44-1.43-.51-1.83s.39-1.21,1.16-2.91c.05-.1.09-.2.14-.29a2.12,2.12,0,0,0,.17-1.31c-.25-1.27-.72-3.39-1.08-4.66a9.94,9.94,0,0,0-1.11-2.75.75.75,0,0,0-.93-.27l-.46.18a.63.63,0,0,0-.31.91,21,21,0,0,1,1.71,5.42c.12.52.23,1,.32,1.47a3.25,3.25,0,0,1-.26,2.06c-.39.83-.89,1.92-1,2.32a1,1,0,0,0-.09.54c.09.44.58.82.51,1.83-.13,1.94-2.63,6.47-3.61,8.17l-.22.38a14.36,14.36,0,0,0-1.4,3.36c-.24,3.57-4.82,10.44-7.9,14Z" fill="#d6e9ef"/><path d="M249,496.11a.11.11,0,0,0,0,.05,47.82,47.82,0,0,0,.44-5.89c0-3.09-.34-4-2.19-5.94-3.1-3.18-12.45-10.55-16.25-13.25a32.08,32.08,0,0,0-3.69-2.31,7.16,7.16,0,0,0-3.07-.8h0c1.18.09,2.31.43,6.1,3.2s10.27,7.93,13.69,10.95,3.81,3.89,3.88,4.79c.75.45,1.19,1,1.22,3.25a45.42,45.42,0,0,1-.53,6.8l.1-.12a1.13,1.13,0,0,0,.31-.59.43.43,0,0,0,0-.15" fill="#526877"/><path d="M249.68,515.46a3.85,3.85,0,0,0-1.07-.6,11,11,0,0,0-1.66.73,16.38,16.38,0,0,0-3.18,2.28h0c-.47.42-.91.86-1.33,1.3a44.52,44.52,0,0,0-6.54,9.73,10.35,10.35,0,0,1-.77,1.25,3,3,0,0,1-.64.68l-1.54.68a5.54,5.54,0,0,0,1.69,2.3c.7.57,1.41,1.13,2.12,1.69h0a6,6,0,0,0,3.59,1.25c-2.48-.52-3.69-2.89-3.16-6.1.89-5.42,6.16-11.22,11.06-12.41,2.84-.7,4.77.3,5.6,2.19a5.85,5.85,0,0,0-2-3.25l-.06-.05c-.13-.09-.27-.19-.41-.27l0,0-1.11-.89-.56-.44,0,0" fill="#3e525e"/><path d="M243.23,489l0,0,.9-.37a8.94,8.94,0,0,1,1.9,3.89c.23.82.47,1.82.7,2.82s.37,1.79.52,2.58c.21-.12.41-.25.58-.37a4.6,4.6,0,0,0,.74-.64,45.42,45.42,0,0,0,.53-6.8c0-2.29-.47-2.8-1.22-3.25a29.26,29.26,0,0,1-4.69,2.1" fill="#526877"/><path d="M248.63,521l.05,0a2.66,2.66,0,0,1,.93,1.7l0,.26c.33,3.22-3,7.87-6.65,9a4.2,4.2,0,0,1-1.69.19,2.65,2.65,0,0,1-1.54-.68,3.1,3.1,0,0,1-.7-1.27h0A1.6,1.6,0,0,1,239,530a4.69,4.69,0,0,1,0-1.67.13.13,0,0,1,0-.06,7.61,7.61,0,0,1,.32-1.2c.09-.27.2-.54.32-.81a12.24,12.24,0,0,0-1.47,4,7,7,0,0,0,0,2.41,1.89,1.89,0,0,0,.36.48l.08.06a3.71,3.71,0,0,0,2.72.69c2.6-.24,5.29-2.33,6.95-4.35s3.19-5,2.9-7.59a3.56,3.56,0,0,0-1.31-2.54l0,0a1.88,1.88,0,0,0-.56-.25,6.51,6.51,0,0,0-1.39.19,11.61,11.61,0,0,0-4.6,2.52,8.22,8.22,0,0,1,1.37-.81,5.93,5.93,0,0,1,1.22-.44h0a3.93,3.93,0,0,1,1.8,0,2.37,2.37,0,0,1,.89.42" fill="#1baba7"/><path d="M249.88,519.41l0,0a3.56,3.56,0,0,1,1.31,2.54c.29,2.56-1.24,5.58-2.9,7.59s-4.35,4.11-6.95,4.35a3.71,3.71,0,0,1-2.72-.69l-.08-.06a2.13,2.13,0,0,1-.33-.34c.5,2.21,2.37,3.4,5.18,2.71a10.56,10.56,0,0,0,3.66-1.78,16.36,16.36,0,0,0,5.15-6.23,9.08,9.08,0,0,0,.9-5.42,3.56,3.56,0,0,0-3.8-2.94,1.88,1.88,0,0,1,.56.25" fill="#173a46"/><path d="M239.14,530.49a2.42,2.42,0,0,0,.62,1,2.65,2.65,0,0,0,1.54.68A4.2,4.2,0,0,0,243,532c3.68-1.13,7-5.78,6.65-9l0-.26-.57,0a.76.76,0,0,1,0,.15.27.27,0,0,1-.11.2L247,524.33a.14.14,0,0,1,0,.06,2.64,2.64,0,0,1-.06,1.24l.61.21h0a.62.62,0,0,1,.36.69.65.65,0,0,1-.69.62h0l-.89-.15h0a6,6,0,0,1-1.6,1.7c.06.38.11.76.16,1.14a.48.48,0,0,1-.24.48c-.4.28-1,.14-1.09-.19v0c-.08-.26-.15-.52-.23-.77a2.1,2.1,0,0,1-.55,0c-.18.12-.36.22-.54.32l-1,1.93c0,.06-.12.1-.26.08-.4,0-1.06-.45-1-.62s.17-.43.25-.65a3.83,3.83,0,0,1-1.12,0" fill="#173a46"/><path d="M242.26,529.7l.2-.38a1.4,1.4,0,0,1-.42-.22l0,0-.75-.6-.31.26c-.23.57-.45,1.15-.68,1.72-.08.22-.17.44-.25.65s.59.59,1,.62c.14,0,.23,0,.26-.08l1-1.93" fill="#1baba7"/><path d="M242.41,523.43l-.37-.34c-.06.07-.13.14-.19.22h0a11.59,11.59,0,0,0-.79.92.7.7,0,0,0,.12.35l0,0a.57.57,0,0,0,.51.21,1,1,0,0,0,.62-.33c.39-.41.36-.85.08-1.06" fill="#1baba7"/><path d="M251,509.39c0-.11,0-.21.06-.31a4.58,4.58,0,0,0-.35-2.06.34.34,0,0,1,0,.09.51.51,0,0,0,0-.09l0,.21h0a.44.44,0,0,0,0,.1v0a0,0,0,0,0,0,0,.34.34,0,0,1,0,.12h0a2.11,2.11,0,0,1-.35.62l0,0-.13.15-.07.08v0a18.88,18.88,0,0,0,.1-5.59,2.48,2.48,0,0,0-2.27-2.4l-.24.13-.24.15c-.41.25-.92.54-1.65.91a.47.47,0,0,0-.05.2l0,.09a3.22,3.22,0,0,1,.47,1.89,8.44,8.44,0,0,1-.67,2.44,52.55,52.55,0,0,1-3,6v0c-.09.14-.17.28-.25.43h0a14.34,14.34,0,0,0-1.15,2.62l2-.88.41-.18c4.5-2,5.49-2.35,6.34-3.11a4.23,4.23,0,0,0,1-1.27,3,3,0,0,0,.16-.48" fill="#dfe3e7"/><path d="M208.18,540.73l.24.63c8.51-3.2,17.86-7,24.53-9.85l1.54-.68a3,3,0,0,0,.64-.68,11,11,0,0,0,.78-1.25,44,44,0,0,1,6.53-9.73c.42-.44.86-.88,1.33-1.3h0a16.38,16.38,0,0,1,3.18-2.28,10.66,10.66,0,0,1,1.67-.73l.07,0h0a3.56,3.56,0,0,1,2-.17,7.24,7.24,0,0,0-.89-3.43,3.32,3.32,0,0,1-.42.32,46.32,46.32,0,0,1-5.84,2.71l-.29.14-2.13.91a2.68,2.68,0,0,0-.1.37v0c-.29,4.08-5.52,11.47-8.16,14.55-7.56,3.45-16.94,7.4-24.65,10.46" fill="#dfe3e7"/><path d="M242.84,522.57a.47.47,0,0,0,.25.5,1.27,1.27,0,0,0,.54.14c.34,0,.87-.13.89-.39s0-.51.08-.77v0c0-.32.06-.65.1-1a8.22,8.22,0,0,0-1.37.81l-.42.37c0,.11,0,.22-.07.33" fill="#1baba7"/><path d="M249.86,498.37v0l0,0a20.63,20.63,0,0,1-.77-2.08l0-.07a.11.11,0,0,1,0-.05.43.43,0,0,1,0,.15,1.13,1.13,0,0,1-.31.59l-.1.12a4.6,4.6,0,0,1-.74.64c-.17.12-.37.25-.58.37,0,.1,0,.19.05.28a8.38,8.38,0,0,0-.54,1c-.09.21-.74,1.56-1,2.2l1.59-.81.25-.13.24-.13a9.94,9.94,0,0,0,.89-.53,5.78,5.78,0,0,0,.91-.7h0a1.23,1.23,0,0,0,.27-.34.54.54,0,0,0-.06-.46l0,0" fill="#f5f6f6"/><path d="M246.14,523l-.12.18.47.39.07.05a1.27,1.27,0,0,1,.45.73l1.93-1.19a.27.27,0,0,0,.11-.2.76.76,0,0,0,0-.15c-.08-.4-.51-.88-.73-.84h0l-.76.36-1.37.66Z" fill="#1baba7"/><path d="M247.48,521h0a4.63,4.63,0,0,1,0,1.34l.76-.36h0c.22,0,.65.44.73.84l.57,0a2.66,2.66,0,0,0-.93-1.7l-.05,0a2.38,2.38,0,0,0-.89-.43h0l-.26.39" fill="#173a46"/><path d="M250.29,515.94l1.11.89c0-.12.08-.25.11-.37a.59.59,0,0,1,0-.13,1.35,1.35,0,0,0-.87-1.66,3.52,3.52,0,0,0-2,.17,5.18,5.18,0,0,1,1,.62l0,0,.56.44" fill="#060304"/><g clip-path="url(#clip-path-9)"><rect x="219.47" y="499.94" width="7.41" height="9" transform="translate(-77.81 42.19) rotate(-9.2)" fill="url(#linear-gradient-8)"/></g><g clip-path="url(#clip-path-10)"><rect x="210.22" y="503.21" width="7.72" height="9.51" transform="translate(-78.48 40.78) rotate(-9.2)" fill="url(#linear-gradient-9)"/></g><g clip-path="url(#clip-path-11)"><rect x="216.6" y="501.31" width="6.41" height="8.88" transform="matrix(0.99, -0.16, 0.16, 0.99, -78.06, 41.67)" fill="url(#linear-gradient-10)"/></g><g clip-path="url(#clip-path-12)"><rect x="228.64" y="496.9" width="6.02" height="8.23" transform="translate(-77.15 43.5) rotate(-9.2)" fill="url(#linear-gradient-11)"/></g><path d="M195.52,518.08a3.5,3.5,0,0,0-1.11,3.24c.18,1.13,2.34,2.22,2.34,2.22a16.14,16.14,0,0,0,5.46,1.53A2,2,0,0,0,203,524a4.46,4.46,0,0,0-.07-3.25,23.59,23.59,0,0,0-7.4-2.66" fill="#cf4027"/><path d="M195.27,517.05a10.67,10.67,0,0,1,5,1.55,6.67,6.67,0,0,1,2.6,2.14c.2-.06,1.14-.39,1.05-.58h0c-1.75-1.83-6.19-3.61-8.69-3.1" fill="#d6e9ef"/><path d="M195.52,518.08a23.68,23.68,0,0,1,7.4,2.66,6.6,6.6,0,0,0-2.6-2.14,10.67,10.67,0,0,0-5-1.55l-.08,0v0c-.22.16.17.76.32,1" fill="#cf4027"/><path d="M193.55,520.2a2.63,2.63,0,0,0,.06.27c0,1.9,3.09,3.64,4.85,4.33a9.12,9.12,0,0,0,4.54.64c-.22,0-.62-.24-.79-.37a16.14,16.14,0,0,1-5.46-1.53s-2.16-1.09-2.34-2.22a3.5,3.5,0,0,1,1.11-3.24c-.15-.22-.54-.83-.32-1h0a2.67,2.67,0,0,0-1.6,1c-.34.37-.13,1.68,0,2.17" fill="#cf4027"/><path d="M203,520.88c.76,1.43,0,4.56,0,4.56h0c2.6-.53,2.79-3.36,1-5.28a.08.08,0,0,1,0,0c0,.19-.87.48-1.06.54l.06.14" fill="#d6e9ef"/><path d="M202.21,525.07a1.62,1.62,0,0,0,.74.37h0s.77-3.13,0-4.56a4.5,4.5,0,0,1,0,3.11,2,2,0,0,1-.79,1.08" fill="#cf4027"/><path d="M165.86,490.55c-1.35-.21-1.48,3.38-1.37,4.73a9.11,9.11,0,0,1,0-1.28c.06-.67.25-2.16.76-2.59.06-.39.22-.92.61-.86" fill="#d6e9ef"/><path d="M165.25,491.41c-.51.43-.7,1.92-.76,2.59a9.11,9.11,0,0,0,0,1.28,13.81,13.81,0,0,0,1,4.05,1.8,1.8,0,0,0,1,.83,25.4,25.4,0,0,0,.59-4,37.94,37.94,0,0,0-1.87-4.75" fill="#d6e9ef"/><path d="M165.87,490.55c-.4-.06-.56.46-.62.86a37.94,37.94,0,0,1,1.87,4.75c.22,0,.43,0,.62,0s.68,0,.69-.07c-.15-1.31-1.23-5.34-2.56-5.56" fill="#d6e9ef"/><path d="M168.51,497.83a11.92,11.92,0,0,0-.08-1.72c0,.07-.62.07-.69.07s-.4,0-.62,0a25.4,25.4,0,0,1-.59,4,1.18,1.18,0,0,0,.85-.11l0,0a1.25,1.25,0,0,1,0-.69,1,1,0,0,1,.29-.38,3.09,3.09,0,0,0,.84-1.12" fill="#d6e9ef"/><path d="M217.3,475.38l-10.13,3.84c-3.45,1.3-3.92,4.21-1.07,6.5l1.65,1.32a12.89,12.89,0,0,0,11.42,1.78L229.3,485l-2-1.6,4.07-1.54-2.47-2-4.07,1.54-3.25-2.6,4.08-1.54-2.47-2-4.08,1.55Zm-.38,2.28,8.37,6.7-7.94,3a8.39,8.39,0,0,1-7.41-1.16l-1.65-1.32c-1.85-1.48-1.54-3.37.69-4.22Z" fill="#4f6370"/><path d="M177.86,529.29c-1.17,1.53-1.57,3.18-.89,3.68s2.18-.33,3.35-1.86,1.56-3.18.88-3.69-2.18.34-3.34,1.87" fill="#d6e9ef"/><path d="M207,539.1l.62,1.41.58-.51c0-.28,0-.56,0-.84,7.18-3.27,15.14-7.14,22.13-10.78a30.53,30.53,0,0,0,2.94-6.71,8.34,8.34,0,0,0,.3-2.81l0,0a9.87,9.87,0,0,1,.59-2.69,58.15,58.15,0,0,0,4.74-7.14,7.85,7.85,0,0,0,.9-2.49,3.34,3.34,0,0,0-.31-1.79l0-.05a15.06,15.06,0,0,1,.82-3l0-.44a55.78,55.78,0,0,0-.81-6.69,7.87,7.87,0,0,0-1.23-3.05l0,0a3.4,3.4,0,0,1-.21-.3l-1.52.57a7.59,7.59,0,0,1,1.45,3.24,52.27,52.27,0,0,1,.79,6.53l0,.28A12.44,12.44,0,0,0,238,505V505l0,.07a2.65,2.65,0,0,1,.28,1.48,7,7,0,0,1-.82,2.23,54.61,54.61,0,0,1-4.56,6.88l0,0-.15.23v0a11.89,11.89,0,0,0-.6,2.69l0,0v.21a8,8,0,0,1-.27,2.57,29.41,29.41,0,0,1-2.75,6.3c-6.7,3.48-14.4,7.22-21.69,10.55Z" fill="#1baba7"/><path d="M223.78,497.62c-7,2.66-12.52,5-12.27,5.18s6.16-1.79,13.18-4.45,12.52-5,12.26-5.18-6.15,1.79-13.17,4.45" fill="#d6e9ef"/><path d="M231.3,512l2.43-1.09a4.43,4.43,0,0,0,2.47-3.13l.05-.53-6.95,3.13-.05.53c-.12,1.16.8,1.65,2.05,1.09" fill="#0d4a4b"/><path d="M231,512.14l2.43-1.09a4.4,4.4,0,0,0,2.47-3.13l.06-.53L229,510.52l-.06.53c-.11,1.17.81,1.66,2.05,1.09" fill="#0d4a4b"/><path d="M232.17,510.14l2.69-1.19a.67.67,0,0,0,.37-.47c0-.17-.12-.24-.31-.16l-2.68,1.19a.68.68,0,0,0-.38.47c0,.17.12.25.31.16" fill="#0d4a4b"/><g style="mix-blend-mode:multiply"><g clip-path="url(#clip-path-13)"><path d="M191.49,520c-.11,2.11,2,.89,5.24,6.9a10.77,10.77,0,0,0,1,1.52c.12.16.46.31.59.24a.74.74,0,0,0,.35-.58c-.08-1.07-.22-2.12-.35-3.22,1,.16,3.57.82,4.63.55h0s.77-3.13,0-4.56l-.09-.15a6.83,6.83,0,0,0-2.6-2.14,10.71,10.71,0,0,0-5.06-1.55,7,7,0,0,0-1.91,1.1c-.44.47-1.83,1.89-1.83,1.89" fill="#0d4a4b"/></g></g></g></g></g></svg>