<svg xmlns="http://www.w3.org/2000/svg" viewBox="0 0 336.51 383.07" style="fill: white"><title>Asset 7</title><g id="Layer_2" data-name="Layer 2"><g id="Layer_1-2" data-name="Layer 1"><path d="M138,210.43c-19.4-5.33-36.72-2.64-52.28,9.1-18.28,13.8-26.14,37.33-20.18,59.79,5.6,21.17,24.54,37.57,46.38,41.08,30.64,4.92,65.64-18.24,65.27-58.51-.36-39.83,0-79.66,0-119.5q0-68,0-136V0H239.6c1.15,26.19,10.24,49.07,29,67.59C287.32,86,310,95,336.51,95.67v62.05c-35.58.13-67.36-11.15-96.76-32.68v6.21c.17,43.66.45,87.33.47,131,0,38.15-14.55,69.73-44.08,93.91-64.86,53.1-164.35,24-190.41-55.43C-13.91,240.85,18.58,174.62,78,153.25a124.46,124.46,0,0,1,55-7c3.8.38,5.43,1.45,5.37,5.69-.24,17.83-.09,35.67-.11,53.5C138.25,206.94,138.11,208.41,138,210.43Z"/></g></g></svg>