<svg xmlns="http://www.w3.org/2000/svg" xmlns:xlink="http://www.w3.org/1999/xlink" viewBox="0 0 125.27 125.26"><defs><linearGradient id="linear-gradient" x1="14.27" y1="62.62" x2="110.96" y2="62.62" gradientUnits="userSpaceOnUse"><stop offset="0.27" stop-color="#1caba7"/><stop offset="1" stop-color="#104a4b"/></linearGradient><linearGradient id="linear-gradient-2" x1="114.06" y1="47.38" x2="125.25" y2="47.38" xlink:href="#linear-gradient"/><linearGradient id="linear-gradient-3" x1="114.1" y1="57.47" x2="125.27" y2="57.47" xlink:href="#linear-gradient"/><linearGradient id="linear-gradient-4" x1="54.68" y1="119.68" x2="60.23" y2="119.68" xlink:href="#linear-gradient"/><linearGradient id="linear-gradient-5" x1="114.07" y1="77.9" x2="125.24" y2="77.9" xlink:href="#linear-gradient"/><linearGradient id="linear-gradient-6" x1="114.06" y1="67.77" x2="125.25" y2="67.77" xlink:href="#linear-gradient"/><linearGradient id="linear-gradient-7" x1="114.07" y1="26.98" x2="125.23" y2="26.98" xlink:href="#linear-gradient"/><linearGradient id="linear-gradient-8" x1="114.08" y1="98.29" x2="125.25" y2="98.29" xlink:href="#linear-gradient"/><linearGradient id="linear-gradient-9" x1="44.59" y1="119.64" x2="50.06" y2="119.64" xlink:href="#linear-gradient"/><linearGradient id="linear-gradient-10" x1="114.06" y1="88.15" x2="125.24" y2="88.15" xlink:href="#linear-gradient"/><linearGradient id="linear-gradient-11" x1="24.16" y1="119.66" x2="29.71" y2="119.66" xlink:href="#linear-gradient"/><linearGradient id="linear-gradient-12" x1="114.03" y1="37.09" x2="125.24" y2="37.09" xlink:href="#linear-gradient"/><linearGradient id="linear-gradient-13" x1="64.98" y1="119.67" x2="70.51" y2="119.67" xlink:href="#linear-gradient"/><linearGradient id="linear-gradient-14" x1="24.19" y1="5.58" x2="29.75" y2="5.58" xlink:href="#linear-gradient"/><linearGradient id="linear-gradient-15" x1="85.36" y1="119.66" x2="90.9" y2="119.66" xlink:href="#linear-gradient"/><linearGradient id="linear-gradient-16" x1="0.01" y1="77.87" x2="11.15" y2="77.87" xlink:href="#linear-gradient"/><linearGradient id="linear-gradient-17" x1="64.99" y1="5.58" x2="70.52" y2="5.58" xlink:href="#linear-gradient"/><linearGradient id="linear-gradient-18" x1="75.08" y1="5.56" x2="80.66" y2="5.56" xlink:href="#linear-gradient"/><linearGradient id="linear-gradient-19" x1="0" y1="98.29" x2="11.11" y2="98.29" xlink:href="#linear-gradient"/><linearGradient id="linear-gradient-20" x1="34.3" y1="119.66" x2="39.84" y2="119.66" xlink:href="#linear-gradient"/><linearGradient id="linear-gradient-21" x1="0.01" y1="88.15" x2="11.19" y2="88.15" xlink:href="#linear-gradient"/><linearGradient id="linear-gradient-22" x1="75.08" y1="119.64" x2="80.55" y2="119.64" xlink:href="#linear-gradient"/><linearGradient id="linear-gradient-23" x1="34.31" y1="5.59" x2="39.85" y2="5.59" xlink:href="#linear-gradient"/><linearGradient id="linear-gradient-24" x1="85.38" y1="5.59" x2="90.91" y2="5.59" xlink:href="#linear-gradient"/><linearGradient id="linear-gradient-25" x1="95.59" y1="5.59" x2="101.05" y2="5.59" xlink:href="#linear-gradient"/><linearGradient id="linear-gradient-26" x1="0" y1="26.95" x2="11.15" y2="26.95" xlink:href="#linear-gradient"/><linearGradient id="linear-gradient-27" x1="0.01" y1="37.08" x2="11.16" y2="37.08" xlink:href="#linear-gradient"/><linearGradient id="linear-gradient-28" x1="95.52" y1="119.69" x2="101.03" y2="119.69" xlink:href="#linear-gradient"/><linearGradient id="linear-gradient-29" x1="0.01" y1="67.75" x2="11.16" y2="67.75" xlink:href="#linear-gradient"/><linearGradient id="linear-gradient-30" x1="44.61" y1="5.58" x2="50.13" y2="5.58" xlink:href="#linear-gradient"/><linearGradient id="linear-gradient-31" x1="54.7" y1="5.58" x2="60.24" y2="5.58" xlink:href="#linear-gradient"/><linearGradient id="linear-gradient-32" x1="0.01" y1="57.47" x2="11.14" y2="57.47" xlink:href="#linear-gradient"/><linearGradient id="linear-gradient-33" x1="0" y1="47.36" x2="11.16" y2="47.36" xlink:href="#linear-gradient"/></defs><title>Asset 7</title><g id="Layer_2" data-name="Layer 2"><g id="Layer_1-2" data-name="Layer 1"><path d="M110.94,62.61q0,19,0,38a3.4,3.4,0,0,1-1.09,2.73c-2.3,2.17-4.46,4.49-6.77,6.66a3.55,3.55,0,0,1-2.2.94q-38.34.06-76.66,0a3.28,3.28,0,0,1-2.06-.88c-2.38-2.25-4.71-4.57-6.95-7a3.55,3.55,0,0,1-.93-2.21q-.06-38.25,0-76.49a3.56,3.56,0,0,1,.92-2.22q3.36-3.59,7-7a3.61,3.61,0,0,1,2.23-.89q38.25-.06,76.49,0a3.59,3.59,0,0,1,2.21.93c2.34,2.2,4.63,4.48,6.83,6.83a3.88,3.88,0,0,1,1,2.37c0,12.72,0,25.44,0,38.16m-20.76-33a6.13,6.13,0,1,0,6.15-6.07,6.07,6.07,0,0,0-6.15,6.07M28.91,101.68a6.13,6.13,0,1,0-6.1-6.09,6,6,0,0,0,6.1,6.09" fill="url(#linear-gradient)"/><path d="M114.06,50.13V44.64c3,0,6-.1,9,0,1.46.07,2.15,1.25,2.2,2.66a2.72,2.72,0,0,1-2.74,2.77c-1.49.09-3,0-4.48,0h-4" fill="url(#linear-gradient-2)"/><path d="M114.1,54.71c2.9,0,5.6-.05,8.3,0a2.78,2.78,0,0,1,2.87,2.83,2.71,2.71,0,0,1-3,2.67c-2.69,0-5.39,0-8.2,0Z" fill="url(#linear-gradient-3)"/><path d="M60.22,114.1c0,2.9,0,5.65,0,8.39a2.61,2.61,0,0,1-2.65,2.77,2.72,2.72,0,0,1-2.82-2.67c-.1-1.54,0-3.1,0-4.65V114.1Z" fill="url(#linear-gradient-4)"/><path d="M114.07,80.64V75.2c3,0,6-.12,8.93,0,1.49.09,2.27,1.28,2.24,2.8a2.53,2.53,0,0,1-2.68,2.57c-2.8,0-5.6,0-8.49,0" fill="url(#linear-gradient-5)"/><path d="M114.06,70.51V65c3,0,5.92-.06,8.84,0a2.58,2.58,0,0,1,2.35,2.72,2.67,2.67,0,0,1-2.58,2.72c-2.81.1-5.62,0-8.61,0" fill="url(#linear-gradient-6)"/><path d="M114.07,29.72V24.26c3.07,0,6.09-.12,9.1,0,1.45.08,2.08,1.33,2.06,2.74a2.63,2.63,0,0,1-2.66,2.63c-2.07.11-4.14,0-6.21,0h-2.29" fill="url(#linear-gradient-7)"/><path d="M114.08,95.53c2.93,0,5.74-.08,8.54,0a2.75,2.75,0,0,1-.19,5.49c-2.75.06-5.5,0-8.35,0Z" fill="url(#linear-gradient-8)"/><path d="M44.62,114.05H50c0,3.07.15,6.09-.06,9.09-.1,1.47-1.37,2.22-2.89,2.08A2.36,2.36,0,0,1,44.65,123c-.11-2.91,0-5.83,0-8.91" fill="url(#linear-gradient-9)"/><path d="M114.06,90.9V85.4c3,0,5.93-.06,8.84,0a2.59,2.59,0,0,1,2.34,2.74,2.67,2.67,0,0,1-2.59,2.71c-2.8.08-5.61,0-8.59,0" fill="url(#linear-gradient-10)"/><path d="M24.17,114.08h5.5c0,3,.11,5.88,0,8.79a2.56,2.56,0,0,1-2.87,2.37,2.55,2.55,0,0,1-2.55-2.7c-.07-2.18,0-4.36,0-6.54v-1.92" fill="url(#linear-gradient-11)"/><path d="M114,39.82V34.36c3,0,6-.12,8.94.06a2.46,2.46,0,0,1,2.26,2.8,2.4,2.4,0,0,1-2.3,2.57c-2.91.12-5.84,0-8.9,0" fill="url(#linear-gradient-12)"/><path d="M65,114.07h5.49c0,3,.09,5.89,0,8.8a2.61,2.61,0,0,1-2.88,2.38,2.64,2.64,0,0,1-2.56-2.7c0-2.76,0-5.51,0-8.48" fill="url(#linear-gradient-13)"/><path d="M29.73,11.17H24.22c0-3-.07-5.91,0-8.82A2.48,2.48,0,0,1,26.94,0a2.67,2.67,0,0,1,2.75,2.72c.1,1.9,0,3.8,0,5.69v2.76" fill="url(#linear-gradient-14)"/><path d="M85.38,114.08h5.49c0,3,.09,5.92,0,8.84a2.57,2.57,0,0,1-2.92,2.31,2.5,2.5,0,0,1-2.51-2.57c-.08-2.8,0-5.61,0-8.58" fill="url(#linear-gradient-15)"/><path d="M11.15,75.15v5.43c-3.06,0-6.08.12-9.09-.06C.64,80.43,0,79.22,0,77.78a2.5,2.5,0,0,1,2.48-2.6c2.85-.13,5.71,0,8.66,0" fill="url(#linear-gradient-16)"/><path d="M70.5,11.17H65c0-3-.08-6,0-9A2.55,2.55,0,0,1,67.87,0a2.64,2.64,0,0,1,2.61,2.69c.08,2.75,0,5.5,0,8.48" fill="url(#linear-gradient-17)"/><path d="M75.1,11.12c0-2.87-.06-5.56,0-8.26A2.7,2.7,0,0,1,77.92,0a2.63,2.63,0,0,1,2.71,2.9c.06,2.69,0,5.38,0,8.22Z" fill="url(#linear-gradient-18)"/><path d="M11.11,101.07c-2.85,0-5.55,0-8.25,0A2.61,2.61,0,0,1,0,98.48a2.68,2.68,0,0,1,2.72-2.93c2.75-.1,5.5,0,8.39,0Z" fill="url(#linear-gradient-19)"/><path d="M34.32,114.08h5.49c0,3,.07,5.92,0,8.83a2.54,2.54,0,0,1-2.72,2.33,2.64,2.64,0,0,1-2.72-2.57c-.1-2.8,0-5.61,0-8.59" fill="url(#linear-gradient-20)"/><path d="M11.19,85.46v5.38c-3.06,0-6.08.12-9.08-.06A2.37,2.37,0,0,1,0,88.22c0-1.4.66-2.6,1.93-2.69,3.06-.21,6.15-.07,9.25-.07" fill="url(#linear-gradient-21)"/><path d="M75.09,114.05h5.42c0,3.15.14,6.28-.11,9.39-.06.66-1.48,1.51-2.4,1.73a2.16,2.16,0,0,1-2.62-1.7,15.88,15.88,0,0,1-.28-3.24c0-2,0-4,0-6.18" fill="url(#linear-gradient-22)"/><path d="M39.84,11.18h-5.5c0-3-.09-5.91,0-8.81a2.73,2.73,0,0,1,5.44.34c.06,2.75,0,5.5,0,8.47" fill="url(#linear-gradient-23)"/><path d="M90.9,11.18H85.41c0-3-.09-6,0-9A2.54,2.54,0,0,1,88.28,0a2.7,2.7,0,0,1,2.6,2.69c.05.63,0,1.27,0,1.9v6.58" fill="url(#linear-gradient-24)"/><path d="M101,11.17h-5.4c0-3-.11-6,.05-9C95.76.69,97-.06,98.48,0A2.42,2.42,0,0,1,101,2.53c.07,2.81,0,5.62,0,8.64" fill="url(#linear-gradient-25)"/><path d="M11.15,24.2v5.48c-3,0-5.88.1-8.78,0A2.58,2.58,0,0,1,0,26.77a2.55,2.55,0,0,1,2.68-2.56c2.75-.06,5.5,0,8.47,0" fill="url(#linear-gradient-26)"/><path d="M11.16,34.33v5.49c-3,0-6,.07-8.95,0A2.52,2.52,0,0,1,0,37a2.63,2.63,0,0,1,2.67-2.61c2.75-.07,5.5,0,8.48,0" fill="url(#linear-gradient-27)"/><path d="M101,114.13c0,3,.07,5.88,0,8.79a2.46,2.46,0,0,1-2.7,2.32,2.58,2.58,0,0,1-2.69-2.58c-.12-2.79,0-5.6,0-8.53Z" fill="url(#linear-gradient-28)"/><path d="M11.16,65v5.49c-3,0-5.9.09-8.81,0A2.55,2.55,0,0,1,0,67.55,2.45,2.45,0,0,1,2.54,65c2.81-.07,5.62,0,8.62,0" fill="url(#linear-gradient-29)"/><path d="M50.11,11.17H44.63c0-3.06-.07-6,0-9A2.54,2.54,0,0,1,47.51,0a2.66,2.66,0,0,1,2.58,2.72c.08,2.74,0,5.49,0,8.44" fill="url(#linear-gradient-30)"/><path d="M60.13,11.15h-5.4c0-3-.09-5.82,0-8.67a2.73,2.73,0,0,1,5.45.28c0,2.52,0,5.05,0,7.58,0,.22,0,.44-.09.81" fill="url(#linear-gradient-31)"/><path d="M11.14,54.74v5.45c-3,0-6.05.13-9.06-.06C.68,60.05,0,58.85,0,57.4a2.48,2.48,0,0,1,2.45-2.62c2.85-.14,5.71,0,8.67,0" fill="url(#linear-gradient-32)"/><path d="M11.16,44.61v5.48c-3,0-5.9.1-8.8-.05A2.56,2.56,0,0,1,0,47.16,2.57,2.57,0,0,1,2.7,44.62c2.75,0,5.5,0,8.46,0" fill="url(#linear-gradient-33)"/></g></g></svg>