<svg xmlns="http://www.w3.org/2000/svg" viewBox="0 0 388.04 388.02" style="fill: white"><title>Asset 9</title><g id="Layer_2" data-name="Layer 2"><g id="Layer_1-2" data-name="Layer 1"><path d="M194,388c-27.92,0-55.85.12-83.78,0C46.4,387.63.31,341.42.12,277.48q-.25-83.27,0-166.55C.28,46.43,46.37.29,110.83.11Q194.1-.1,277.38.12C341.78.3,387.79,46.5,388,111.08q.19,82.77,0,165.54c-.13,65.14-46.13,111.14-111.22,111.34C249.14,388,221.54,388,194,388Zm.49-353.55c-28.93,0-57.87-.21-86.8,0-41.08.36-72.95,32.05-73.15,73.1q-.43,86.3,0,172.59c.19,41.59,32.08,73.26,73.85,73.43q85.79.35,171.58,0c41.73-.17,73.49-31.9,73.67-73.6q.38-85.79,0-171.58c-.17-42.25-31.94-73.69-74.37-74C251,34.27,222.7,34.41,194.44,34.42Z"/><path d="M193.91,293.86c-55.31-.08-100.13-45.23-99.71-100.45A99.88,99.88,0,0,1,194.14,94.2c55.3.08,100.14,45.24,99.72,100.45A99.88,99.88,0,0,1,193.91,293.86Zm.2-34.67c36.59,0,65.12-28.65,65.08-65.25s-28.65-65.11-65.25-65.07-65.11,28.64-65.07,65.24S157.51,259.23,194.11,259.19Z"/><path d="M323.36,90.45A25.19,25.19,0,0,1,273,90.26c-.1-13.81,12.07-25.78,25.82-25.41C312.19,65.21,323.54,77.05,323.36,90.45Z"/></g></g></svg>