<svg xmlns="http://www.w3.org/2000/svg" xmlns:xlink="http://www.w3.org/1999/xlink" viewBox="0 0 102.23 112.54"><defs><linearGradient id="linear-gradient" y1="27.68" x2="102.23" y2="27.68" gradientUnits="userSpaceOnUse"><stop offset="0.27" stop-color="#1caba7"/><stop offset="1" stop-color="#104a4b"/></linearGradient><linearGradient id="linear-gradient-2" x1="39.28" y1="1.4" x2="62.07" y2="1.4" xlink:href="#linear-gradient"/><linearGradient id="linear-gradient-3" x1="3.39" y1="82.28" x2="99.09" y2="82.28" xlink:href="#linear-gradient"/><linearGradient id="linear-gradient-4" x1="75.35" y1="50.81" x2="79.37" y2="50.81" xlink:href="#linear-gradient"/><linearGradient id="linear-gradient-5" x1="75.35" y1="47.36" x2="79.37" y2="47.36" xlink:href="#linear-gradient"/><linearGradient id="linear-gradient-6" x1="75.35" y1="56.89" x2="79.37" y2="56.89" xlink:href="#linear-gradient"/><linearGradient id="linear-gradient-7" x1="23" y1="50.81" x2="27.01" y2="50.81" xlink:href="#linear-gradient"/><linearGradient id="linear-gradient-8" x1="23" y1="47.36" x2="27.01" y2="47.36" xlink:href="#linear-gradient"/><linearGradient id="linear-gradient-9" x1="23" y1="56.89" x2="27.01" y2="56.89" xlink:href="#linear-gradient"/><linearGradient id="linear-gradient-10" x1="18.86" y1="82.3" x2="83.51" y2="82.3" xlink:href="#linear-gradient"/><linearGradient id="linear-gradient-11" x1="56.39" y1="70.32" x2="78.06" y2="70.32" xlink:href="#linear-gradient"/><linearGradient id="linear-gradient-12" x1="24.46" y1="70.32" x2="46.14" y2="70.32" xlink:href="#linear-gradient"/><linearGradient id="linear-gradient-13" x1="56.39" y1="94.32" x2="78.06" y2="94.32" xlink:href="#linear-gradient"/><linearGradient id="linear-gradient-14" x1="24.46" y1="94.32" x2="46.14" y2="94.32" xlink:href="#linear-gradient"/><linearGradient id="linear-gradient-15" x1="93.74" y1="80.83" x2="101.14" y2="80.83" xlink:href="#linear-gradient"/><linearGradient id="linear-gradient-16" x1="91.22" y1="80.86" x2="99.01" y2="80.86" xlink:href="#linear-gradient"/><linearGradient id="linear-gradient-17" x1="1.38" y1="80.82" x2="8.62" y2="80.82" xlink:href="#linear-gradient"/><linearGradient id="linear-gradient-18" x1="3.47" y1="80.85" x2="11.3" y2="80.85" xlink:href="#linear-gradient"/></defs><title>Asset 9</title><g id="Layer_2" data-name="Layer 2"><g id="Layer_1-2" data-name="Layer 1"><path d="M3.77,49.59H21.68V45.74a1.94,1.94,0,0,1,1.93-1.93H26.4a1.94,1.94,0,0,1,1.93,1.93v3.85H74V45.74A1.93,1.93,0,0,1,76,43.81h2.8a1.94,1.94,0,0,1,1.93,1.93v3.85H98.46a3.77,3.77,0,0,0,3.77-3.77V35.93a3.77,3.77,0,0,0-1.1-2.67L78,10.13A14.86,14.86,0,0,0,67.48,5.78H34.75a14.84,14.84,0,0,0-10.51,4.35L1.1,33.26A3.81,3.81,0,0,0,0,35.93v9.89a3.77,3.77,0,0,0,3.77,3.77M74.1,22.3h6.68V33.17H74.1ZM57.94,15.49h6.69V26.36H57.94Zm-20,0h6.68V26.36H37.9ZM21.74,22.3h6.68V33.17H21.74Z" fill="url(#linear-gradient)"/><path d="M58.07.6a5.85,5.85,0,0,0-2.7-.6H46a5.88,5.88,0,0,0-2.7.6l-4,2.19H62.07Z" fill="url(#linear-gradient-2)"/><path d="M78.76,63.07H76A1.92,1.92,0,0,1,74,61.15V52H28.33v9.12a1.93,1.93,0,0,1-1.93,1.92H23.61a1.93,1.93,0,0,1-1.93-1.92V52h-.57A12.67,12.67,0,0,0,8.93,61.18a4,4,0,0,1,3.68,4V96.56a4,4,0,0,1-4,4H4a3.49,3.49,0,0,1-.65,0,12,12,0,0,0,12,12.06H87.08a12,12,0,0,0,12-12.05,4.08,4.08,0,0,1-.61,0h-4.6a4,4,0,0,1-4-4V65.15a4,4,0,0,1,3.54-4A12.69,12.69,0,0,0,81.26,52h-.57v9.12a1.93,1.93,0,0,1-1.93,1.92m6.07,8.51V93H79.38v3.89H55.07V93H47.45v3.89H23.15V93H17.54V71.58h5.61V67.75h24.3v3.83h7.62V67.75H79.38v3.83Z" fill="url(#linear-gradient-3)"/><rect x="75.35" y="49.59" width="4.02" height="2.44" fill="url(#linear-gradient-4)"/><path d="M79.37,45.74a.61.61,0,0,0-.61-.61H76a.61.61,0,0,0-.61.61v3.85h4Z" fill="url(#linear-gradient-5)"/><path d="M76,61.76h2.8a.61.61,0,0,0,.61-.61V52h-4v9.13a.61.61,0,0,0,.61.61" fill="url(#linear-gradient-6)"/><rect x="23" y="49.59" width="4.02" height="2.44" fill="url(#linear-gradient-7)"/><path d="M26.4,45.13H23.61a.61.61,0,0,0-.61.61v3.85h4V45.74a.61.61,0,0,0-.61-.61" fill="url(#linear-gradient-8)"/><path d="M23,61.15a.61.61,0,0,0,.61.61H26.4a.61.61,0,0,0,.61-.61V52H23Z" fill="url(#linear-gradient-9)"/><polygon points="47.45 72.97 23.15 72.97 23.15 72.89 18.86 72.89 18.86 91.72 23.15 91.72 23.15 91.7 47.45 91.7 47.45 91.72 55.07 91.72 55.07 91.7 79.38 91.7 79.38 91.72 83.51 91.72 83.51 72.89 79.38 72.89 79.38 72.97 55.07 72.97 55.07 72.89 47.45 72.89 47.45 72.97" fill="url(#linear-gradient-10)"/><rect x="56.39" y="69.06" width="21.68" height="2.52" fill="url(#linear-gradient-11)"/><rect x="24.46" y="69.06" width="21.68" height="2.52" fill="url(#linear-gradient-12)"/><rect x="56.39" y="93.03" width="21.68" height="2.58" fill="url(#linear-gradient-13)"/><rect x="24.46" y="93.03" width="21.68" height="2.58" fill="url(#linear-gradient-14)"/><path d="M99,98.78c0,.13,0,.26.05.39a2.66,2.66,0,0,0,2.13-2.61V65.15a2.66,2.66,0,0,0-2.66-2.66H93.74a12.25,12.25,0,0,1,.2,2.2Z" fill="url(#linear-gradient-15)"/><path d="M91.22,65.15V96.56a2.67,2.67,0,0,0,2.66,2.66h4.6a3.07,3.07,0,0,0,.53,0c0-.13,0-.26-.05-.39l-5-34.08a12.44,12.44,0,0,0-.2-2.21,2.67,2.67,0,0,0-2.52,2.66" fill="url(#linear-gradient-16)"/><path d="M8.43,64.7a13.45,13.45,0,0,1,.19-2.21H4a2.66,2.66,0,0,0-2.66,2.66V96.56a2.68,2.68,0,0,0,2.09,2.6c0-.11,0-.23,0-.34Z" fill="url(#linear-gradient-17)"/><path d="M8.64,99.22a2.66,2.66,0,0,0,2.66-2.66V65.15a2.66,2.66,0,0,0-2.66-2.66h0a13.45,13.45,0,0,0-.19,2.21L3.51,98.82c0,.11,0,.22,0,.34a2.62,2.62,0,0,0,.57.06Z" fill="url(#linear-gradient-18)"/></g></g></svg>