<svg xmlns="http://www.w3.org/2000/svg" xmlns:xlink="http://www.w3.org/1999/xlink" viewBox="0 0 1280 720"><defs><clipPath id="clip-path"><path d="M657.37,219.09a66.42,66.42,0,0,0-8.94-4.16,74.66,74.66,0,0,0-21.17-4.67,70,70,0,0,0-8.3-.15c-1.7.07-3.38.21-4.22.27-2.85.31-4.84.6-6.77,1a58.27,58.27,0,0,0-6,1.45,49.33,49.33,0,0,0-11.57,5.07,37,37,0,0,0-8.4,6.89,2.54,2.54,0,0,0-.44,2.92,4.21,4.21,0,0,0,3.14,2.36,4,4,0,0,0,3.74-.88c.29-.26.55-.55.83-.82a33.33,33.33,0,0,1,10.15-6.61,48.23,48.23,0,0,1,13.27-3.46,61.74,61.74,0,0,1,11.81-.3,59.26,59.26,0,0,1,25.27,7.52,7.38,7.38,0,0,0,5,.73c2.32-.42,3.88-1.46,4.47-3.08a2.89,2.89,0,0,0,.16-1.65,3.87,3.87,0,0,0-2.09-2.4" fill="none"/></clipPath><linearGradient id="linear-gradient" x1="-6226.68" y1="2538.94" x2="-6226.02" y2="2538.94" gradientTransform="matrix(85.2, 0, 0, -85.2, 531116.68, 216544.55)" gradientUnits="userSpaceOnUse"><stop offset="0" stop-color="#fff"/><stop offset="1" stop-color="#d7ecf1"/></linearGradient><clipPath id="clip-path-2"><path d="M645.65,230a45.35,45.35,0,0,0-7.2-3.52A53.39,53.39,0,0,0,614.9,223c-.71.09-2.09.25-3.45.45a37.63,37.63,0,0,0-5.7,1.32,30.59,30.59,0,0,0-13.18,7.74,2.43,2.43,0,0,0-.56,2.68,4.8,4.8,0,0,0,4.56,2.69,4,4,0,0,0,2.72-1,21.62,21.62,0,0,1,3.08-2.44,27.84,27.84,0,0,1,12-4.12,37.09,37.09,0,0,1,6.85-.17,38.74,38.74,0,0,1,17.5,5.46,7,7,0,0,0,5,.78c2-.4,3.29-1.33,3.72-2.76a2.55,2.55,0,0,0,.08-1.36,3.67,3.67,0,0,0-1.9-2.28" fill="none"/></clipPath><linearGradient id="linear-gradient-2" x1="-6224.83" y1="2514.65" x2="-6224.17" y2="2514.65" gradientTransform="matrix(59.56, 0, 0, -59.56, 371373.98, 150013.99)" xlink:href="#linear-gradient"/><clipPath id="clip-path-3"><path d="M635.19,239.48a30.53,30.53,0,0,0-17.61-4.78,28.15,28.15,0,0,0-4.28.5,19,19,0,0,0-10.07,5,2.34,2.34,0,0,0-.48,2.81,5,5,0,0,0,4.12,2.48,4.48,4.48,0,0,0,3.55-1.09,12,12,0,0,1,7.59-2.88,17.42,17.42,0,0,1,6.34.79,15.69,15.69,0,0,1,4.17,2,6.67,6.67,0,0,0,3.51,1.11c2.92.13,5.25-1.56,4.87-3.6,0,0,0-.05,0-.07a3.52,3.52,0,0,0-1.69-2.22" fill="none"/></clipPath><linearGradient id="linear-gradient-3" x1="-6220.95" y1="2463.66" x2="-6220.29" y2="2463.66" gradientTransform="matrix(36.5, 0, 0, -36.5, 227688.03, 90171.19)" xlink:href="#linear-gradient"/><clipPath id="clip-path-4"><path d="M619.55,246.31c-3,0-5.07,1.73-4.69,3.83s3,3.8,6,3.86,5.21-1.62,4.88-3.76l0-.16c-.45-2.09-3.18-3.77-6.15-3.77" fill="none"/></clipPath><linearGradient id="linear-gradient-4" x1="-6202.75" y1="2224.14" x2="-6202.09" y2="2224.14" gradientTransform="matrix(12.95, 0, 0, -12.95, 80939.67, 29051.89)" xlink:href="#linear-gradient"/></defs><title>Asset 3</title><g id="Layer_2" data-name="Layer 2"><g id="Layer_1-2" data-name="Layer 1"><rect width="1280" height="720" fill="none"/><g clip-path="url(#clip-path)"><rect x="581.35" y="188.14" width="76.7" height="66.29" transform="matrix(0.66, -0.76, 0.76, 0.66, 46.44, 544.35)" fill="url(#linear-gradient)"/></g><g clip-path="url(#clip-path-2)"><rect x="591.4" y="207.23" width="55.72" height="48.77" transform="translate(38.49 547.58) rotate(-49.05)" fill="url(#linear-gradient-2)"/></g><g clip-path="url(#clip-path-3)"><rect x="601.54" y="225.26" width="35.87" height="32.1" transform="translate(31.23 551.08) rotate(-49.05)" fill="url(#linear-gradient-3)"/></g><g clip-path="url(#clip-path-4)"><rect x="613.26" y="243.33" width="13.99" height="13.68" transform="translate(24.81 554.73) rotate(-49.05)" fill="url(#linear-gradient-4)"/></g></g></g></svg>