<svg xmlns="http://www.w3.org/2000/svg" xmlns:xlink="http://www.w3.org/1999/xlink" viewBox="0 0 1280 720"><defs><linearGradient id="linear-gradient" x1="53.95" y1="372.19" x2="155.91" y2="372.19" gradientTransform="matrix(0.79, 0.62, -0.62, 0.79, 286.69, 18.16)" gradientUnits="userSpaceOnUse"><stop offset="0" stop-color="#1caba7"/><stop offset="1" stop-color="#104a4b"/></linearGradient><linearGradient id="linear-gradient-2" x1="78.95" y1="383.3" x2="97.54" y2="383.3" xlink:href="#linear-gradient"/><linearGradient id="linear-gradient-3" x1="118.41" y1="351.17" x2="135.03" y2="351.17" xlink:href="#linear-gradient"/></defs><title>Asset 7</title><g id="Layer_2" data-name="Layer 2"><g id="Layer_1-2" data-name="Layer 1"><rect width="1280" height="720" fill="none"/><path d="M89.59,380.31l-2.24-7c0-.55,0-1.1,0-1.66-2-18.44,11.92-27.78,30.45-22.88,8.13,2.15,15.23,6.82,21.9,12.55,1.39,1.19,2.75,2.43,4.27,3.78a13.91,13.91,0,0,1,.49-1.7c1.29-2.91,2.28-6,3.89-8.46,3.57-5.45,9.67-6.65,17.48-4.33,9.06,2.7,16.84,8.32,22.75,18,5.13,8.37,5.59,15.56,3.39,21.83-2.36,6.71-7.7,9.67-16.27,8-7-1.38-13.85-5.5-20.49-11.27-1.49-1.29-2.93-2.67-4.42-4-.84,2.88-1.59,5.77-2.52,8.62-3,9.31-10.51,13.64-21.9,13.06-12.33-.63-23.78-6.23-32.63-18-1.55-2.07-2.75-4.29-4.12-6.44M126.35,394c6.85-.53,10.59-2.74,12.43-7.62a106.73,106.73,0,0,0,3.2-11.56,2.47,2.47,0,0,0-.69-1.77c-3.88-3.4-7.74-6.93-11.87-10.08a29,29,0,0,0-18.8-5.91c-7.88.18-11.21,5.34-11.76,12.57s3.37,13.67,10.6,18.94A26.8,26.8,0,0,0,126.35,394m37.35-36.3a8.67,8.67,0,0,0-6.11,2.06c-3.52,3-4.68,7.83-5.43,13.17a2.36,2.36,0,0,0,.58,1.48c5.25,6,11,11.05,17.57,13.75,9.64,3.95,16.13-.26,15.57-9.33a18.39,18.39,0,0,0-2.71-8.5c-4.29-7.14-12.5-12.51-19.47-12.63" fill="url(#linear-gradient)"/><path d="M110.74,376.63c-.51-1.48-1-2.76-1.46-4.19l19.41-.48c.5,1.33,1,2.58,1.48,4l-19.43.71" fill="url(#linear-gradient-2)"/><path d="M170.65,370.17l2-.05,1.93,0,2,4.58-3.86.15,2.1,4.88-4,.22c-.69-1.61-1.32-3.11-2.06-4.84l-4.08.16-2-4.85,4-.09c-.68-1.62-1.3-3.07-2-4.64l3.95,0,2,4.55" fill="url(#linear-gradient-3)"/></g></g></svg>