<svg xmlns="http://www.w3.org/2000/svg" xmlns:xlink="http://www.w3.org/1999/xlink" viewBox="0 0 1280 720"><defs><clipPath id="clip-path"><rect x="794.66" y="464.97" width="25.84" height="87.94" fill="none"/></clipPath><clipPath id="clip-path-2"><path d="M794.66,487.92l1.1-.28a27.32,27.32,0,0,0,8.55-3.92A30.73,30.73,0,0,0,808.9,480a30.32,30.32,0,0,0,5.08-6.72,23,23,0,0,0,2.1-5c.24-.87.68-2.93.77-3.23.08.26.1,27,.1,27L814,490.32s-4.37,2-5.73,4.43a4.12,4.12,0,0,0-.34,3.33,1.32,1.32,0,0,0,.71.88,3.16,3.16,0,0,1,.54.31,1.74,1.74,0,0,0,1.65.18c.75-.24,1.22,1.16,1.8.62s1.18-1.18,1.72-1.81a22.9,22.9,0,0,1,2.81-2.93,3.87,3.87,0,0,0,1.44-1.94.88.88,0,0,1,.49.52,6.61,6.61,0,0,1,.84,3,10.51,10.51,0,0,1-.36,2.25s-.76-.69-.9-.83c-.92-.62-1.36-.43-2.15.3a2.16,2.16,0,0,0,.23,2.65c.15.17.64,1,.77,1.18l-.6.4c0,9.05,0,17,0,26,0,.36,0,.71,0,1.1a31,31,0,0,0,3.45.18s0,14.09,0,16.64a7.37,7.37,0,0,1-.74,3.25,10.9,10.9,0,0,1-1.34,2.11,1.18,1.18,0,0,1-1,.47c-1,0-2.08,0-3.12,0-5.38,0-19.63.23-19.63.23s0-64.47,0-65" fill="none"/></clipPath><filter id="luminosity-noclip" x="793.12" y="-8920.76" width="28.94" height="32766" filterUnits="userSpaceOnUse" color-interpolation-filters="sRGB"><feFlood flood-color="#fff" result="bg"/><feBlend in="SourceGraphic" in2="bg"/></filter><mask id="mask" x="793.12" y="-8920.76" width="28.94" height="32766" maskUnits="userSpaceOnUse"><g filter="url(#luminosity-noclip)"/></mask><linearGradient id="linear-gradient" x1="-5983.62" y1="2689.77" x2="-5982.62" y2="2689.77" gradientTransform="matrix(0, 19.43, 19.43, 0, -51444.34, 116729.26)" gradientUnits="userSpaceOnUse"><stop offset="0" stop-color="#231f20"/><stop offset="0.67" stop-color="#bab8b9"/><stop offset="1" stop-color="#fff"/></linearGradient><linearGradient id="linear-gradient-2" x1="-6287.27" y1="2475.18" x2="-6286.27" y2="2475.18" gradientTransform="matrix(0, -38.61, -38.61, 0, 96325.28, -242187.7)" gradientUnits="userSpaceOnUse"><stop offset="0" stop-color="#fff"/><stop offset="1"/></linearGradient><filter id="luminosity-noclip-2" x="793.12" y="464.51" width="28.94" height="88.85" filterUnits="userSpaceOnUse" color-interpolation-filters="sRGB"><feFlood flood-color="#fff" result="bg"/><feBlend in="SourceGraphic" in2="bg"/></filter><mask id="mask-2" x="793.12" y="464.51" width="28.94" height="88.85" maskUnits="userSpaceOnUse"><g clip-path="url(#clip-path)" filter="url(#luminosity-noclip-2)"><g style="isolation:isolate"><g clip-path="url(#clip-path-2)"><g mask="url(#mask)"><rect x="763.4" y="495.24" width="88.38" height="27.39" transform="translate(284.56 1307.47) rotate(-88.99)" fill="url(#linear-gradient)" style="mix-blend-mode:multiply"/></g></g></g></g></mask><clipPath id="clip-path-3"><rect x="794.66" y="464.97" width="25.3" height="88" fill="none"/></clipPath><clipPath id="clip-path-5"><rect x="787.35" y="473.52" width="7.11" height="6.34" fill="none"/></clipPath><clipPath id="clip-path-6"><rect x="787.48" y="472.93" width="5.11" height="4.28" fill="none"/></clipPath><clipPath id="clip-path-7"><rect x="788.95" y="475.06" width="1.22" height="1.07" fill="none"/></clipPath><clipPath id="clip-path-8"><rect x="789.45" y="475.06" width="0.22" height="0.05" fill="none"/></clipPath><clipPath id="clip-path-9"><rect x="789.67" y="475.07" width="0.22" height="0.04" fill="none"/></clipPath><clipPath id="clip-path-10"><rect x="790.47" y="475.93" width="1.16" height="1" fill="none"/></clipPath><clipPath id="clip-path-11"><polygon points="739.42 518.53 777.67 543.34 777.74 513.82 739.42 518.53" fill="none"/></clipPath><mask id="mask-3" x="726.67" y="497.01" width="67.4" height="67.4" maskUnits="userSpaceOnUse"><rect x="736.36" y="506.71" width="48.02" height="48.01" transform="translate(-126.07 802.82) rotate(-51.98)" fill="url(#linear-gradient-2)"/></mask><linearGradient id="linear-gradient-3" x1="-6287.27" y1="2475.18" x2="-6286.27" y2="2475.18" gradientTransform="matrix(0, -38.61, -38.61, 0, 96325.28, -242187.7)" gradientUnits="userSpaceOnUse"><stop offset="0" stop-color="#1caba7"/><stop offset="1" stop-color="#2584c6"/></linearGradient></defs><title>Asset 9</title><g style="isolation:isolate"><g id="Layer_2" data-name="Layer 2"><g id="Layer_1-2" data-name="Layer 1"><rect width="1280" height="720" fill="none"/><path d="M807.64,501.48h0c-1.72-1-2.56-3.5-.63-6.57a12,12,0,0,1,5.39-4.59,2.09,2.09,0,0,1,1.63,0l3.27,1.89a5.72,5.72,0,0,1,2.3,7c-.22-.21-1.09-1-1.26-1.11a.75.75,0,0,0-.64-.15,2.71,2.71,0,0,0-1.7,2.93c.15.47.57.55,1.51,1.56a5.59,5.59,0,0,1-6.63,1l-3.24-1.87" fill="#3c4b56"/><path d="M817,538.88v2.6a6.84,6.84,0,0,1-.78,3.28h0a9.55,9.55,0,0,1-1.68,2.31c-8.36,8.37-28.46,7.37-34.94-.74a7.6,7.6,0,0,1-1.81-4.75v-2.74a7.54,7.54,0,0,0,1.81,4.75c6.48,8.12,26.58,9.11,34.94.75a9.75,9.75,0,0,0,1.68-2.31h0a7,7,0,0,0,.78-3.15" fill="#f5f6f6"/><path d="M817,517.44v21.44a7,7,0,0,1-.78,3.15h0a9.75,9.75,0,0,1-1.68,2.31c-8.36,8.36-28.46,7.37-34.94-.75a7.54,7.54,0,0,1-1.81-4.75V517.27c0,3.22,2.35,5.88,5.18,7.66,7.56,4.74,20.43,4.88,28.29.34,3-1.73,5.66-4.46,5.74-7.83" fill="#5ea2a5"/><path d="M817.06,501.93h0l-.83-.74c-.87-.86.38-3.23,1.55-3.31a.77.77,0,0,1,.57.16c.12.12.69.62.82.73-1.1-.87-3.18,2.11-2.11,3.15" fill="#3e7948"/><path d="M789,503.08c0,5.84.09,6.48-.21,7.37a3.47,3.47,0,0,1-4.37,2.24v3.89a17,17,0,0,1-1.73-1v-3.9c-2-1.81-3-5.31-3-8v-6c.26.32.54.61.84.92v-4.33a15.08,15.08,0,0,0,1.4,1.19v4.32a18.84,18.84,0,0,0,3.45,2v-4.32c.64.29,1.35.57,2.05.81v4.32c.51.17,1.06.34,1.59.49m-2.22,5.35v-4.07a18.58,18.58,0,0,1-5.88-3.39c0,3.83,0,4.08,0,4.22.06,2.09,1.34,4.9,3.33,5.41a2,2,0,0,0,2.54-2.17" fill="#67c4c4"/><path d="M786.73,504.36v4.07a2,2,0,0,1-2.54,2.17c-2-.51-3.27-3.32-3.33-5.41,0-.14,0-.39,0-4.23a18.61,18.61,0,0,0,5.88,3.4" fill="#dfe3e7"/><path d="M817,517v2.6a6.84,6.84,0,0,1-.78,3.28h0a9.55,9.55,0,0,1-1.68,2.31c-8.36,8.37-28.46,7.37-34.94-.73a7.63,7.63,0,0,1-1.81-4.76V517a7.58,7.58,0,0,0,1.81,4.76c6.48,8.11,26.58,9.1,34.94.75a10,10,0,0,0,1.68-2.32h0A7,7,0,0,0,817,517" fill="#f5f6f6"/><path d="M777.73,517.27v-41.4h0c0,6,3.23,10.26,8.31,11.83,13,4,30.88-10.53,30.9-24.9h0V492l-2.85-1.65a2,2,0,0,0-1.7,0,12,12,0,0,0-5.39,4.59c-1.93,3.07-1.09,5.59.63,6.57h0l3.24,1.87a5.5,5.5,0,0,0,6.07-.5v14.3c0,3.58-2.63,6.32-5.74,8.12-7.86,4.53-20.73,4.4-28.29-.34-2.83-1.77-5.19-4.44-5.19-7.66M789,509.08v-6c-.53-.14-1.08-.31-1.59-.48v-4.32c-.7-.24-1.41-.52-2.05-.81v4.32a18.84,18.84,0,0,1-3.45-2v-4.32a13.88,13.88,0,0,1-1.4-1.19v4.33c-.3-.31-.58-.6-.84-.92v6c0,2.71,1,6.21,3,8v3.9a19.08,19.08,0,0,0,1.73,1v-3.89a3.53,3.53,0,0,0,4.58-3.61" fill="#dfe3e7"/><path d="M809.62,451.31c6.93,2.76,8.77,10.26,6.25,17.7-4.18,12.36-19,22-29.82,18.69-5.08-1.57-8.31-5.87-8.31-11.83,0-15,19.11-29.63,31.88-24.56m3.85,18.18c4-10.54-2.12-18.72-12.9-16.79-8.31,1.48-16.35,8.51-19.35,16.48-3.55,9.44.95,17.36,10.38,17.06,8.72-.28,18.43-7.62,21.87-16.75" fill="#f5f6f6"/><path d="M791.09,487c-4.25,0-7.74-1.65-9.81-4.66-2.4-3.46-2.68-8.36-.77-13.44,3.13-8.33,11.51-15.46,19.92-17a17.91,17.91,0,0,1,3.2-.3c4.23,0,7.7,1.66,9.79,4.68,2.39,3.45,2.67,8.35.76,13.43-3.53,9.38-13.44,16.95-22.55,17.24h-.54" fill="#f5f6f6"/><path d="M813.47,469.49C810,478.62,800.33,486,791.6,486.24c-9.46.3-13.92-7.66-10.38-17.06,3-8,11-15,19.35-16.48,10.81-1.93,16.85,6.28,12.9,16.79m-5.61-3a1.4,1.4,0,0,0,0-2c-.09-.06.22.11-4.91-2.85-4.18-2.41-4-2.36-4.35-2.43a2.06,2.06,0,0,0-1.75.53c-.31.28-4,5-4.26,5.26a2.34,2.34,0,0,0-.68,1.24,1.21,1.21,0,0,0,.57,1.22c.12.07,8.78,5.07,8.9,5.12a2,2,0,0,0,2.2-.72c.07-.07,4.3-5.35,4.32-5.36" fill="#dfe3e7"/><path d="M801.9,473.47a2.1,2.1,0,0,1-.84-.16c-.23-.09-8.94-5.13-9-5.17a1.94,1.94,0,0,1-.93-2c.09-.71.13-.75,2.08-3.16.6-.76,1.41-1.76,2.49-3.11l.06-.07a6,6,0,0,1,.54-.62,2.91,2.91,0,0,1,1.93-.77,2.73,2.73,0,0,1,.5.05c.36.08.36.08,2.11,1.1l3.09,1.79c4.27,2.46,4.27,2.46,4.36,2.54a2.11,2.11,0,0,1,.18,3.06s-4.26,5.31-4.34,5.41a3,3,0,0,1-2.22,1.08" fill="#060304"/><path d="M799.93,459.94a3,3,0,0,0-1.09.64,4.93,4.93,0,0,0-.54.61l-.06.08c-1.08,1.35-1.89,2.35-2.5,3.1-2,2.41-2,2.46-2.08,3.16a2.13,2.13,0,0,0,0,.67l-1.24-.71a1.19,1.19,0,0,1-.57-1.22c.09-.65,0-.39,4.42-5.89a5.07,5.07,0,0,1,.52-.61,2.06,2.06,0,0,1,1.75-.53c.21,0,.22,0,1.37.7" fill="#99cecf"/><path d="M802.19,461.26a2.91,2.91,0,0,0-1.63.75,5,5,0,0,0-.54.62l-.06.07-2.5,3.11c-2,2.41-2,2.45-2.08,3.16a1.48,1.48,0,0,0,0,.21l-1.69-1a2.13,2.13,0,0,1,0-.67c.1-.7.13-.75,2.08-3.16.61-.75,1.42-1.75,2.5-3.1l.06-.08a4.93,4.93,0,0,1,.54-.61,3,3,0,0,1,1.09-.64l2.26,1.32" fill="#67c4c4"/><path d="M804.76,462.74h-.06a2.73,2.73,0,0,0-.5-.05,2.91,2.91,0,0,0-1.92.77,5,5,0,0,0-.55.61l-.06.08c-1.07,1.35-1.88,2.35-2.49,3.1-1.74,2.15-2,2.42-2,2.95l-1.76-1a1.48,1.48,0,0,1,0-.21c.09-.71.13-.75,2.08-3.16l2.5-3.11.06-.07a5,5,0,0,1,.54-.62,2.91,2.91,0,0,1,1.63-.75l.72.41,1.85,1.07" fill="#5ea2a5"/><path d="M805.82,463.35a3.06,3.06,0,0,0-1.33.7,5,5,0,0,0-.54.62l-.06.08-2.5,3.1c-1.94,2.41-2,2.46-2.08,3.16a2.08,2.08,0,0,0,0,.43c-.66-.37-1.41-.81-2.17-1.25.09-.53.31-.8,2-2.95.61-.75,1.42-1.75,2.49-3.1l.06-.08a5,5,0,0,1,.55-.61,2.91,2.91,0,0,1,1.92-.77,2.07,2.07,0,0,1,.5.05h.06l1.06.61" fill="#22494e"/><path d="M807.85,466.53l-4.31,5.36a2,2,0,0,1-2.2.72l-2-1.17h0a2.08,2.08,0,0,1,0-.43c.1-.7.13-.75,2.08-3.16l2.5-3.1.06-.08a5,5,0,0,1,.54-.62,3.17,3.17,0,0,1,1.33-.7c2.09,1.21,1.93,1.12,2,1.17a1.39,1.39,0,0,1,0,2" fill="#173a46"/><path d="M790.69,477.05a.47.47,0,0,1-.13-.11v0c-.22-.31,0-.78.45-.91a.5.5,0,0,1,.71.32.75.75,0,0,0-1,.72" fill="#173a46"/><path d="M792.58,474a2.06,2.06,0,0,0-1-.51c-2.07-.47-4.42,1.86-3.58,3.71,1,1,2.8.61,3.86-.47a2.49,2.49,0,0,0,.7-2.73M790,475.91a.72.72,0,0,1-.88.24h0c-.39-.23-.2-.85.32-1a.93.93,0,0,1,.23,0,.38.38,0,0,1,.21,0,.13.13,0,0,1,.09.05l.1.1a.25.25,0,0,1,.06.17.49.49,0,0,1-.12.48m.59,1,0,0a.46.46,0,0,1-.09-.31A.76.76,0,0,1,791,476a.55.55,0,0,1,.53.06l0,0a.36.36,0,0,1,.15.24c.1.55-.75,1-1.11.62" fill="#99cecf"/><path d="M790.69,477.05a.75.75,0,0,1,1-.72.75.75,0,0,1-1,.72" fill="#22494e"/><path d="M789.44,475.11a.5.5,0,0,1,.71.33.75.75,0,0,0-1,.71c-.41-.23-.21-.87.31-1" fill="#173a46"/><path d="M789.13,476.15h0a.75.75,0,0,1,1-.71.75.75,0,0,1-1,.71" fill="#22494e"/><path d="M788.5,474.72a2.43,2.43,0,0,0-.48,2.48,2.22,2.22,0,0,1,.1-3c1.36-1.69,3.81-1.67,4.46-.19-1.05-1-3-.59-4.08.72" fill="#173a46"/><path d="M787.3,477.32c1,1.35,3.35,1.39,5-.28a3,3,0,0,0,.7-3.61c.59.84.69,1,.73,1.05.92,1.33.16,3.19-1.15,4.13a3.62,3.62,0,0,1-3.68.53,2.3,2.3,0,0,1-.81-.7l-.78-1.12Z" fill="#173a46"/><path d="M793,473.43c1.24,1.94-.94,4.89-3.6,4.88a2.46,2.46,0,0,1-2.09-1v0a2.83,2.83,0,0,1,.39-3.37c1.5-1.86,4.27-2.12,5.31-.5m-3.46,4.34c2,0,3.79-2.14,3.05-3.77s-3.12-1.47-4.46.19-.53,3.57,1.41,3.58" fill="#99cecf"/><g mask="url(#mask-2)"><g clip-path="url(#clip-path-3)"><g opacity="0.31"><g clip-path="url(#clip-path-3)"><path d="M794.66,487.92l1.1-.28a27.32,27.32,0,0,0,8.55-3.92A29.71,29.71,0,0,0,808.9,480a30,30,0,0,0,5.08-6.71,23.15,23.15,0,0,0,2.1-5c.24-.87.68-2.93.77-3.23.08.26.1,27,.1,27L814,490.32s-4.37,2-5.73,4.43a4.12,4.12,0,0,0-.34,3.33,1.32,1.32,0,0,0,.71.88,3.16,3.16,0,0,1,.54.31,1.74,1.74,0,0,0,1.65.18c.75-.24,1.22,1.16,1.8.62s1.18-1.18,1.72-1.81a22.9,22.9,0,0,1,2.81-2.93,3.87,3.87,0,0,0,1.44-1.94.86.86,0,0,1,.49.52,6.61,6.61,0,0,1,.84,3,10.51,10.51,0,0,1-.36,2.25l-.9-.83c-.92-.62-1.36-.43-2.15.3a2.16,2.16,0,0,0,.23,2.65c.16.17.64,1,.77,1.18l-.6.4q.07,12.95,0,26,0,6.32,0,12.59c-2.15,5-4.93,7.48-7.18,8.76-5.95,3.37-15.11,2.67-15.11,2.67s0-64.47,0-65" fill="#002d3d"/></g></g></g></g><g opacity="0.5"><g clip-path="url(#clip-path-5)"><path d="M787.35,477.41c1.38,1.74,3.68.85,4.67,0a3.13,3.13,0,0,0,1-3.91,9.94,9.94,0,0,1,.7.94,2.61,2.61,0,0,1,.36,3.12,3.55,3.55,0,0,1-1.3,1.6c-3.2,1.49-3.94.2-4.62-.57,0,0-.84-1.17-.83-1.2" fill="#173a46"/></g></g><g opacity="0.42"><g clip-path="url(#clip-path-6)"><path d="M788.1,477.21a1.6,1.6,0,0,1-.58-1.62,3.4,3.4,0,0,1,3.15-2.66,2,2,0,0,1,1.92,1.05,2,2,0,0,1-.4,0,3.21,3.21,0,0,0-3.68,1.5,4.14,4.14,0,0,0-.35,1.08,5.8,5.8,0,0,0-.06.68" fill="#173a46"/></g></g><g opacity="0.2" style="mix-blend-mode:multiply"><g clip-path="url(#clip-path-7)"><path d="M790.17,475.42l-1,.71c-.38-.22-.2-.85.33-1a.56.56,0,0,1,.44,0,.1.1,0,0,1,.08.05.32.32,0,0,1,.1.1.77.77,0,0,1,.07.16" fill="#060304"/></g></g><g style="mix-blend-mode:multiply"><g clip-path="url(#clip-path-8)"><path d="M789.67,475.07a.57.57,0,0,0-.22,0l.17-.05h0" fill="#a3886f"/></g></g><g style="mix-blend-mode:multiply"><g clip-path="url(#clip-path-9)"><path d="M789.88,475.11a.38.38,0,0,0-.21,0,.65.65,0,0,1,.21,0" fill="#a3886f"/></g></g><g opacity="0.2" style="mix-blend-mode:multiply"><g clip-path="url(#clip-path-10)"><path d="M791.63,476.26l-1,.67,0,0a.49.49,0,0,1-.09-.32A.76.76,0,0,1,791,476a.54.54,0,0,1,.54.06l0,0a.47.47,0,0,1,.07.19" fill="#060304"/></g></g><g clip-path="url(#clip-path-11)"><g mask="url(#mask-3)"><rect x="736.36" y="506.71" width="48.02" height="48.01" transform="translate(-126.07 802.82) rotate(-51.98)" fill="url(#linear-gradient-3)"/></g></g></g></g></g></svg>