<svg xmlns="http://www.w3.org/2000/svg" xmlns:xlink="http://www.w3.org/1999/xlink" viewBox="0 0 1280 720"><defs><clipPath id="clip-path"><polygon points="927.43 523.5 977.48 638.66 1064.64 529.98 970.48 479.44 927.43 523.5" fill="none"/></clipPath><linearGradient id="linear-gradient" x1="-6259.09" y1="2586.11" x2="-6258.31" y2="2586.11" gradientTransform="matrix(-177.12, 0, 0, 177.12, -1107600.65, -457504.25)" gradientUnits="userSpaceOnUse"><stop offset="0" stop-color="#1baba7"/><stop offset="1" stop-color="#d7ecf1"/></linearGradient><clipPath id="clip-path-2"><polygon points="1017.15 540.31 1064.64 595.41 1137.16 495.33 1064.64 471.11 1017.15 540.31" fill="none"/></clipPath><linearGradient id="linear-gradient-2" x1="-6263.4" y1="2585.69" x2="-6262.62" y2="2585.69" gradientTransform="matrix(-154.38, 0, 0, 154.38, -965821.6, -398633.74)" gradientUnits="userSpaceOnUse"><stop offset="0" stop-color="#fff"/><stop offset="1" stop-color="#1ea4b7"/></linearGradient><clipPath id="clip-path-3"><polygon points="1046.54 516.45 1060.57 527.13 1045.28 551.53 1089.97 539.85 1069.7 526.07 1091.91 494.55 1046.54 516.45" fill="none"/></clipPath><linearGradient id="linear-gradient-3" x1="-6279.25" y1="2528.07" x2="-6278.47" y2="2528.07" gradientTransform="matrix(0, -63.06, -63.06, 0, 160489.32, -395420.74)" gradientUnits="userSpaceOnUse"><stop offset="0" stop-color="#1caba7"/><stop offset="1" stop-color="#104a4b"/></linearGradient></defs><title>Asset 5</title><g id="Layer_2" data-name="Layer 2"><g id="Layer_1-2" data-name="Layer 1"><rect width="1280" height="720" fill="none"/><g clip-path="url(#clip-path)"><rect x="925.73" y="477.98" width="140.6" height="162.13" transform="translate(-11.77 21.52) rotate(-1.23)" fill="url(#linear-gradient)"/></g><g clip-path="url(#clip-path-2)"><rect x="1014.15" y="468.22" width="126.01" height="130.08" transform="translate(-25.03 53.87) rotate(-2.83)" fill="url(#linear-gradient-2)"/></g><g clip-path="url(#clip-path-3)"><rect x="1031.9" y="487.64" width="73.4" height="70.8" transform="translate(29.36 1102.24) rotate(-55.21)" fill="url(#linear-gradient-3)"/></g></g></g></svg>