<svg xmlns="http://www.w3.org/2000/svg" xmlns:xlink="http://www.w3.org/1999/xlink" viewBox="0 0 1280 720"><defs><clipPath id="clip-path"><path d="M192.75,198.71,231,241.37l13.1-10.78-28.79-52-22.57,20.12" fill="none"/></clipPath><linearGradient id="linear-gradient" x1="-6241.43" y1="2631.84" x2="-6240.98" y2="2631.84" gradientTransform="matrix(-131.11, 0, 0, 131.11, -818058.83, -344848.58)" gradientUnits="userSpaceOnUse"><stop offset="0" stop-color="#fff"/><stop offset="1" stop-color="#d7ecf1"/></linearGradient></defs><title>Asset 1</title><g id="Layer_2" data-name="Layer 2"><g id="Layer_1-2" data-name="Layer 1"><rect width="1280" height="720" fill="none"/><g clip-path="url(#clip-path)"><rect x="189.44" y="181.54" width="59.61" height="55.66" transform="translate(-21.37 393.78) rotate(-81.14)" fill="url(#linear-gradient)"/></g><path d="M222.84,228.62l-.12-.25q-5.81-10.87-11.69-22-11.68-22-23.7-44.75c-5.69-10.79-11.67-21.75-17.14-33.07-.23-.48-.44-1-.68-1.46,0-.08-.08-.3-.15-.37a1.1,1.1,0,0,1-.06-.18v0a2.45,2.45,0,0,0-.3-.61c-1.28-1.94-3.21-1.33-4.55-.53-3.2,1.9-6.16,4.23-9.16,6.44-11.86,8.73-23.7,17.9-35.71,27.23-12.79,9.93-25.76,20.09-38.79,30.62-3.85,3.11-7.76,6.22-11.5,9.51a16.41,16.41,0,0,0-2,1.95c-1.36,1.69-.27,3.25,1.22,4.64,3.28,3,7,5.77,10.49,8.51q9.41,7.35,18.74,14.41,22.55,17.16,44.09,33.22,14.16,10.61,27.87,20.79l1.37,1a2.51,2.51,0,0,0,3.37-.31l16.7-18.13,25.79-28,5.6-6.08.16-.17,0,0,.08-.1a1.94,1.94,0,0,0,.08-2.36M71.87,202s0,0,0,0,0-.1.08.06l0,0" fill="#0d4a4b"/><path d="M71.91,202l0,0s0,0,0,0,0-.1.08.06" fill="#20140a"/><path d="M71.91,202l0,0s0,0,0,0S71.79,201.87,71.91,202Z" fill="none" stroke="#939598" stroke-miterlimit="10"/><path d="M222.84,228.62l-.12-.25q-5.81-10.87-11.69-22-11.68-22-23.7-44.75c-3.93-7.47-8-15-12-22.7l-21.32,18.16-23.75,20.23c-1.07.91-2.7.37-3.69-.59L121.77,172l-8.34-8.12c-10.78,8.41-21.69,17-32.64,25.84-3.85,3.11-7.76,6.22-11.5,9.51a16.41,16.41,0,0,0-2,1.95c-1.36,1.69-.27,3.25,1.22,4.64,3.28,3,7,5.77,10.49,8.51q9.41,7.35,18.74,14.41,22.55,17.16,44.09,33.22,14.16,10.61,27.87,20.79l1.37,1a2.51,2.51,0,0,0,3.37-.31l16.7-18.13,25.79-28,5.6-6.08.16-.17,0,0,.08-.1a1.94,1.94,0,0,0,.08-2.36M71.87,202s0,0,0,0,0-.1.08.06l0,0" fill="#1baba7"/><path d="M120.18,200.4,100.05,219c-1.87,1.72,1.5,4.36,3.35,2.65l20-18.56c1.81-1.67-1.44-4.33-3.24-2.67" fill="#d7ecf2"/><path d="M119.4,217.75l-10,9.33c-1.84,1.72,1.48,4.31,3.3,2.61l9.93-9.32c1.81-1.7-1.44-4.3-3.24-2.62" fill="#d7ecf2"/><path d="M127.94,215.29l9.73-9.13c1.77-1.65-1.4-4.27-3.16-2.63l-9.78,9.14c-1.81,1.68,1.43,4.29,3.21,2.62" fill="#d7ecf2"/><path d="M127.18,223.84l-9.86,9.3c-1.82,1.72,1.45,4.28,3.24,2.58l9.82-9.3c1.78-1.69-1.42-4.26-3.2-2.58" fill="#d7ecf2"/><path d="M135.61,221.36l9.61-9.1c1.75-1.66-1.38-4.24-3.12-2.6l-9.66,9.11c-1.78,1.68,1.41,4.26,3.17,2.59" fill="#d7ecf2"/><path d="M149.25,221.39c1.73-1.65-1.37-4.2-3.1-2.55l-18.68,17.79-2.68,2.55c-1.8,1.72,1.43,4.24,3.2,2.54l18.66-17.84,2.6-2.49" fill="#d7ecf2"/><path d="M154.94,216.12l18-17.19,2.5-2.39c1.67-1.6-1.3-4.17-3-2.58l-18,17.14-2.58,2.46c-1.73,1.65,1.36,4.2,3.07,2.56" fill="#d7ecf2"/><path d="M178.19,193.42a1.55,1.55,0,0,0,1.95-1.24,1.87,1.87,0,0,0-1.44-2,1.53,1.53,0,0,0-1.95,1.23,1.87,1.87,0,0,0,1.44,2" fill="#d7ecf2"/><path d="M152.76,223.83q-9.16,8.8-18.49,17.75l-2.65,2.55c-1.78,1.71,1.41,4.2,3.16,2.51l18.46-17.8,2.57-2.48c1.71-1.65-1.35-4.17-3.05-2.53" fill="#d7ecf2"/><path d="M178.77,199,161,216.12l-2.55,2.45c-1.71,1.64,1.34,4.16,3,2.53L179.22,204l2.48-2.39c1.65-1.59-1.28-4.13-2.93-2.55" fill="#d7ecf2"/><path d="M186.66,197l5.29-5.44c1.57-1.63-1.31-4.18-2.88-2.57-1.76,1.82-3.53,3.63-5.31,5.46-1.6,1.64,1.32,4.18,2.9,2.55" fill="#d7ecf2"/><path d="M148.94,246.28l-5.61,5.82c-1.68,1.75,1.43,4.2,3.1,2.45l5.58-5.81c1.66-1.73-1.41-4.19-3.07-2.46" fill="#d7ecf2"/><path d="M164.33,231.29,155,240.35c-1.72,1.67,1.34,4.13,3,2.47q4.65-4.55,9.26-9c1.68-1.65-1.31-4.12-3-2.48" fill="#d7ecf2"/><path d="M169.25,228.15a1.8,1.8,0,0,0,1.46,2,1.61,1.61,0,0,0,2-1.29,1.81,1.81,0,0,0-1.45-2,1.63,1.63,0,0,0-2,1.29" fill="#d7ecf2"/><path d="M183.43,230.21c1.64-1.62-1.27-4.06-2.9-2.46l-17.7,17.38-2.53,2.49c-1.7,1.67,1.33,4.1,3,2.44q8.9-8.79,17.66-17.42l2.46-2.43" fill="#d7ecf2"/><path d="M169.69,254.78l17.48-17.38L189.6,235c1.63-1.61-1.25-4-2.87-2.43l-17.51,17.34-2.5,2.48c-1.69,1.67,1.3,4.06,3,2.41" fill="#d7ecf2"/><path d="M176.5,254.16l-9.1,9.09c-1.68,1.68,1.3,4,3,2.38l9.06-9.09c1.65-1.65-1.28-4-2.92-2.38" fill="#d7ecf2"/><path d="M187.54,256.17l-18,18.16c-1.67,1.68,1.29,4,2.94,2.34l17.93-18.14c1.61-1.63-1.25-4-2.86-2.36" fill="#d7ecf2"/><polygon points="83.44 208.04 82.27 209.01 76.8 203.68 77.98 202.7 80.18 204.86 82.64 202.81 80.45 200.66 81.62 199.68 87.05 205.02 85.89 205.99 83.73 203.87 81.27 205.92 83.44 208.04" fill="#d7ecf2"/><polygon points="82.58 198.16 83.72 197.22 89.53 202.95 88.4 203.89 82.58 198.16" fill="#d7ecf2"/><polygon points="84.99 196.16 86.12 195.23 91.91 200.96 90.78 201.9 84.99 196.16" fill="#d7ecf2"/><polygon points="96.54 197.27 97.53 198.26 93.83 201.37 92.82 200.37 96.54 197.27" fill="#d7ecf2"/><path d="M97,195.34l-5.57-3.78,1.16-1,5.06,3.54,0,0h0a0,0,0,0,0,0,0l0,0-2.6-4a1.77,1.77,0,0,1-.37-1,1,1,0,0,1,.37-.71,1.11,1.11,0,0,1,.81-.27,2.26,2.26,0,0,1,1,.42l4.14,2.74,0,0s0,0,0,0,0,0,0,0,0,0,0,0l-3.4-4.9,1.14-1,3.58,5.35a1.56,1.56,0,0,1,.32.94,1,1,0,0,1-.4.75,1.27,1.27,0,0,1-.83.29,1.78,1.78,0,0,1-1-.32l-4.32-2.84h0a0,0,0,0,0,0,0s0,0,0,0L99,193.76a1.39,1.39,0,0,1,.24.89,1,1,0,0,1-.39.73,1.27,1.27,0,0,1-.85.3,1.84,1.84,0,0,1-1-.34" fill="#d7ecf2"/><path d="M105.64,189.5l-1.11.92-2.22-2.25a3.13,3.13,0,0,1-.71-1.06,1.69,1.69,0,0,1,0-1.11,2.08,2.08,0,0,1,.72-1,3.71,3.71,0,0,1,.41-.28,2.27,2.27,0,0,1,.44-.18l1.08,1.1a1.2,1.2,0,0,0-.43.13,1.48,1.48,0,0,0-.35.21.78.78,0,0,0-.32.63,1.08,1.08,0,0,0,.36.71Z" fill="#d7ecf2"/><polygon points="101.81 182.24 102.92 181.32 108.55 187.06 107.46 187.98 101.81 182.24" fill="#d7ecf2"/><path d="M112.43,182.21a2.92,2.92,0,0,0-.77-1.28L108,177.14l-1.1.91,2,2.08a2.25,2.25,0,0,0-.44,0,2.13,2.13,0,0,0-1,.45,2.37,2.37,0,0,0-.78,1.13,2.16,2.16,0,0,0,0,1.33,3.17,3.17,0,0,0,.81,1.29,3.14,3.14,0,0,0,1.29.81,3.21,3.21,0,0,0,1.47.13,2.63,2.63,0,0,0,1.33-.59,2.42,2.42,0,0,0,.79-1.16,2.38,2.38,0,0,0,0-1.35m-1.49.89a1.07,1.07,0,0,1-.37.56,1.19,1.19,0,0,1-.63.27,1.58,1.58,0,0,1-.71-.08,1.52,1.52,0,0,1-.61-.39,1.49,1.49,0,0,1-.38-.62,1.23,1.23,0,0,1,0-.66,1.1,1.1,0,0,1,.37-.55,1.28,1.28,0,0,1,.64-.28,1.41,1.41,0,0,1,.7.08,1.53,1.53,0,0,1,.63.41,1.38,1.38,0,0,1,.36.6,1.23,1.23,0,0,1,0,.66" fill="#d7ecf2"/><path d="M115.18,181.69a.93.93,0,0,1-.43.19,1,1,0,0,1-.49,0,1.21,1.21,0,0,1-.43-.27,1,1,0,0,1-.25-.43.86.86,0,0,1,0-.45.71.71,0,0,1,.25-.38.77.77,0,0,1,.43-.19,1,1,0,0,1,.48,0,1.07,1.07,0,0,1,.43.28.91.91,0,0,1,.25.42.77.77,0,0,1,0,.45.75.75,0,0,1-.25.38" fill="#d7ecf2"/><path d="M118.56,178.89a2.51,2.51,0,0,1-1,.51,3.07,3.07,0,0,1-2.14-.21,3.29,3.29,0,0,1-.94-.67,3.13,3.13,0,0,1-.62-.94,2.66,2.66,0,0,1-.21-1,2.3,2.3,0,0,1,.22-1,2.12,2.12,0,0,1,.65-.82,2.71,2.71,0,0,1,1.28-.57,2.66,2.66,0,0,1,1.53.24l-.4,1.25a1.62,1.62,0,0,0-.74-.12,1.08,1.08,0,0,0-.64.27,1.05,1.05,0,0,0-.36.53,1.3,1.3,0,0,0,0,.65,1.55,1.55,0,0,0,.37.62,1.64,1.64,0,0,0,.61.39,1.67,1.67,0,0,0,.7.09,1.17,1.17,0,0,0,.61-.27.92.92,0,0,0,.35-.56,1.29,1.29,0,0,0,0-.7l1.38-.23a2.19,2.19,0,0,1,.08,1.44,2.44,2.44,0,0,1-.75,1.11" fill="#d7ecf2"/></g></g></svg>