<svg xmlns="http://www.w3.org/2000/svg" xmlns:xlink="http://www.w3.org/1999/xlink" viewBox="0 0 1280 720"><defs><linearGradient id="linear-gradient" x1="-6215.53" y1="2552.01" x2="-6215.08" y2="2552.01" gradientTransform="matrix(0, -115.68, -115.68, 0, 295643.05, -718382.3)" gradientUnits="userSpaceOnUse"><stop offset="0" stop-color="#fff"/><stop offset="1"/></linearGradient><clipPath id="clip-path"><polygon points="420.33 609.73 437.11 609.73 450.36 557.8 442.14 557.73 420.33 609.73" fill="none"/></clipPath><mask id="mask" x="420.34" y="557.73" width="30.03" height="51.99" maskUnits="userSpaceOnUse"><rect x="420.34" y="557.73" width="30.03" height="51.99" fill="url(#linear-gradient)"/></mask><linearGradient id="linear-gradient-2" x1="-6215.53" y1="2552.01" x2="-6215.08" y2="2552.01" gradientTransform="matrix(0, -115.68, -115.68, 0, 295643.05, -718382.3)" gradientUnits="userSpaceOnUse"><stop offset="0" stop-color="#1caba7"/><stop offset="1" stop-color="#2584c6"/></linearGradient><clipPath id="clip-path-2"><path d="M417.44,498.5a7.12,7.12,0,0,0-2.84.85,4.49,4.49,0,0,0-2.25,2.34,4.3,4.3,0,0,0,0,2.25c.33,1.89.63,3.49.87,4.74l8.95,6.15,23.48-3.77,3-7.76-4.76-8.82c-14.06,2.27-24.05,3.83-26.5,4" fill="none"/></clipPath><linearGradient id="linear-gradient-3" x1="-6152.02" y1="2622.31" x2="-6151.45" y2="2622.31" gradientTransform="matrix(63.87, 0, 0, -63.87, 393336.02, 167989.17)" gradientUnits="userSpaceOnUse"><stop offset="0" stop-color="#1caba7"/><stop offset="1" stop-color="#104a4b"/></linearGradient><clipPath id="clip-path-3"><rect x="413.25" y="501.79" width="35.46" height="13.04" fill="none"/></clipPath><clipPath id="clip-path-4"><path d="M449,576.58s7.05-42.82,4.78-55.26-2.45-16.58-2.45-16.58l-2.47-1.19s-5.24,51,.14,73" fill="none"/></clipPath><linearGradient id="linear-gradient-4" x1="-6205.22" y1="2648.22" x2="-6204.65" y2="2648.22" gradientTransform="matrix(0, 90.56, 90.56, 0, -239361.28, 562429.97)" gradientUnits="userSpaceOnUse"><stop offset="0" stop-color="#1baba7"/><stop offset="1" stop-color="#d7ecf1"/></linearGradient><clipPath id="clip-path-5"><path d="M435.26,487.14c9,9.24,11.55,12.62,11.55,12.62l2.76-.29s-24.83-45.47-42-61.14c0,0,18.62,39.56,27.65,48.81" fill="none"/></clipPath><linearGradient id="linear-gradient-5" x1="-6212.26" y1="2632.71" x2="-6211.69" y2="2632.71" gradientTransform="matrix(0, 127.58, 127.58, 0, -335462.27, 793016.49)" xlink:href="#linear-gradient-4"/><clipPath id="clip-path-6"><path d="M461.46,483.16c-6.18,11.25-8.63,14.73-8.63,14.73l.94,2.16s35.15-39.09,45.17-59.67c0,0-31.31,31.53-37.48,42.78" fill="none"/></clipPath><linearGradient id="linear-gradient-6" x1="-6100.56" y1="2858.81" x2="-6099.99" y2="2858.81" gradientTransform="matrix(0, 17.95, 17.95, 0, -50842.87, 109977)" xlink:href="#linear-gradient-4"/><clipPath id="clip-path-7"><path d="M446.61,497.94A7.14,7.14,0,0,0,448,506c2.08,1.85,4.82,1.21,6.11-1.41a7.13,7.13,0,0,0-1.41-8.06,3.87,3.87,0,0,0-2.59-1.06,4,4,0,0,0-3.51,2.44" fill="none"/></clipPath><radialGradient id="radial-gradient" cx="-5675.39" cy="2785.27" r="0.57" gradientTransform="matrix(9.03, 0, 0, -9.03, 51684.97, 25645.32)" gradientUnits="userSpaceOnUse"><stop offset="0" stop-color="#001d2b"/><stop offset="0.98" stop-color="#002d3d"/><stop offset="1" stop-color="#002d3d"/></radialGradient><clipPath id="clip-path-8"><path d="M428.59,511.45q-5.32,47.54-10.66,95.07c1.91,3,5.88,4.91,10.25,5,4.66.11,9-1.86,11.07-5l-3.5-95.07a3.37,3.37,0,0,0-3.14-2.33l-.39,0a3.62,3.62,0,0,0-3.63,2.35" fill="none"/></clipPath><linearGradient id="linear-gradient-7" x1="-6095.92" y1="2642.55" x2="-6095.34" y2="2642.55" gradientTransform="matrix(37.31, 0, 0, -37.31, 227860.88, 99155.99)" gradientUnits="userSpaceOnUse"><stop offset="0" stop-color="#d7ecf1"/><stop offset="1" stop-color="#179490"/></linearGradient></defs><title>Asset 10</title><g id="Layer_2" data-name="Layer 2"><g id="Layer_1-2" data-name="Layer 1"><rect width="1280" height="720" fill="none"/><g clip-path="url(#clip-path)"><g mask="url(#mask)"><rect x="420.34" y="557.73" width="30.03" height="51.99" fill="url(#linear-gradient-2)"/></g></g><g clip-path="url(#clip-path-2)"><rect x="412.12" y="494.48" width="36.58" height="20.35" fill="url(#linear-gradient-3)"/></g><g opacity="0.44"><g clip-path="url(#clip-path-3)"><polygon points="413.25 508.68 447.89 501.79 448.7 503.3 445.68 511.06 422.2 514.83 413.25 508.68" fill="#002d3d"/></g></g><g clip-path="url(#clip-path-4)"><rect x="419.58" y="509.85" width="60.43" height="60.43" transform="translate(-250.14 476.24) rotate(-45)" fill="url(#linear-gradient-4)"/></g><g clip-path="url(#clip-path-5)"><rect x="392.04" y="432.5" width="73.1" height="73.1" transform="translate(-206.14 440.44) rotate(-45)" fill="url(#linear-gradient-5)"/></g><g clip-path="url(#clip-path-6)"><rect x="438.49" y="432.81" width="74.8" height="74.8" transform="translate(-193.11 474.23) rotate(-45)" fill="url(#linear-gradient-6)"/></g><g clip-path="url(#clip-path-7)"><rect x="445.31" y="495.5" width="10.1" height="12.38" fill="url(#radial-gradient)"/></g><g clip-path="url(#clip-path-8)"><rect x="417.93" y="509.1" width="21.32" height="102.55" fill="url(#linear-gradient-7)"/></g></g></g></svg>