<svg xmlns="http://www.w3.org/2000/svg" xmlns:xlink="http://www.w3.org/1999/xlink" viewBox="0 0 1280 720"><defs><linearGradient id="linear-gradient" x1="-6229.15" y1="2589.03" x2="-6228.67" y2="2589.03" gradientTransform="matrix(0, -966.71, -966.71, 0, 2503466.81, -6021150.39)" gradientUnits="userSpaceOnUse"><stop offset="0" stop-color="#fff"/><stop offset="1"/></linearGradient><clipPath id="clip-path"><path d="M327.81,634.83s-17,43.52,27.66,49.82H893.72c1.44.19,19.09,2.26,31.32-11.5,11.29-12.7,8.59-28.36,8.24-30.2Q905.62,582.71,878,522.47l-497.17-1-53,113.38" fill="none"/></clipPath><linearGradient id="linear-gradient-2" x1="-6239.73" y1="2619.9" x2="-6238.92" y2="2619.9" gradientTransform="matrix(0, 201.57, 201.57, 0, -527465.67, 1258255.43)" gradientUnits="userSpaceOnUse"><stop offset="0" stop-color="#1ea4b7"/><stop offset="0.64" stop-color="#1ea4b7"/><stop offset="1" stop-color="#002d3d"/></linearGradient><clipPath id="clip-path-2"><path d="M424.9,511.3s-32.55-2.63-38.85,12.6-43.57,100.79-43.57,100.79-12.08,18.38,28.87,18.38H885.84s34.12,3.15,27.82-17.85L907.48,612s-.7-3.74-7-3.74c0,0-18.43-1.16-18.43-8.86l-23.33-58.8s-1.17-5.13,8.86-5.13c0,0,5.6.46,5.6-2.1l-5.36-11.2s-4.2-11-30.34-11Z" fill="none"/></clipPath><linearGradient id="linear-gradient-3" x1="-6241.78" y1="2625.72" x2="-6240.97" y2="2625.72" gradientTransform="matrix(0, 162.95, 162.95, 0, -427235.3, 1017609.97)" gradientUnits="userSpaceOnUse"><stop offset="0" stop-color="#fff"/><stop offset="1" stop-color="#d7ecf1"/></linearGradient><clipPath id="clip-path-3"><rect x="158.73" y="180.1" width="913.01" height="462.8" fill="none"/></clipPath><clipPath id="clip-path-4"><path d="M354,636.49,158.73,234.58s457.5-122.57,913,0L919,636.49s-3,6.49-19.5,6.39H385.55s-29.27.74-31.51-6.39" fill="none"/></clipPath><mask id="mask" x="158.73" y="112.01" width="913.01" height="531.61" maskUnits="userSpaceOnUse"><rect x="158.73" y="112.01" width="913.01" height="531.61" fill="url(#linear-gradient)"/></mask><linearGradient id="linear-gradient-4" x1="-6229.15" y1="2589.03" x2="-6228.67" y2="2589.03" gradientTransform="matrix(0, -966.71, -966.71, 0, 2503466.49, -6021149.63)" gradientUnits="userSpaceOnUse"><stop offset="0" stop-color="#fff"/><stop offset="1" stop-color="#2584c6"/></linearGradient></defs><title>Asset 8</title><g id="Layer_2" data-name="Layer 2"><g id="Layer_1-2" data-name="Layer 1"><rect width="1280" height="720" fill="none"/><g clip-path="url(#clip-path)"><rect x="310.79" y="521.45" width="625.53" height="165.47" fill="url(#linear-gradient-2)"/></g><path d="M380.28,522.47l-50.4,108.15s-4.2,25.2,32.55,25.2,531.29,3.67,531.29,0,34.12,5.25,32.54-26.78L878,522.47s-13.13-16.27-44.1-14.17l-422.09-.19s-24.47-.73-31.5,14.36" fill="#002534"/><g clip-path="url(#clip-path-2)"><rect x="330.4" y="508.67" width="589.56" height="137.55" fill="url(#linear-gradient-3)"/></g><g opacity="0.42"><g clip-path="url(#clip-path-3)"><g clip-path="url(#clip-path-4)"><g mask="url(#mask)"><rect x="158.73" y="112.01" width="913.01" height="531.61" fill="url(#linear-gradient-4)"/></g></g></g></g></g></g></svg>