<svg xmlns="http://www.w3.org/2000/svg" xmlns:xlink="http://www.w3.org/1999/xlink" viewBox="0 0 103.02 91.85"><defs><linearGradient id="linear-gradient" y1="45.92" x2="103.02" y2="45.92" gradientUnits="userSpaceOnUse"><stop offset="0.27" stop-color="#1caba7"/><stop offset="1" stop-color="#104a4b"/></linearGradient><linearGradient id="linear-gradient-2" x1="41.91" y1="45.94" x2="61.1" y2="45.94" xlink:href="#linear-gradient"/></defs><title>Asset 8</title><g id="Layer_2" data-name="Layer 2"><g id="Layer_1-2" data-name="Layer 1"><path d="M21.59,63.23c-1.74-.58-3.44-1.11-5.11-1.72A39.29,39.29,0,0,1,6,56a17.76,17.76,0,0,1-4.1-4.24,10,10,0,0,1,0-11.69A20,20,0,0,1,7.77,34.6,48.29,48.29,0,0,1,20.1,29.13c.45-.15.92-.28,1.37-.42l.12-.07c-.25-1.14-.51-2.29-.75-3.45a44.17,44.17,0,0,1-1-12A19.31,19.31,0,0,1,21.58,6,9.82,9.82,0,0,1,29,.17a13.29,13.29,0,0,1,5.91.42A29.71,29.71,0,0,1,45,5.86c2.24,1.72,4.37,3.6,6.62,5.46l.34-.32a52.73,52.73,0,0,1,10.5-8A23,23,0,0,1,69.93.2C75.58-.75,80.16,2,82,7.44a25.08,25.08,0,0,1,1.19,8.89,54.33,54.33,0,0,1-1.78,12.09,1.42,1.42,0,0,0,0,.25c1,.32,2.06.63,3.08,1A45,45,0,0,1,96,35.07a20.29,20.29,0,0,1,4.64,4.28,10.17,10.17,0,0,1,0,13.15,22,22,0,0,1-6.37,5.4,53,53,0,0,1-12.36,5.15l-.46.15c.22,1,.46,2,.67,3.07A45.37,45.37,0,0,1,83.18,78.4a17.84,17.84,0,0,1-2.56,8.9,9.77,9.77,0,0,1-9.74,4.49c-3.94-.37-7.35-2.12-10.61-4.21a56,56,0,0,1-8.52-6.9l-.23-.22-.45.4a53.55,53.55,0,0,1-10,7.72,23.35,23.35,0,0,1-8,3.08c-5.7.93-10.09-1.62-12.09-7a24.21,24.21,0,0,1-1.27-9.13,54.61,54.61,0,0,1,1.77-12c0-.08,0-.17,0-.27M51.44,28.8c-3.06.14-6.17.27-9.27.43a.88.88,0,0,0-.54.38,128.86,128.86,0,0,0-9.2,15.89.87.87,0,0,0,0,.87c.93,1.78,1.83,3.57,2.78,5.34a109.17,109.17,0,0,0,6.43,10.55c.11.16.31.36.48.37,1.82.13,3.64.27,5.46.3a128.78,128.78,0,0,0,13-.26,1,1,0,0,0,.83-.47,125,125,0,0,0,9.15-15.92.93.93,0,0,0,0-.75c-1-2-2-4.13-3.19-6.11-1.93-3.3-4-6.53-6-9.79a.88.88,0,0,0-.58-.4c-3.1-.16-6.21-.29-9.37-.43m26-1.15a.94.94,0,0,0,.1-.14c.13-.53.27-1.06.39-1.6a40.57,40.57,0,0,0,1.09-13.84A12.53,12.53,0,0,0,77.27,6.7,5.89,5.89,0,0,0,71.63,4a14.51,14.51,0,0,0-5,1.35,38.29,38.29,0,0,0-9.32,6.19c-1,.88-2,1.79-3,2.67,0,.1,0,.14.06.16A110.09,110.09,0,0,1,63.17,25.2a.92.92,0,0,0,.51.28c.35.07.72.07,1.07.12,2.82.4,5.64.77,8.45,1.21,1.44.22,2.86.56,4.28.84m-23.12,50a2,2,0,0,0,.21.24,53.16,53.16,0,0,0,7.14,5.9,25.28,25.28,0,0,0,7.49,3.69,9.53,9.53,0,0,0,4.18.32A6,6,0,0,0,77.92,84a16.85,16.85,0,0,0,1.33-6.46A41.16,41.16,0,0,0,78.4,68c-.24-1.27-.55-2.53-.83-3.81l-.32,0a109.79,109.79,0,0,1-13.51,2.15,1.06,1.06,0,0,0-.65.39c-1.36,1.77-2.67,3.59-4.07,5.33s-3.09,3.67-4.66,5.52M48.7,14.29l-.12-.16a48.82,48.82,0,0,0-9.92-7.67A17.44,17.44,0,0,0,31.56,4a6,6,0,0,0-6.27,3.47,16.29,16.29,0,0,0-1.53,6.93,36.55,36.55,0,0,0,.53,7.6c.32,1.88.73,3.76,1.1,5.61.15,0,.2.05.24,0a107.53,107.53,0,0,1,12.08-2,5.3,5.3,0,0,0,2-.33c.54-.33.83-1.06,1.24-1.62a106.61,106.61,0,0,1,7.76-9.4m0,63.36c0-.09,0-.11-.05-.12a110.88,110.88,0,0,1-8.82-10.88.76.76,0,0,0-.47-.26c-.37-.07-.75-.07-1.12-.12-3-.43-6-.85-9-1.31-1.27-.2-2.52-.5-3.77-.75a.49.49,0,0,0-.09.15,45.07,45.07,0,0,0-1.57,14.57,14.57,14.57,0,0,0,1.45,5.49,5.92,5.92,0,0,0,5.48,3.47,11.58,11.58,0,0,0,4-.73c5.44-2,9.74-5.62,13.89-9.51M22.62,32.52A47.27,47.27,0,0,0,10,37.89a15.66,15.66,0,0,0-4.93,4.62,5.9,5.9,0,0,0,0,6.86,12.74,12.74,0,0,0,2.77,3c4.37,3.52,9.53,5.36,14.82,7,.06-.13.11-.22.14-.31a107.63,107.63,0,0,1,4.88-12.77,1.13,1.13,0,0,0,0-.77c-.82-2-1.72-4-2.5-6-.89-2.29-1.68-4.63-2.53-7m57.74,0a3.78,3.78,0,0,0-.16.41,104.53,104.53,0,0,1-4.86,12.61,1,1,0,0,0,0,.88c1.3,3.24,2.62,6.48,3.89,9.74.41,1,.72,2.13,1.09,3.23,1.14-.36,2.26-.69,3.36-1.06a39,39,0,0,0,10.54-5.18,13.21,13.21,0,0,0,4-4.34,5.73,5.73,0,0,0,0-5.76,12,12,0,0,0-3.12-3.6c-4.36-3.5-9.5-5.33-14.78-6.93M51.44,74.83a98.53,98.53,0,0,0,6.63-7.94H44.83l6.61,7.94M36.68,29.67,26.42,31.45,30,41.22l6.67-11.55M76.6,31.45,66.34,29.68c2.24,3.89,4.42,7.67,6.66,11.54l3.6-9.77M36.67,62.19l-6.6-11.45a97.46,97.46,0,0,0-3.55,9.7l10.15,1.75M73,50.65c-2.24,3.89-4.42,7.66-6.67,11.55l10.26-1.78c-1.22-3.34-2.4-6.53-3.59-9.77M58.07,25a96.42,96.42,0,0,0-6.57-7.87A97.87,97.87,0,0,0,45,25Z" fill="url(#linear-gradient)"/><path d="M61.1,45.93a9.6,9.6,0,1,1-9.6-9.59,9.64,9.64,0,0,1,9.6,9.59" fill="url(#linear-gradient-2)"/></g></g></svg>