<svg xmlns="http://www.w3.org/2000/svg" viewBox="0 0 87.98 26.58"><title>Asset 1</title><g id="Layer_2" data-name="Layer 2"><g id="Layer_1-2" data-name="Layer 1"><path d="M45.81,16.94a.82.82,0,0,0-.54-.2c-1.81,0-3.62,0-5.43,0-.37,0-.46.13-.46.48,0,2.78,0,5.56,0,8.34,0,.93,0,1-1,1H36.81c-.39,0-.55-.2-.57-.55,0-.12,0-.25,0-.37,0-3.66,0-7.33,0-11,0-.86.15-1,1-1,3.35,0,6.69,0,10,0s6.47-3.9,4.56-7.56a7.93,7.93,0,0,0-1.66-2c0-.08,0-.2,0-.22a11.11,11.11,0,0,0-1-.61,5.59,5.59,0,0,0-2.56-.4.42.42,0,0,1-.49-.18c.8.1,1.38-.37,2-.57.17-.05.4-.13.3-.41s.05-.37.31-.39.57-.09,1-.16C49.38.94,49.14,1,48.94,1a.67.67,0,0,1-.33-.22c-.07-.08.06-.15.11-.21s.23-.06.37,0A7.18,7.18,0,0,0,50.65,1a.79.79,0,0,1,.56.34c.08.09.13.18.27.21a1.92,1.92,0,0,1,1.06.88c.08.13.14.22.29.21s.34.13.47.29c.28.35.44.81.9,1h0c0,.24-.14.6.35.56a7.6,7.6,0,0,1,1,4.76,2.1,2.1,0,0,1-.22,1c0-1,0-2,0-3.06,0-.15,0-.31-.07-.44-.3-.39-.2-.93-.51-1.32-.06-.07-.05-.25-.2-.28s-.21.13-.3.22a1.78,1.78,0,0,0-.47,1.27c0,.25-.19.32-.38.38s-.25-.12-.31-.25-.1-.16-.13-.24-.15-.21-.28-.18-.07.18-.09.28c0,.48.18,1,.16,1.41a8.13,8.13,0,0,1-.46,2.24,6,6,0,0,1-1.6,2.3,4.6,4.6,0,0,1-2.28,1.16,9.29,9.29,0,0,1-2.35.43,3.11,3.11,0,0,0-1,.3.29.29,0,0,0-.2.36,1,1,0,0,1-.43,1c.12.15.25.09.36.1s.25,0,.24.2-.12.15-.23.17-.27-.05-.37.13a2.91,2.91,0,0,0,1,0C45.69,16.47,45.86,16.57,45.81,16.94Z" fill="#002d3d"/><path d="M9.22,25.53c.45-1,.89-2.09,1.34-3.13L14,14.6l2.38-5.41c1.15-2.63,2.3-5.25,3.46-7.88.12-.28.26-.55.38-.82A.76.76,0,0,1,21,0a.77.77,0,0,1,.81.46c.64,1.49,1.31,3,2,4.46l2.91,6.72c.06.15.11.31.16.47-.21,0-.29-.1-.36-.27-.2-.49-.45-1-.64-1.44a4.83,4.83,0,0,0-1.07-1.75c-.12-.12-.2-.21-.36-.18a.36.36,0,0,0-.31.35.9.9,0,0,1-.17.6c-.14.16-.12.52-.4.47s-.11-.35-.16-.53-.07-.25-.23-.22-.23.07-.19.21c.13.36-.07.79.23,1.12a1.23,1.23,0,0,1,.19.91c-.26-.58-.53-1.15-.76-1.73-.35-.89-.81-1.72-1.07-2.64a1,1,0,0,0-.29-1c-.14-.15-.28-.23-.44,0a1.31,1.31,0,0,0-.35,1h0c-.39.52-.86,1-.73,1.75a.08.08,0,0,1,0,.07c-.25,0-.17.22-.18.37a11.7,11.7,0,0,1-.7,1.72c-.73,1.74-1.48,3.47-2.23,5.21-.61.36-.56,1-.7,1.59a.09.09,0,0,1,0,.05c-.3.11-.26.46-.46.63l-.12-.13c-.19-.2-.4-.32-.63-.11s-.19.38.07.58,0,.29-.15.3c-.37,0-.45.18-.38.54s0,.52-.51.65c0-.06,0-.12,0-.18s.09-.38-.13-.43-.3.14-.41.3c-.34.49-.89.83-1,1.5,0,.14-.23.21-.39.16s-.07-.22,0-.34.13-.17,0-.24-.15.09-.23.13c-.42.26,0,.74-.29,1a1.86,1.86,0,0,0-.71.86s0,.06,0,.09c.07.32-.15.52-.3.75a2.05,2.05,0,0,0-.2.39C9.83,24.73,9.82,25.32,9.22,25.53Z" fill="#002d3d"/><path d="M45.81,16.94c0-.37-.12-.47-.47-.45a2.91,2.91,0,0,1-1,0c.1-.18.25-.12.37-.13s.22,0,.23-.17-.1-.19-.24-.2-.24.05-.36-.1a1,1,0,0,0,.43-1,.29.29,0,0,1,.2-.36,3.11,3.11,0,0,1,1-.3,9.29,9.29,0,0,0,2.35-.43,4.6,4.6,0,0,0,2.28-1.16,6,6,0,0,0,1.6-2.3A8.13,8.13,0,0,0,52.71,8c0-.45-.21-.93-.16-1.41,0-.1,0-.24.09-.28s.22,0,.28.18.09.15.13.24.09.31.31.25.37-.13.38-.38a1.78,1.78,0,0,1,.47-1.27c.09-.09.14-.25.3-.22s.14.21.2.28c.31.39.21.93.51,1.32.11.13.07.29.07.44,0,1,0,2,0,3.06a.06.06,0,0,1,0,.07,1.11,1.11,0,0,0-.36,1.1,8.69,8.69,0,0,1-5.56,5.1.19.19,0,0,0-.09.24c.13.33,0,.69.14,1a.77.77,0,0,1-.25.89c-.14-.15,0-.35-.18-.47s-.26-.18-.24,0-.25.55-.22.86c0,.14.06.34-.17.35s-.38-.1-.37-.35-.08-.35-.28-.33-.21.26-.16.4c.11.3-.07.29-.26.29a19.47,19.47,0,0,1-1.21-2c.13-.15,0-.16-.1-.18A.29.29,0,0,1,45.81,16.94Z" fill="#002d3d"/><path d="M29.72,18.78q1.26,2.88,2.5,5.75c.17.39.36.78.49,1.18s-.06.82-.56.82H19.44c0-.24-.14-.26-.33-.26h-.93c1.23-.09,2.46-.09,3.69-.08a.57.57,0,0,0,.61-.41c.22-.5.84-.72,1-1.29,0,0,.06,0,.08,0,.45,0,.83-.41,1.31-.22a.18.18,0,0,0,.26-.11c0-.18-.13-.13-.22-.14s-.21,0-.27,0c-.25-.16-.76,0-.74-.53h3.91c.16,0,.34.06.48-.08s0-.31-.07-.45c-.39-1-.89-2-1.23-3,.08-.09.16-.12.19,0s.07.25.23.21.14-.2.14-.33a.75.75,0,0,0-.09-.25c-.13-.19,0-.28.13-.36s.25,0,.32.14a1.32,1.32,0,0,1,.19.82c-.06,0-.14,0-.14.11l0,0c.1,0,.1-.07.11-.14.36-.32.2-.7.08-1,0-.13-.14-.26,0-.37s.32-.09.38,0c.27.43.52.22.8,0a.73.73,0,0,1,.3-.07h0Z" fill="#002d3d"/><path d="M47.29,19.42c.19,0,.37,0,.26-.29,0-.14-.06-.37.16-.4s.29.13.28.33.15.35.37.35.19-.21.17-.35c0-.31.25-.53.22-.86s.15-.09.24,0,0,.32.18.47a.77.77,0,0,0,.25-.89c-.15-.34,0-.7-.14-1a.19.19,0,0,1,.09-.24,9.8,9.8,0,0,0,1.05,1.94c.73,1.11,1.39,2.27,2.08,3.4.83,1.34,1.63,2.7,2.44,4.05.1.17.25.34.14.54s-.34.1-.51.11c-.79,0-1.58,0-2.36,0a1,1,0,0,1-1-.5C49.92,23.84,48.61,21.63,47.29,19.42Z" fill="#002d3d"/><path d="M79.54,16.83a2.65,2.65,0,0,1,.71-.85c.54-.58,1.13-1.11,1.7-1.66.24-.1.19-.2,0-.31a.93.93,0,0,0-.49-.06H76.06c-.51,0-1,.09-1.42-.36,0-.42,0-.84,0-1.26,0-.14.06-.32-.14-.39v-.35c.21-.06.12-.24.14-.37s.18-.06.18-.17c0-.27,0-.55,0-.82,0-.74.64.32.78-.24,0-.06.12.14.13.24V11.4c0,.15,0,.32.18.36,0,.24-.08.51.08.74l.09.09a.33.33,0,0,0,.25.08H82.9c.14,0,.28,0,.32-.18.35-.23.11-.58.17-.87s0-.38.26-.3.29-.08.29-.28.09-.33.25-.33.13.23.11.34a8.82,8.82,0,0,0,.21,1.77c0,.44.41.66.75.93.65.52,1.13,1.23,1.78,1.75.14.11.23.3.45.27h0l.08.08c.53.53.54.71,0,1.22A8.42,8.42,0,0,1,86.3,18.3c0-.07-.06-.15,0-.21a9.77,9.77,0,0,0,1-1.23.46.46,0,0,0,.09-.41.14.14,0,0,0-.21-.11c-.26.21-.6.12-.91.4-.51.47-1,.94-1.55,1.44-.11.11-.22.26-.32,0a10.59,10.59,0,0,1,1.37-1.39c.24-.24.22-.38,0-.59-.43-.44-.85-.9-1.28-1.35,0-.44-.25-.64-.58-.51a1.69,1.69,0,0,0-.63.39,8.11,8.11,0,0,1-1.53,1.51c-.12-.41-.34-.34-.6-.13s-.25.49-.41.74l-.08-.14c-.21-.45-.32-.46-.66-.1C79.88,16.72,79.76,16.88,79.54,16.83Zm1.2-.74c.09,0,.09-.08.09-.13s0-.13-.08-.13-.09.07-.09.13S80.67,16.08,80.74,16.09Z" fill="#002d3d"/><path d="M72.54,23.72l.11-.1a.59.59,0,0,0,.44-.45h0a.16.16,0,0,0,.17-.1h0l.09-.09h0c.2.12.38.16.56-.07s.33-.24.47-.41.27-.17.37-.09,0,.23-.08.34-.18.13-.16.27c.61.27.43-.3.58-.63.07.27.26.31.38.43L72,26.34a.87.87,0,0,1-.72.21,13,13,0,0,1-7.07-2.19,9,9,0,0,1-2.55-2.28,1.11,1.11,0,0,1-.07-.16c0-.27.07-.61-.35-.68-.09,0-.26,0-.23-.13s0-.41.19-.55.29-.09.34,0c.17.29.47.23.71.33a.47.47,0,0,0,.54.37h0c0,.22,0,.41.31.34a.61.61,0,0,1,.16.09A11.65,11.65,0,0,0,68,24.55a.47.47,0,0,0,.54.35,5.19,5.19,0,0,1,1.64.32c.19.06.44.11.56,0s.34-.36.24-.55a3.35,3.35,0,0,1-.13-1.6A3.26,3.26,0,0,1,71,21.33c.23,0,.17-.2.19-.34s-.06-.31.1-.43a.27.27,0,0,1,.08.27c0,.43.18.47.51.38l.22-.06a17.55,17.55,0,0,1,.1,2.29v.33c0,.08,0,.16.08.19s.17,0,.19-.14l0,0Z" fill="#002d3d"/><path d="M23.9,23.44c0,.55.49.37.74.53.06,0,.18,0,.27,0s.25,0,.22.14a.18.18,0,0,1-.26.11c-.48-.19-.86.18-1.31.22,0,0-.07,0-.08,0-.16.57-.78.79-1,1.29a.57.57,0,0,1-.61.41c-1.23,0-2.46,0-3.69.08h.93c.19,0,.34,0,.33.26H17.79c0-.16-.14-.16-.27-.17a30.19,30.19,0,0,1-4.46-.16,11,11,0,0,0-1.82,0c-.14,0-.3.06-.45-.13a2.57,2.57,0,0,1,1,0,1.39,1.39,0,0,0,1.16-.48c.51-.53,1.35-.61,1.8-1.24h0c.12,0,.26-.06.24-.22s-.15-.13-.24-.18c-.27-.14-.59,0-.86-.12,0-.15.13-.13.2-.13,2.23-.09,4.46.14,6.69-.16A22.74,22.74,0,0,1,23.9,23.44Z" fill="#002d3d"/><path d="M71,21.33a3.26,3.26,0,0,0-.16,1.72,3.35,3.35,0,0,0,.13,1.6c.1.19-.11.41-.24.55s-.37.08-.56,0a5.19,5.19,0,0,0-1.64-.32.47.47,0,0,1-.54-.35c.71.14,1.42.29,2.14.42.53.09.62,0,.62-.52,0-2.24,0-4.49,0-6.74,0-.4-.12-.51-.52-.5h-9c-.82,0-.82,0-.52.79a.85.85,0,0,1,0,.22A2.93,2.93,0,0,0,59.14,18a4.62,4.62,0,0,1-.52-1.53.72.72,0,0,1,.63-.81,2.36,2.36,0,0,1,.46,0H71.2c.86,0,1,.18,1,1,0,2.08,0,4.17,0,6.25a.73.73,0,0,1-.07.48,17.55,17.55,0,0,0-.1-2.29V17.9c-.27.07-.09.33-.36.39a1.2,1.2,0,0,0-.2-.76.18.18,0,0,0-.22-.1.15.15,0,0,0-.13.16A7.3,7.3,0,0,0,71,19.14a1.35,1.35,0,0,1,0,.8A1.81,1.81,0,0,0,71,21.33Z" fill="#002d3d"/><path d="M23.9,23.44a22.74,22.74,0,0,0-3.09,0c-2.23.3-4.46.07-6.69.16-.07,0-.16,0-.2.13.27.12.59,0,.86.12.09.05.22.05.24.18s-.12.18-.24.22h0c-.45.63-1.29.71-1.8,1.24a1.39,1.39,0,0,1-1.16.48,2.57,2.57,0,0,0-1,0c.15.19.31.13.45.13a11,11,0,0,1,1.82,0,30.19,30.19,0,0,0,4.46.16c.13,0,.25,0,.27.17-2.65,0-5.3,0-7.95,0-.67,0-.87-.36-.62-1,.6-.21.61-.8.8-1.27a2.05,2.05,0,0,1,.2-.39c.15-.23.37-.43.3-.75,0,0,0-.06,0-.09a1.86,1.86,0,0,1,.71-.86c.31-.29-.13-.77.29-1,.08,0,.09-.21.23-.13s0,.16,0,.24-.17.27,0,.34.38,0,.39-.16c.07-.67.62-1,1-1.5.11-.16.21-.35.41-.3s.09.28.13.43,0,.12,0,.18c.55-.13.6-.17.51-.65s0-.52.38-.54c.19,0,.37-.14.15-.3s-.31-.38-.07-.58.44-.09.63.11l.12.13v.19c-.26.16-.28.53-.59.67-.09.05-.08.23,0,.34s.19,0,.29,0l-.16.46c-.47.16-.6.44-.42.92h0c-.38.09-.28.39-.28.65a7.47,7.47,0,0,1-.49,1.21c-.19.49-.2.5.33.5,3.19,0,6.37,0,9.56,0h4.65c-.14.14-.32.08-.48.08Z" fill="#002d3d"/><path d="M0,23.07v-7.3c.2,0,.18-.19.17-.32-.08-.83.3-1.62.2-2.46,0,0,0-.06.07-.08s.08.09.1.14-.11.39.15.41a.43.43,0,0,0,.42-.29c0-.12.11-.22.15-.33a.87.87,0,0,1,1.06-.67c.2,0,.22-.12.22-.26q0-.44,0-.87c0-.2.05-.42.26-.41s.1.25.1.38c0,1.49,0,3,0,4.47,0,.16-.06.34.09.47a20.28,20.28,0,0,1,.08,3C3,19,3,19,3,19.05s.07.09.13.09v.28c-.23.39-.37.89-1,.84-.06,0-.14.06-.19.12-.38.45-1,.74-1.07,1.41,0,.19-.19.42-.38.4s-.06-.28-.11-.43a1.7,1.7,0,0,1-.11-.16,4.39,4.39,0,0,0-.07,1.06C.17,22.81.26,23,0,23.07Z" fill="#002d3d"/><path d="M54.2,3.9c-.46-.17-.62-.63-.9-1-.13-.16-.24-.31-.47-.29s-.21-.08-.29-.21a1.92,1.92,0,0,0-1.06-.88c-.14,0-.19-.12-.27-.21A.79.79,0,0,0,50.65,1,7.18,7.18,0,0,1,49.09.52c-.14,0-.25-.1-.37,0s-.18.13-.11.21a.67.67,0,0,0,.33.22c.2.06.44,0,.77.13-.42.07-.7.13-1,.16s-.42.08-.31.39-.13.36-.3.41c-.66.2-1.24.67-2,.57a.42.42,0,0,0,.49.18,5.59,5.59,0,0,1,2.56.4,11.11,11.11,0,0,1,1,.61s0,.14,0,.22a5.93,5.93,0,0,0-2.36-.88c-.08-.26-.3-.16-.46-.16H42.29a17.73,17.73,0,0,1-3.49-.18c-.09,0-.24,0-.26-.11s.14-.13.24-.18c.48-.27,1-.6,1-1.17,0-.4.15-.37.41-.37h2.37c.11,0,.28.09.34-.2H40.11a1.21,1.21,0,0,1,.8-.15c.15,0,.32,0,.41-.14s.36-.23.59-.23h6.93a1.16,1.16,0,0,1,.55.09h0l.48.14c0,.16.17.13.28.13A7.32,7.32,0,0,1,54.2,3.9ZM47.29.75c.28,0,.43.13.58-.07A.55.55,0,0,0,47.29.75Z" fill="#002d3d"/><path d="M84.68,26c-.1.47-.46.59-.86.59-2.81,0-5.61,0-8.42,0-.53,0-.81-.2-.87-.61a.69.69,0,0,1,.74-.86H82.6c.63,0,.63,0,.63-.61,0-1.52,0-3,0-4.55,0-.16,0-.34.07-.49.18.56.18.55.77.31.28-.11.46.07.42.3a14.46,14.46,0,0,0,.18,2.18C84.64,23.47,84.67,24.73,84.68,26Z" fill="#002d3d"/><path d="M76,12.5c-.16-.23,0-.5-.08-.74.1-2.46-.32-4.91-.19-7.37,0-.09.06-.23-.18-.24,0,.38,0,.75,0,1.13,0,.12,0,.25-.17.26s-.18-.13-.19-.26a1.9,1.9,0,0,0-.09-.78,5.36,5.36,0,0,0-.44,1.57c-.05,1.71,0,3.42,0,5.14,0,.13.07.31-.14.37,0-.15,0-.31,0-.46V1.59c0-.79.42-1.13,1.17-.88a12.79,12.79,0,0,1,5.87,3.9,2.83,2.83,0,0,1,.69.95c-.35,0-.53-.32-.68-.55-.25-.39-.64-.4-1-.54a.36.36,0,0,0-.45.1c-.11.18.05.3.13.44.2.34.64.51.66,1,0,0,.09.07.13.11a2.16,2.16,0,0,1,.75,1.39c-.06-.08-.13-.16-.19-.25a12.07,12.07,0,0,0-5-4.53C76,2.46,76,2.47,76,3v9.48Z" fill="#002d3d"/><path d="M3,16c-.15-.13-.09-.31-.09-.47,0-1.49,0-3,0-4.47,0-.13.1-.37-.1-.38s-.26.21-.26.41,0,.58,0,.87c0,.14,0,.28-.22.26a.87.87,0,0,0-1.06.67c0,.11-.1.21-.15.33a.43.43,0,0,1-.42.29c-.26,0-.11-.26-.15-.41s0-.12-.1-.14S.38,13,.38,13c.1.84-.28,1.63-.2,2.46,0,.13,0,.29-.17.32v-3c.27-.07.17-.29.17-.45A37.17,37.17,0,0,1,.37,7.25c0-.07,0-.16.09-.18s.08.12.08.19,0,.35.23.38a.39.39,0,0,0,.42-.28,1.17,1.17,0,0,0,.1-.26,1.43,1.43,0,0,1,.65-.89c.09-.07.16-.14.26,0s.07.28.24.19.12-.23.11-.37a3.28,3.28,0,0,1,.28-1.71c.16.12.08.28.09.42V7.52c0,.15-.07.35.17.41q0,3.81,0,7.64C3.1,15.7,3.14,15.85,3,16Z" fill="#002d3d"/><path d="M29.66,18.69a.73.73,0,0,0-.3.07c-.28.19-.53.4-.8,0-.06-.09-.27-.08-.38,0s0,.24,0,.37c.12.35.28.73-.08,1h0a1.32,1.32,0,0,0-.19-.82c-.07-.14-.17-.23-.32-.14s-.26.17-.13.36a.75.75,0,0,1,.09.25c0,.13.05.29-.14.33s-.2-.08-.23-.21-.11-.11-.19,0c-.11-.23-.23-.46-.33-.69-.47-1.14-1-2.24-1.4-3.42a.51.51,0,0,0-.09-.69c-.38-.41-.38-1.06,0-1.17A2.39,2.39,0,0,0,26.4,13c.2-.23.44-.15.63.12s.21.65.52.85a3.9,3.9,0,0,0,.22.91c.11.2.06.62.5.55C28.74,16.5,29.27,17.56,29.66,18.69Z" fill="#002d3d"/><path d="M0,23.07c.25-.06.16-.26.17-.41A4.39,4.39,0,0,1,.25,21.6a1.7,1.7,0,0,0,.11.16c0,.15-.1.41.11.43s.35-.21.38-.4c.11-.67.69-1,1.07-1.41.05-.06.13-.13.19-.12.61,0,.75-.45,1-.84,0,.23,0,.45,0,.68,0,2,0,4,0,6a.49.49,0,0,1-.55.43c-.66,0-1.33,0-2,0-.44,0-.58-.29-.58-.66C0,24.94,0,24,0,23.07Zm3-2.81,0,0h0a0,0,0,0,1,0,0Z" fill="#002d3d"/><path d="M63,3.17a2.53,2.53,0,0,1,1-.8A13.3,13.3,0,0,1,70.33.08c.33,0,.67-.08,1-.08a.82.82,0,0,1,.91.89c0,1.42,0,2.83,0,4.24,0,.15.07.35-.17.41A9.43,9.43,0,0,0,71.9,3c0-.1-.05-.21-.16-.25s-.19,0-.21.16-.12.15-.21,0L71,2.56c0,.65,0,1.17,0,1.69,0,.17.06.39-.23.39l0-1.78c0-1.4,0-1.37-1.39-1.11a19.84,19.84,0,0,0-3.27,1.07l.13-.31c-.51-.13-.52-.13-.38-.59.06-.21-.09-.24-.18-.18-.43.33-1,.35-1.38.8A2.07,2.07,0,0,1,63,3.17Zm3.08-1.59,0,.07s.06,0,.07,0,0-.05,0-.07Z" fill="#002d3d"/><path d="M3.12,26.1c0-2,0-4,0-6,0-.23,0-.45,0-.68V19A20.28,20.28,0,0,0,3,16c.13-.1.09-.25.09-.38q0-3.83,0-7.64C3.23,6,2.93,4,2.92,2.1a1.24,1.24,0,0,0-.1-.7c-.08.25-.12.42-.19.58s-.09.58-.42.83S1.11,3.43,1,4.17C1,4.4.8,4.4.61,4.28.19,4,.23,4.05.17,4.55c-.08.67.27,1.27.2,1.92C.34,6.74.32,7,0,7,0,4.9,0,2.79,0,.67,0,.25.22.07.63.07H2.5c.51,0,.68.17.68.69,0,1.9,0,3.8,0,5.7V25.57C3.19,25.75,3.24,25.94,3.12,26.1Z" fill="#002d3d"/><path d="M27.55,14c-.31-.2-.33-.58-.52-.85s-.43-.35-.63-.12a2.39,2.39,0,0,1-1.21.95c-.4.11-.4.76,0,1.17a.51.51,0,0,1,.09.69A24.85,24.85,0,0,1,23.9,12.6c0-.17.14-.42-.2-.47h0c0-.32,0-.62-.35-.74h0a1.23,1.23,0,0,0-.19-.91c-.3-.33-.1-.76-.23-1.12,0-.14.09-.19.19-.21s.19.09.23.22-.14.49.16.53.26-.31.4-.47a.9.9,0,0,0,.17-.6.36.36,0,0,1,.31-.35c.16,0,.24.06.36.18a4.83,4.83,0,0,1,1.07,1.75c.19.47.44.95.64,1.44.07.17.15.3.36.27a11.31,11.31,0,0,1,.74,1.71Zm-1.3-1.75a.13.13,0,0,0-.16-.06c-.08,0-.15.07-.13.16s.1.09.17.08S26.27,12.33,26.25,12.2ZM24.83,13s-.13.07-.14.13.07.1.15.1.15-.05.14-.14S24.93,13,24.83,13Z" fill="#002d3d"/><path d="M75.47,22.81c-.12-.12-.31-.16-.38-.43-.15.33,0,.9-.58.63,0-.14.12-.17.16-.27s.23-.22.08-.34-.3,0-.37.09-.35.24-.47.41-.36.19-.56.07a.39.39,0,0,1,.17-.26l5.66-5.58c.26.08.34-.07.36-.29h0c.22.05.34-.11.46-.23.34-.36.45-.35.66.1l.08.14c.16-.25.17-.56.41-.74s.48-.28.6.13a.5.5,0,0,1-.31.41.83.83,0,0,0-.38.3A4.06,4.06,0,0,1,80,18.1a.41.41,0,0,0-.2.44C78.33,20,76.94,21.43,75.47,22.81Z" fill="#002d3d"/><path d="M81.74,7.48A2.16,2.16,0,0,0,81,6.09S80.87,6,80.86,6c0-.46-.46-.63-.66-1-.08-.14-.24-.26-.13-.44a.36.36,0,0,1,.45-.1c.35.14.74.15,1,.54.15.23.33.52.68.55h0l.07.07,0,.09a.46.46,0,0,0,.37.55h0a2.16,2.16,0,0,0,.73,1.28,11.88,11.88,0,0,1,1.1,3.11,18.05,18.05,0,0,1,.25,1.94,1.18,1.18,0,0,0,.41.77c.75.71,1.48,1.44,2.21,2.16a1,1,0,0,1,.13.23c-.22,0-.31-.16-.45-.27-.65-.52-1.13-1.23-1.78-1.75-.34-.27-.74-.49-.75-.93a8.82,8.82,0,0,1-.21-1.77c0-.11.08-.33-.11-.34s-.25.17-.25.33,0,.37-.29.28-.23.13-.26.3.18.64-.17.87h0a13.4,13.4,0,0,0-.3-2c-.14-.67-.43-1.28-.61-1.93,0-.16.12-.41-.2-.44h0c0-.08,0-.15-.11-.18l-.08-.16c0-.12,0-.2-.15-.21A.13.13,0,0,1,81.74,7.48Z" fill="#002d3d"/><path d="M65.25,12.41l-.17.18h0L64,13.72a1,1,0,0,1-.72.33H59.09c-.15,0-.31,0-.42-.11l-.1-.07h0l-.09-.09h0l-.09-.09h0a.34.34,0,0,0-.15-.36v-.37l0,0s0,0,0-.05v-.28c.25,0,.46,0,.54-.35a.75.75,0,0,1,.51-.45c.22-.07.15.21.26.29s.14,0,.21,0c0,.34.08.47.45.46.79,0,1.57,0,2.36,0a.92.92,0,0,0,.84-.41,2.1,2.1,0,0,1,.27-.24c.12.16.25.12.37,0a.51.51,0,0,1,.44-.18.64.64,0,0,0,.77-.34c.18.31,0,.5-.12.71-.17.05-.43-.12-.53.16a.14.14,0,0,0,.1.18c.26,0,.36-.14.43-.34.15,0,.2.08.17.22a.07.07,0,0,1,0,.06Z" fill="#002d3d"/><path d="M0,7c.31,0,.33-.27.36-.54C.44,5.82.09,5.22.17,4.55c.06-.5,0-.52.44-.27C.8,4.4,1,4.4,1,4.17c.07-.74.7-1,1.17-1.36s.31-.54.42-.83.11-.33.19-.58a1.24,1.24,0,0,1,.1.7c0,1.94.31,3.88.17,5.83-.24-.06-.17-.26-.17-.41V4.74c0-.14.07-.3-.09-.42A3.28,3.28,0,0,0,2.55,6c0,.14,0,.3-.11.37s-.18-.1-.24-.19-.17-.07-.26,0a1.43,1.43,0,0,0-.65.89,1.17,1.17,0,0,1-.1.26.39.39,0,0,1-.42.28c-.22,0-.22-.21-.23-.38s0-.16-.08-.19-.08.11-.09.18a37.17,37.17,0,0,0-.19,5.06c0,.16.1.38-.17.45Z" fill="#002d3d"/><path d="M63,3.17a2.07,2.07,0,0,0,1.21-.63c.33-.45,1-.47,1.38-.8.09-.06.24,0,.18.18-.14.46-.13.46.38.59l-.13.31s0,0,0,0c-.46-.09-.68.19-.86.53l-.07.07A12,12,0,0,0,60.55,9c0,.12-.07.27-.24.3a6.37,6.37,0,0,1,.77-2A.19.19,0,0,0,61,7c-.55-.29-.86-.17-1.17.39-.13.25-.16.6-.52.7a11,11,0,0,1,2.06-3.36,4.91,4.91,0,0,1,1.47-1.4c.13,0,.2,0,.2-.18Z" fill="#002d3d"/><path d="M48.84.25H41.91c-.23,0-.45,0-.59.23s-.26.13-.41.14a1.21,1.21,0,0,0-.8.15h2.82c-.06.29-.23.2-.34.2H40.22c-.26,0-.39,0-.41.37,0,.57-.55.9-1,1.17-.1.05-.28,0-.24.18s.17.08.26.11A17.73,17.73,0,0,0,42.29,3h5.06c.16,0,.38-.1.46.16h-9.3a.65.65,0,0,1-.7-.68c0-.62,0-1.24,0-1.87a.52.52,0,0,1,.58-.55l9.94,0A.58.58,0,0,1,48.84.25Z" fill="#002d3d"/><path d="M59.31,8.11c.36-.1.39-.45.52-.7.31-.56.62-.68,1.17-.39a.19.19,0,0,1,.08.3,6.37,6.37,0,0,0-.77,2c-.18.94-.37,1.88-.55,2.82-.07,0-.16,0-.21,0s0-.36-.26-.29a.75.75,0,0,0-.51.45c-.08.32-.29.34-.54.35a10.35,10.35,0,0,1,.44-2.65l.06-.12,0-.24c.23-.05.14-.24.15-.38a.19.19,0,0,1,0-.08.87.87,0,0,0,.35-.93A.09.09,0,0,1,59.31,8.11Z" fill="#002d3d"/><path d="M84.68,26c0-1.26,0-2.52,0-3.78A14.46,14.46,0,0,1,84.5,20c0-.23-.14-.41-.42-.3-.59.24-.59.25-.77-.31.17-.59.68-.88,1.09-1.25.1.27.21.12.32,0,.5-.5,1-1,1.55-1.44.31-.28.65-.19.91-.4a.14.14,0,0,1,.21.11.46.46,0,0,1-.09.41,9.77,9.77,0,0,1-1,1.23c-.06.06,0,.14,0,.21a.31.31,0,0,1-.2.2.17.17,0,0,0-.16.17,5.06,5.06,0,0,1-.88.85s-.19-.07-.09.09a1.16,1.16,0,0,0-.22.77c0,1.69,0,3.39,0,5.09C84.75,25.65,84.82,25.84,84.68,26Zm-1.19-6.75v0l0,0,0,.05Z" fill="#002d3d"/><path d="M70.75,4.64c.29,0,.23-.22.23-.39,0-.52,0-1,0-1.69l.34.4c.09.1.17.12.21,0s.07-.2.21-.16.13.15.16.25a9.43,9.43,0,0,1,.18,2.54,26.9,26.9,0,0,1-2.55,2.57.54.54,0,0,1,.22-.51c.31-.3.6-.61.91-.9s.19-.37,0-.51-.6,0-.91,0c-.14,0-.27.21-.25.43s0,.32-.12.28c-.48-.13-.61.28-.88.49s-.39.61-.82.56l3-3a.1.1,0,0,0,.06-.05Z" fill="#002d3d"/><path d="M67.7,7.92c.43,0,.57-.35.82-.56s.4-.62.88-.49c.16,0,.13-.18.12-.28s.11-.44.25-.43c.31,0,.64-.22.91,0s.17.33,0,.51-.6.6-.91.9a.54.54,0,0,0-.22.51h0c-.29,0-.41.07-.37.36a.21.21,0,0,1-.18.19.16.16,0,0,0-.18.18,4.7,4.7,0,0,1-1.1,1.08c0-.12,0-.24-.08-.34-.21-.28-.07-.37.21-.38.07,0,.16,0,.19-.12-.32-.29-.68,0-.87.12s-1,.17-.78.9c-.14-.17-.39-.14-.44-.38l0,0,.1-.1h0l.09-.13A12.41,12.41,0,0,1,67.7,7.92Zm1.61-.84s-.06,0-.08,0a.49.49,0,0,0,0,.07s0,0,.07,0S69.29,7.1,69.31,7.08Z" fill="#002d3d"/><path d="M59.14,18a2.93,2.93,0,0,1,1.63.19h0c.06.17-.21.49.23.47a.08.08,0,0,1,0,0v0l1,1.65c-.19.24.2.28.16.47-.24-.1-.54,0-.71-.33-.05-.08-.23-.07-.34,0s-.15.36-.19.55.14.12.23.13c.42.07.32.41.35.68a.36.36,0,0,1-.27-.14,11.2,11.2,0,0,1-1.9-3.09l-.06-.08,0-.18-.06-.11s0,0,0,0h0Z" fill="#002d3d"/><path d="M65.93,9.72c0,.24.3.21.44.38-.2-.73.48-.69.78-.9s.55-.41.87-.12c0,.13-.12.12-.19.12-.28,0-.42.1-.21.38.09.1.07.22.08.34h0a.61.61,0,0,0-.45.5l-.08.05a.17.17,0,0,0-.19.18l0,.1,0,0-.07.07,0,0a.12.12,0,0,1-.05,0l0,.05-.06,0,0,0a.13.13,0,0,1-.06.07s0,0,0,0a.17.17,0,0,1-.06.06l0,0s0,0-.06.06l0,0a7,7,0,0,1-1,1c0-.14,0-.22-.17-.22h0c.09-.21.3-.4.12-.71a.64.64,0,0,1-.77.34.51.51,0,0,0-.44.18c-.12.12-.25.16-.37,0a20.17,20.17,0,0,1,1.73-1.73c.35.11.46,0,.37-.36Zm1,.16.34.07s0-.1,0-.12S67.12,9.73,67,9.88Z" fill="#002d3d"/><path d="M79.76,18.54a.41.41,0,0,1,.2-.44,4.06,4.06,0,0,0,1.1-1.16.83.83,0,0,1,.38-.3.5.5,0,0,0,.31-.41,8.11,8.11,0,0,0,1.53-1.51,1.69,1.69,0,0,1,.63-.39c.33-.13.53.07.58.51-.6-.37-.67-.34-1.14.21s-1,1-1.56,1.56A18.53,18.53,0,0,1,79.76,18.54Z" fill="#002d3d"/><path d="M74.64,13.58c.38.45.91.36,1.42.36h5.42A.93.93,0,0,1,82,14c.17.11.22.21,0,.31.1-.31-.17-.25-.29-.26-.38,0-.75,0-1.13,0H75.35a.79.79,0,0,1-.62-.23c0-.08,0-.16-.11-.19h0Z" fill="#002d3d"/><path d="M27.55,14l0-.12a6,6,0,0,1,.7,1.58c-.44.07-.39-.35-.5-.55A3.9,3.9,0,0,1,27.55,14Z" fill="#002d3d"/><path d="M74.64,13.58v.1c-.24-.16-.16-.41-.17-.62,0-.38,0-.75,0-1.13.2.07.14.25.14.39C74.64,12.74,74.64,13.16,74.64,13.58Z" fill="#002d3d"/><path d="M83.39,7.56a2.16,2.16,0,0,1-.73-1.28A2.7,2.7,0,0,1,83.39,7.56Z" fill="#002d3d"/><path d="M54.93,11.4a1.11,1.11,0,0,1,.36-1.1A2.28,2.28,0,0,1,54.93,11.4Z" fill="#002d3d"/><path d="M54.55,4.46c-.49,0-.33-.32-.35-.56A.57.57,0,0,1,54.55,4.46Z" fill="#002d3d"/><path d="M59.3,8.18a.87.87,0,0,1-.35.93A2.24,2.24,0,0,1,59.3,8.18Z" fill="#002d3d"/><path d="M82.67,6.28a.46.46,0,0,1-.37-.55A.68.68,0,0,1,82.67,6.28Z" fill="#002d3d"/><path d="M67.24,10.43a.61.61,0,0,1,.45-.5C67.64,10.19,67.4,10.28,67.24,10.43Z" fill="#002d3d"/><path d="M69.16,8.47c0-.29.08-.4.37-.36C69.48,8.3,69.31,8.38,69.16,8.47Z" fill="#002d3d"/><path d="M73.09,23.17a.59.59,0,0,1-.44.45A1,1,0,0,1,73.09,23.17Z" fill="#002d3d"/><path d="M79.54,16.84c0,.22-.1.37-.36.29C79.27,17,79.35,16.85,79.54,16.84Z" fill="#002d3d"/><path d="M58.93,9.19c0,.14.08.33-.15.38A.48.48,0,0,1,58.93,9.19Z" fill="#002d3d"/><path d="M72.45,23.82c0,.1-.07.18-.19.14s-.08-.11-.08-.19Z" fill="#002d3d"/><path d="M58.24,13.31a.34.34,0,0,1,.15.36A.27.27,0,0,1,58.24,13.31Z" fill="#002d3d"/><path d="M50.19.62c-.11,0-.24,0-.28-.13C50,.45,50.12.52,50.19.62Z" fill="#002d3d"/><path d="M46,17.23c.12,0,.23,0,.1.18A.21.21,0,0,1,46,17.23Z" fill="#002d3d"/><path d="M68.8,8.84A.16.16,0,0,1,69,8.66.19.19,0,0,1,68.8,8.84Z" fill="#002d3d"/><path d="M63,3.17c0,.14-.07.19-.2.18A.22.22,0,0,1,63,3.17Z" fill="#002d3d"/><path d="M85.94,18.67a.17.17,0,0,1,.16-.17C86.11,18.62,86.05,18.66,85.94,18.67Z" fill="#002d3d"/><path d="M67,10.66a.17.17,0,0,1,.19-.18A.2.2,0,0,1,67,10.66Z" fill="#002d3d"/><path d="M74.62,13.68c.1,0,.1.11.11.19S74.65,13.75,74.62,13.68Z" fill="#002d3d"/><path d="M73.26,23.06a.16.16,0,0,1-.17.1C73.12,23.08,73.19,23.07,73.26,23.06Z" fill="#002d3d"/><path d="M72.54,23.72l-.07.08S72.43,23.68,72.54,23.72Z" fill="#002d3d"/><path d="M85,19.61c-.1-.16,0-.07.09-.09Z" fill="#002d3d"/><path d="M58.57,13.86l.1.07Z" fill="#002d3d"/><path d="M87.58,15.86l-.08-.08Z" fill="#002d3d"/><path d="M82.27,5.64l-.07-.07Z" fill="#002d3d"/><path d="M49.43.35h0l0,0Z" fill="#002d3d"/><polygon points="66.43 11.24 66.46 11.21 66.46 11.24 66.43 11.24" fill="#002d3d"/><path d="M66.52,11.15s0,0,0,0v0Z" fill="#002d3d"/><polygon points="59.21 18.27 59.22 18.28 59.2 18.28 59.21 18.27" fill="#002d3d"/><path d="M66.7,11l0-.05v0Z" fill="#002d3d"/><polygon points="65.25 12.41 65.26 12.4 65.27 12.42 65.25 12.41" fill="#002d3d"/><polygon points="65.07 12.6 65.08 12.59 65.08 12.61 65.07 12.6" fill="#002d3d"/><polygon points="66.79 10.88 66.81 10.85 66.82 10.88 66.79 10.88" fill="#002d3d"/><path d="M58.24,12.86s0,0,0,.05l0,0A.08.08,0,0,1,58.24,12.86Z" fill="#002d3d"/><path d="M29.72,18.78l-.06-.1Z" fill="#002d3d"/><path d="M59.24,18.32l.06.11Z" fill="#002d3d"/><polygon points="66.89 10.78 66.92 10.76 66.91 10.79 66.89 10.78" fill="#002d3d"/><polygon points="66.34 11.33 66.37 11.3 66.37 11.33 66.34 11.33" fill="#002d3d"/><polygon points="66.61 11.05 66.64 11.03 66.64 11.06 66.61 11.05" fill="#002d3d"/><path d="M58.39,13.68l.09.09Z" fill="#002d3d"/><path d="M58.74,9.81l-.06.12Z" fill="#002d3d"/><path d="M58.48,13.77l.09.09Z" fill="#002d3d"/><path d="M59.34,18.61l.06.08Z" fill="#002d3d"/><path d="M73.35,23l-.09.09Z" fill="#002d3d"/><path d="M21.53,7l-.4-.74c-.11-.22-.18-.17-.29,0s-.14.56-.39.74a1.31,1.31,0,0,1,.35-1c.16-.22.3-.14.44,0A1,1,0,0,1,21.53,7Z" fill="#002d3d"/><path d="M20.45,7a6.42,6.42,0,0,1-.73,1.75C19.59,8,20.06,7.54,20.45,7Z" fill="#002d3d"/><path d="M16.6,16.14a7.05,7.05,0,0,1-.7,1.59C16,17.16,16,16.5,16.6,16.14Z" fill="#002d3d"/><path d="M15.89,17.78a2.09,2.09,0,0,1-.34.83h-.13v-.19C15.63,18.24,15.59,17.89,15.89,17.78Z" fill="#002d3d"/><path d="M19.71,8.84a.4.4,0,0,1-.18.37C19.54,9.06,19.46,8.87,19.71,8.84Z" fill="#002d3d"/><path d="M28.1,20.15c0,.07,0,.14-.11.14l0,0c0-.1.08-.1.14-.11Z" fill="#002d3d"/><path d="M74.63,11.21c0-1.72,0-3.43,0-5.14a5.36,5.36,0,0,1,.44-1.57,1.9,1.9,0,0,1,.09.78c0,.13,0,.26.19.26s.17-.14.17-.26c0-.38,0-.75,0-1.13.24,0,.19.15.18.24-.13,2.46.29,4.91.19,7.37-.22,0-.18-.21-.18-.36V10.22c0-.1-.12-.3-.13-.24-.14.56-.75-.5-.78.24,0,.27,0,.55,0,.82C74.81,11.15,74.73,11.19,74.63,11.21Z" fill="#002d3d"/><path d="M83.22,12.49c0,.18-.18.18-.32.18H76.33a.33.33,0,0,1-.25-.08h6.5a2.22,2.22,0,0,0,.63-.08Z" fill="#002d3d"/><path d="M80.74,16.09c-.07,0-.08-.08-.08-.13s0-.13.09-.13.08.07.08.13S80.83,16.08,80.74,16.09Z" fill="#002d3d"/><path d="M76.08,12.59,76,12.5h0l.09.09Z" fill="#002d3d"/><path d="M71,21.33a1.81,1.81,0,0,1,0-1.39,1.35,1.35,0,0,0,0-.8,7.3,7.3,0,0,1,.19-1.55.15.15,0,0,1,.13-.16.18.18,0,0,1,.22.1,1.2,1.2,0,0,1,.2.76c.27-.06.09-.32.36-.39v3.25l-.22.06c-.33.09-.56.05-.51-.38a.27.27,0,0,0-.08-.27c-.16.12-.09.29-.1.43S71.21,21.31,71,21.33Z" fill="#002d3d"/><path d="M62.07,20.41a2.86,2.86,0,0,1,.7.84.47.47,0,0,1-.54-.37C62.27,20.69,61.88,20.65,62.07,20.41Z" fill="#002d3d"/><path d="M62.77,21.25a.58.58,0,0,1,.31.34C62.78,21.66,62.76,21.47,62.77,21.25Z" fill="#002d3d"/><path d="M15.42,18.6h.13a4.93,4.93,0,0,1-.45,1c-.1,0-.21.13-.29,0s-.07-.29,0-.34C15.14,19.13,15.16,18.76,15.42,18.6Z" fill="#002d3d"/><path d="M14.94,20.06a6.35,6.35,0,0,1-.42.92C14.34,20.5,14.47,20.22,14.94,20.06Z" fill="#002d3d"/><path d="M14.52,21a1.57,1.57,0,0,1-.28.65C14.24,21.37,14.14,21.07,14.52,21Z" fill="#002d3d"/><path d="M3.09,19v.17c-.06,0-.13,0-.13-.09S3,19,3.09,19Z" fill="#002d3d"/><path d="M47.29.75a.55.55,0,0,1,.58-.07C47.72.88,47.57.79,47.29.75Z" fill="#002d3d"/><path d="M3,20.26H3a0,0,0,0,0,0,0H3Z" fill="#002d3d"/><path d="M66.12,1.57l.08,0s0,.06,0,.07,0,0-.07,0Z" fill="#002d3d"/><path d="M23.71,12.13a1.59,1.59,0,0,1-.35-.74C23.75,11.51,23.75,11.81,23.71,12.13Z" fill="#002d3d"/><path d="M26.25,12.2c0,.13,0,.18-.12.18s-.16,0-.17-.08.05-.14.13-.16A.13.13,0,0,1,26.25,12.2Z" fill="#002d3d"/><path d="M24.83,13c.1,0,.15,0,.15.09s-.05.13-.14.14-.17,0-.15-.1S24.79,13,24.83,13Z" fill="#002d3d"/><path d="M23.9,12.6a.69.69,0,0,1-.2-.47C24,12.18,23.86,12.43,23.9,12.6Z" fill="#002d3d"/><path d="M82.3,8.56a.62.62,0,0,1-.2-.44C82.42,8.15,82.25,8.4,82.3,8.56Z" fill="#002d3d"/><path d="M81.92,7.77a.19.19,0,0,1-.15-.21C81.9,7.57,81.94,7.65,81.92,7.77Z" fill="#002d3d"/><path d="M82.11,8.11C82,8.08,82,8,82,7.93S82.11,8,82.11,8.11Z" fill="#002d3d"/><path d="M65.14,12.12c-.07.2-.17.38-.43.34a.14.14,0,0,1-.1-.18c.1-.28.36-.11.53-.16Z" fill="#002d3d"/><path d="M66,2.83a2,2,0,0,1-.86.53C65.33,3,65.55,2.74,66,2.83Z" fill="#002d3d"/><path d="M83.48,19.23l0,0v0Z" fill="#002d3d"/><path d="M83.49,19.24l0,0,0-.05Z" fill="#002d3d"/><path d="M70.65,4.9l.06-.05A.1.1,0,0,1,70.65,4.9Z" fill="#002d3d"/><path d="M69.31,7.08s0,.06,0,.07,0,0-.07,0a.49.49,0,0,1,0-.07S69.28,7.07,69.31,7.08Z" fill="#002d3d"/><path d="M66.05,9.65c0-.07,0-.1.09-.13Z" fill="#002d3d"/><path d="M66,9.74a.09.09,0,0,1,.1-.1Z" fill="#002d3d"/><path d="M60.77,18.23a.66.66,0,0,1,.23.47C60.56,18.72,60.83,18.4,60.77,18.23Z" fill="#002d3d"/><polygon points="61.04 18.74 61.07 18.74 61.05 18.76 61.04 18.74" fill="#002d3d"/><path d="M65.41,10.2l.37-.36C65.87,10.19,65.76,10.31,65.41,10.2Z" fill="#002d3d"/><path d="M67,9.88c.17-.15.26-.16.35-.05s0,.08,0,.12Z" fill="#002d3d"/></g></g></svg>