<svg xmlns="http://www.w3.org/2000/svg" xmlns:xlink="http://www.w3.org/1999/xlink" viewBox="0 0 117.57 117.55"><defs><linearGradient id="linear-gradient" y1="58.78" x2="117.57" y2="58.78" gradientUnits="userSpaceOnUse"><stop offset="0.27" stop-color="#1caba7"/><stop offset="1" stop-color="#104a4b"/></linearGradient><linearGradient id="linear-gradient-2" x1="15.07" y1="58.08" x2="103.91" y2="58.08" xlink:href="#linear-gradient"/></defs><title>Asset 5</title><g id="Layer_2" data-name="Layer 2"><g id="Layer_1-2" data-name="Layer 1"><path d="M116,45.11a59,59,0,1,0,1.6,13.63A58.86,58.86,0,0,0,116,45.11M93.21,22l.43.4.45.43.31.31.31.32.06.06c.45.45.89.92,1.33,1.4l.2.22.16.18.06.07L97,26l.51.59.33.4.33.4.33.4c.22.28.44.55.65.83h-.06c-.34,0-.54,0-.74,0-4.84,0-9.68,0-14.51,0A1,1,0,0,1,82.82,28,64.28,64.28,0,0,0,70.61,10.25l-.29-.33s0,0,0-.09,0-.09,0-.16A50.37,50.37,0,0,1,93.21,22M61.64,9.66a56.73,56.73,0,0,1,8.63,8.62A62.62,62.62,0,0,1,77,28.64H61.64Zm-5.7,0v19H40.65a60.87,60.87,0,0,1,6.66-10.34,56.73,56.73,0,0,1,8.63-8.62M21,25.48l.12-.14.12-.13.11-.13.35-.38q1.23-1.34,2.49-2.52l.37-.35.36-.33c1-.92,2.07-1.81,3.14-2.64l.54-.4.54-.41.55-.39.56-.39.42-.29.21-.14.5-.32q.56-.37,1.14-.72l.58-.34c.81-.48,1.64-.93,2.47-1.36l.64-.32.63-.31.39-.18a50.59,50.59,0,0,1,7.13-2.68l.29-.08.45-.13.45-.13.51-.13.23-.06.27-.07.5-.12h0l.22-.05c-1.05,1.16-2.12,2.3-3.13,3.49a63.88,63.88,0,0,0-9.4,14.62,1.08,1.08,0,0,1-1.15.74c-4.79,0-9.57,0-14.36,0-.22,0-.45,0-.82,0h-.06c.85-1.09,1.71-2.14,2.61-3.14M31.24,101c-.57-.37-1.15-.77-1.74-1.21-4.34-3.16-9.18-7.86-11-10.86.3,0,.52,0,.73,0H33.79a.85.85,0,0,1,.91.55,64.12,64.12,0,0,0,12.37,18l.24.29c-2,.26-11.28-3.61-16.07-6.71m24.69,6.91a55.27,55.27,0,0,1-8.62-8.61A61.18,61.18,0,0,1,40.62,88.9H55.93Zm5.71,0c0-.34-.07-.54-.07-.74,0-5.86,0-11.73,0-17.6,0-.49.12-.7.65-.7l8.05,0h6.1c.14,0,.29,0,.57.06a60.92,60.92,0,0,1-6.67,10.34,56.2,56.2,0,0,1-8.62,8.62m25.88-7.74a49.89,49.89,0,0,1-17.26,7.57l0,0c.12-.15.24-.31.37-.45A64,64,0,0,0,82.79,89.6a1.09,1.09,0,0,1,1.14-.75c4.79,0,9.58,0,14.37,0,.24,0,.47,0,.9,0a52.55,52.55,0,0,1-11.68,11.24M109,63.78c-.08.78-.18,1.56-.29,2.33a50.51,50.51,0,0,1-1.24,6.3h-.11a49,49,0,0,1-4.18,10.31.9.9,0,0,1-.9.57H86.1a5.85,5.85,0,0,1-.59-.06c.5-1.63,1-3.17,1.44-4.72q.85-3,1.44-6.09H82.7a67.7,67.7,0,0,1-2.9,10.08,1.05,1.05,0,0,1-1.16.81l-8.38,0-7.83,0c-.67,0-.88-.17-.87-.86q0-5,0-10H56V83.28H47.31l-8.4,0a1,1,0,0,1-1.12-.76,67.17,67.17,0,0,1-2.91-10.13H29.2a72.35,72.35,0,0,0,2.93,10.83c-.38,0-.64,0-.9,0-5.23,0-10.47,0-15.7,0a1.17,1.17,0,0,1-1.18-.73,50.12,50.12,0,0,1-4.09-10.16h-.12a50.86,50.86,0,0,1-1.29-6.76c-.13-1-.25-2-.33-2.93,0-.29,0-.59,0-.88a.48.48,0,0,1,0-.15c0-1.11,0-2.1,0-2.93,0-.66,0-1.63.1-2.86H8.44c.12-1.28.21-2.54.38-3.79a49.35,49.35,0,0,1,1.44-7,50.83,50.83,0,0,1,4.16-10.27,1.17,1.17,0,0,1,.32-.42.85.85,0,0,1,.56-.17c5.4,0,10.8,0,16.21,0,.17,0,.33,0,.61.05a73.73,73.73,0,0,0-2.92,10.8h5.69A66.07,66.07,0,0,1,37.79,35a1,1,0,0,1,1.15-.8c2.79,0,5.58,0,8.37,0h8.62V45.11h5.68V34.31c.27,0,.51-.05.75-.05H78.79a.8.8,0,0,1,.92.58,67,67,0,0,1,3,10.28h5.69A71.22,71.22,0,0,0,85.7,35c0-.16-.11-.32-.15-.49a1.26,1.26,0,0,1,0-.29h.72c5.25,0,10.51,0,15.76,0a1.14,1.14,0,0,1,.82.26,1.44,1.44,0,0,1,.36.48,50.33,50.33,0,0,1,5.85,20.43c0,.14,0,.29,0,.5H109c.08,1.21.09,2.18.09,2.84s0,1.73,0,2.79h.06c0,.79-.08,1.51-.15,2.23" fill="url(#linear-gradient)"/><text transform="translate(14.86 66.45)" font-size="23.93" font-family="GothamBlack, Gotham Black">S<tspan x="15.6" y="0" letter-spacing="0em">C</tspan><tspan x="33.16" y="0" letter-spacing="0em">A</tspan><tspan x="52.18" y="0" letter-spacing="-0.01em">D</tspan><tspan x="70.17" y="0">A</tspan></text><path d="M22.92,66.74a13.14,13.14,0,0,1-4.27-.7,10.48,10.48,0,0,1-3.58-2.1l2.59-3.09a8.5,8.5,0,0,0,5.43,2,2.75,2.75,0,0,0,1.42-.3.93.93,0,0,0,.49-.85v0a.91.91,0,0,0-.12-.47,1.23,1.23,0,0,0-.44-.39,4.5,4.5,0,0,0-.86-.37,12.89,12.89,0,0,0-1.4-.37c-.9-.21-1.73-.44-2.49-.68a7.74,7.74,0,0,1-2-1,4.09,4.09,0,0,1-1.83-3.62v-.05a5.18,5.18,0,0,1,.44-2.14,4.78,4.78,0,0,1,1.3-1.7,5.89,5.89,0,0,1,2-1.11,8.72,8.72,0,0,1,2.71-.4,11.91,11.91,0,0,1,3.83.57,9.89,9.89,0,0,1,3.06,1.67l-2.33,3.29a9.46,9.46,0,0,0-2.35-1.23,7.14,7.14,0,0,0-2.33-.42A2.09,2.09,0,0,0,21,53.6a.93.93,0,0,0-.42.77v0a.91.91,0,0,0,.13.5,1.16,1.16,0,0,0,.46.4,4.92,4.92,0,0,0,.88.36c.38.12.85.24,1.43.37a19.17,19.17,0,0,1,2.59.73,7.66,7.66,0,0,1,2,1,4.09,4.09,0,0,1,1.24,1.45,4.32,4.32,0,0,1,.43,2v0a5.08,5.08,0,0,1-.49,2.29,5,5,0,0,1-1.38,1.71,6.29,6.29,0,0,1-2.13,1.08A9.88,9.88,0,0,1,22.92,66.74Z" fill="url(#linear-gradient-2)"/><path d="M40,66.78a8.83,8.83,0,0,1-3.37-.64,8.14,8.14,0,0,1-2.74-1.81,8.76,8.76,0,0,1-2.53-6.21v0a8.72,8.72,0,0,1,2.52-6.19A8.31,8.31,0,0,1,36.66,50a9.1,9.1,0,0,1,3.53-.67,10,10,0,0,1,2.35.25,7.71,7.71,0,0,1,1.92.72A7.46,7.46,0,0,1,46,51.45a9.34,9.34,0,0,1,1.26,1.41l-3.49,2.7a6.2,6.2,0,0,0-1.58-1.43,3.94,3.94,0,0,0-2.08-.53,3.8,3.8,0,0,0-2.88,1.29,4.41,4.41,0,0,0-.82,1.42,4.9,4.9,0,0,0-.3,1.72v0a5.07,5.07,0,0,0,.3,1.75,4.46,4.46,0,0,0,.82,1.43,3.8,3.8,0,0,0,2.88,1.29,4.83,4.83,0,0,0,1.18-.14,3.76,3.76,0,0,0,1-.42,5.73,5.73,0,0,0,.84-.65c.26-.25.52-.52.78-.82L47.42,63a11.93,11.93,0,0,1-1.31,1.51,7.69,7.69,0,0,1-1.6,1.2,8.59,8.59,0,0,1-2,.79A10.06,10.06,0,0,1,40,66.78Z" fill="url(#linear-gradient-2)"/><path d="M55.29,49.58h4.47l7.13,16.87h-5l-1.22-3H54.24l-1.2,3H48.16Zm4.07,10.29-1.87-4.76L55.6,59.87Z" fill="url(#linear-gradient-2)"/><path d="M68.52,49.7H75a12.38,12.38,0,0,1,4,.61A8.5,8.5,0,0,1,82,52a7.44,7.44,0,0,1,1.85,2.62A8.68,8.68,0,0,1,84.43,58V58a8.63,8.63,0,0,1-.64,3.36,7.73,7.73,0,0,1-1.87,2.67,8.78,8.78,0,0,1-3,1.76,12.09,12.09,0,0,1-4,.63H68.52Zm6.54,12.63a4.93,4.93,0,0,0,3.36-1.1,3.89,3.89,0,0,0,1.27-3.13v-.05a3.91,3.91,0,0,0-1.27-3.12,4.93,4.93,0,0,0-3.36-1.11h-1.9v8.51Z" fill="url(#linear-gradient-2)"/><path d="M92.3,49.58h4.48l7.13,16.87h-5l-1.22-3H91.25l-1.2,3H85.17Zm4.07,10.29L94.5,55.11l-1.89,4.76Z" fill="url(#linear-gradient-2)"/></g></g></svg>