<svg xmlns="http://www.w3.org/2000/svg" xmlns:xlink="http://www.w3.org/1999/xlink" viewBox="0 0 110.44 110.26"><defs><linearGradient id="linear-gradient" x1="75.77" y1="55.13" x2="110.26" y2="55.13" gradientUnits="userSpaceOnUse"><stop offset="0.27" stop-color="#1caba7"/><stop offset="1" stop-color="#104a4b"/></linearGradient><linearGradient id="linear-gradient-2" x1="0" y1="55.13" x2="34.65" y2="55.13" xlink:href="#linear-gradient"/><linearGradient id="linear-gradient-3" x1="110.26" y1="75.59" x2="110.44" y2="75.59" xlink:href="#linear-gradient"/><linearGradient id="linear-gradient-4" x1="34.67" y1="0.05" x2="37.17" y2="0.05" xlink:href="#linear-gradient"/><linearGradient id="linear-gradient-5" x1="34.65" y1="0" x2="34.67" y2="0" xlink:href="#linear-gradient"/><linearGradient id="linear-gradient-6" x1="37.17" y1="55.13" x2="73.53" y2="55.13" xlink:href="#linear-gradient"/></defs><title>Asset 4</title><g id="Layer_2" data-name="Layer 2"><g id="Layer_1-2" data-name="Layer 1"><path d="M110.26,0H75.77V110.26a34.68,34.68,0,0,0,34.49-31.12V0Z" fill="url(#linear-gradient)"/><path d="M34.65,0A34.67,34.67,0,0,0,0,34.67v75.59H34.65ZM8.57,105.31a4.13,4.13,0,1,1,4.13-4.13,4.12,4.12,0,0,1-4.13,4.13" fill="url(#linear-gradient-2)"/><path d="M110.26,72v7.1a35.1,35.1,0,0,0,0-7.1" fill="url(#linear-gradient-3)"/><path d="M34.67,0h0c.84,0,1.68,0,2.5.09V0Z" fill="url(#linear-gradient-4)"/><path d="M34.65,0Z" fill="url(#linear-gradient-5)"/><polygon points="37.17 0.09 37.17 110.26 73.53 110.26 73.53 0 37.17 0 37.17 0.09" fill="url(#linear-gradient-6)"/></g></g></svg>