<svg xmlns="http://www.w3.org/2000/svg" xmlns:xlink="http://www.w3.org/1999/xlink" viewBox="0 0 128.36 114.65"><defs><linearGradient id="linear-gradient" y1="57.33" x2="128.36" y2="57.33" gradientUnits="userSpaceOnUse"><stop offset="0.27" stop-color="#1caba7"/><stop offset="1" stop-color="#104a4b"/></linearGradient><linearGradient id="linear-gradient-2" x1="37.53" y1="13.62" x2="89.06" y2="13.62" xlink:href="#linear-gradient"/><linearGradient id="linear-gradient-3" x1="37.53" y1="101.11" x2="89.06" y2="101.11" xlink:href="#linear-gradient"/></defs><title>Asset 10</title><g id="Layer_2" data-name="Layer 2"><g id="Layer_1-2" data-name="Layer 1"><path d="M93.06,0V31H34.17V.58a64.2,64.2,0,0,0,0,113.49V83.7H93.06v31A64.2,64.2,0,0,0,93.06,0" fill="url(#linear-gradient)"/><path d="M89.06,4.72A4.64,4.64,0,0,0,84.42.08H42.17a4.64,4.64,0,0,0-4.64,4.64V27.16H89.06Z" fill="url(#linear-gradient-2)"/><path d="M37.53,110a4.64,4.64,0,0,0,4.64,4.64H84.42A4.64,4.64,0,0,0,89.06,110V87.57H37.53Z" fill="url(#linear-gradient-3)"/></g></g></svg>